<?xml version="1.0" encoding="UTF-8"?>
<!--Generator: Apple Native CoreSVG 175-->
<!DOCTYPE svg
PUBLIC "-//W3C//DTD SVG 1.1//EN"
       "http://www.w3.org/Graphics/SVG/1.1/DTD/svg11.dtd">
<svg version="1.1" xmlns="http://www.w3.org/2000/svg" xmlns:xlink="http://www.w3.org/1999/xlink" width="3300" height="2200">
 <!--glyph: "uni1005D5.medium", point size: 100.0, font version: "17.3d3e1", template writer version: "65.1"-->
 <g id="Notes">
  <rect height="2200" id="artboard" style="fill:white;opacity:1" width="3300" x="0" y="0"/>
  <line style="fill:none;stroke:black;opacity:1;stroke-width:0.5;" x1="263" x2="3036" y1="292" y2="292"/>
  <text style="stroke:none;fill:black;font-family:sans-serif;font-size:13;font-weight:bold;" transform="matrix(1 0 0 1 263 322)">Weight/Scale Variations</text>
  <text style="stroke:none;fill:black;font-family:sans-serif;font-size:13;text-anchor:middle;" transform="matrix(1 0 0 1 559.711 322)">Ultralight</text>
  <text style="stroke:none;fill:black;font-family:sans-serif;font-size:13;text-anchor:middle;" transform="matrix(1 0 0 1 856.422 322)">Thin</text>
  <text style="stroke:none;fill:black;font-family:sans-serif;font-size:13;text-anchor:middle;" transform="matrix(1 0 0 1 1153.13 322)">Light</text>
  <text style="stroke:none;fill:black;font-family:sans-serif;font-size:13;text-anchor:middle;" transform="matrix(1 0 0 1 1449.84 322)">Regular</text>
  <text style="stroke:none;fill:black;font-family:sans-serif;font-size:13;text-anchor:middle;" transform="matrix(1 0 0 1 1746.56 322)">Medium</text>
  <text style="stroke:none;fill:black;font-family:sans-serif;font-size:13;text-anchor:middle;" transform="matrix(1 0 0 1 2043.27 322)">Semibold</text>
  <text style="stroke:none;fill:black;font-family:sans-serif;font-size:13;text-anchor:middle;" transform="matrix(1 0 0 1 2339.98 322)">Bold</text>
  <text style="stroke:none;fill:black;font-family:sans-serif;font-size:13;text-anchor:middle;" transform="matrix(1 0 0 1 2636.69 322)">Heavy</text>
  <text style="stroke:none;fill:black;font-family:sans-serif;font-size:13;text-anchor:middle;" transform="matrix(1 0 0 1 2933.4 322)">Black</text>
  <line style="fill:none;stroke:black;opacity:1;stroke-width:0.5;" x1="263" x2="3036" y1="1903" y2="1903"/>
  <g transform="matrix(1 0 0 1 263 1933)">
   <path d="M9.24805 0.830078Q10.8691 0.830078 12.2949 0.214844Q13.7207-0.400391 14.8096-1.49414Q15.8984-2.58789 16.5186-4.01367Q17.1387-5.43945 17.1387-7.05078Q17.1387-8.66211 16.5186-10.0879Q15.8984-11.5137 14.8047-12.6074Q13.7109-13.7012 12.2852-14.3164Q10.8594-14.9316 9.23828-14.9316Q7.62695-14.9316 6.20117-14.3164Q4.77539-13.7012 3.69141-12.6074Q2.60742-11.5137 1.9873-10.0879Q1.36719-8.66211 1.36719-7.05078Q1.36719-5.43945 1.9873-4.01367Q2.60742-2.58789 3.69629-1.49414Q4.78516-0.400391 6.21094 0.214844Q7.63672 0.830078 9.24805 0.830078ZM9.24805-0.654297Q7.91992-0.654297 6.7627-1.14746Q5.60547-1.64062 4.73145-2.51953Q3.85742-3.39844 3.36426-4.56055Q2.87109-5.72266 2.87109-7.05078Q2.87109-8.37891 3.35938-9.54102Q3.84766-10.7031 4.72168-11.582Q5.5957-12.4609 6.75293-12.9541Q7.91016-13.4473 9.23828-13.4473Q10.5762-13.4473 11.7334-12.9541Q12.8906-12.4609 13.7695-11.582Q14.6484-10.7031 15.1465-9.54102Q15.6445-8.37891 15.6445-7.05078Q15.6445-5.72266 15.1514-4.56055Q14.6582-3.39844 13.7842-2.51953Q12.9102-1.64062 11.748-1.14746Q10.5859-0.654297 9.24805-0.654297ZM5.6543-7.05078Q5.6543-6.72852 5.85938-6.52832Q6.06445-6.32812 6.40625-6.32812L8.51562-6.32812L8.51562-4.20898Q8.51562-3.88672 8.71094-3.67676Q8.90625-3.4668 9.23828-3.4668Q9.56055-3.4668 9.77051-3.67676Q9.98047-3.88672 9.98047-4.20898L9.98047-6.32812L12.0898-6.32812Q12.4219-6.32812 12.627-6.52832Q12.832-6.72852 12.832-7.05078Q12.832-7.38281 12.627-7.58789Q12.4219-7.79297 12.0898-7.79297L9.98047-7.79297L9.98047-9.90234Q9.98047-10.2344 9.77051-10.4443Q9.56055-10.6543 9.23828-10.6543Q8.90625-10.6543 8.71094-10.4443Q8.51562-10.2344 8.51562-9.90234L8.51562-7.79297L6.40625-7.79297Q6.06445-7.79297 5.85938-7.58789Q5.6543-7.38281 5.6543-7.05078Z"/>
  </g>
  <g transform="matrix(1 0 0 1 281.867 1933)">
   <path d="M11.709 2.91016Q13.75 2.91016 15.5518 2.12891Q17.3535 1.34766 18.7305-0.0292969Q20.1074-1.40625 20.8887-3.20801Q21.6699-5.00977 21.6699-7.05078Q21.6699-9.0918 20.8887-10.8936Q20.1074-12.6953 18.7305-14.0723Q17.3535-15.4492 15.5469-16.2305Q13.7402-17.0117 11.6992-17.0117Q9.6582-17.0117 7.85645-16.2305Q6.05469-15.4492 4.68262-14.0723Q3.31055-12.6953 2.5293-10.8936Q1.74805-9.0918 1.74805-7.05078Q1.74805-5.00977 2.5293-3.20801Q3.31055-1.40625 4.6875-0.0292969Q6.06445 1.34766 7.86621 2.12891Q9.66797 2.91016 11.709 2.91016ZM11.709 1.25Q9.98047 1.25 8.47656 0.605469Q6.97266-0.0390625 5.83496-1.17676Q4.69727-2.31445 4.05762-3.81836Q3.41797-5.32227 3.41797-7.05078Q3.41797-8.7793 4.05762-10.2832Q4.69727-11.7871 5.83008-12.9297Q6.96289-14.0723 8.4668-14.7119Q9.9707-15.3516 11.6992-15.3516Q13.4277-15.3516 14.9316-14.7119Q16.4355-14.0723 17.5781-12.9297Q18.7207-11.7871 19.3652-10.2832Q20.0098-8.7793 20.0098-7.05078Q20.0098-5.32227 19.3701-3.81836Q18.7305-2.31445 17.5928-1.17676Q16.4551-0.0390625 14.9463 0.605469Q13.4375 1.25 11.709 1.25ZM7.17773-7.05078Q7.17773-6.69922 7.41211-6.47461Q7.64648-6.25 8.01758-6.25L10.8887-6.25L10.8887-3.36914Q10.8887-2.99805 11.1133-2.76855Q11.3379-2.53906 11.6895-2.53906Q12.0605-2.53906 12.29-2.76855Q12.5195-2.99805 12.5195-3.36914L12.5195-6.25L15.4004-6.25Q15.7715-6.25 16.001-6.47461Q16.2305-6.69922 16.2305-7.05078Q16.2305-7.42188 16.001-7.65137Q15.7715-7.88086 15.4004-7.88086L12.5195-7.88086L12.5195-10.752Q12.5195-11.1328 12.29-11.3623Q12.0605-11.5918 11.6895-11.5918Q11.3379-11.5918 11.1133-11.3574Q10.8887-11.123 10.8887-10.752L10.8887-7.88086L8.01758-7.88086Q7.63672-7.88086 7.40723-7.65137Q7.17773-7.42188 7.17773-7.05078Z"/>
  </g>
  <g transform="matrix(1 0 0 1 305.646 1933)">
   <path d="M14.9707 5.66406Q17.0605 5.66406 18.96 5.01465Q20.8594 4.36523 22.4512 3.19336Q24.043 2.02148 25.2197 0.429688Q26.3965-1.16211 27.0459-3.06641Q27.6953-4.9707 27.6953-7.05078Q27.6953-9.14062 27.0459-11.04Q26.3965-12.9395 25.2197-14.5312Q24.043-16.123 22.4512-17.2998Q20.8594-18.4766 18.9551-19.126Q17.0508-19.7754 14.9609-19.7754Q12.8711-19.7754 10.9717-19.126Q9.07227-18.4766 7.48535-17.2998Q5.89844-16.123 4.72168-14.5312Q3.54492-12.9395 2.90039-11.04Q2.25586-9.14062 2.25586-7.05078Q2.25586-4.9707 2.90527-3.06641Q3.55469-1.16211 4.72656 0.429688Q5.89844 2.02148 7.49023 3.19336Q9.08203 4.36523 10.9814 5.01465Q12.8809 5.66406 14.9707 5.66406ZM14.9707 3.84766Q13.1641 3.84766 11.5283 3.2959Q9.89258 2.74414 8.53516 1.74805Q7.17773 0.751953 6.17676-0.610352Q5.17578-1.97266 4.62891-3.6084Q4.08203-5.24414 4.08203-7.05078Q4.08203-8.86719 4.62891-10.5029Q5.17578-12.1387 6.17188-13.501Q7.16797-14.8633 8.52539-15.8594Q9.88281-16.8555 11.5186-17.4023Q13.1543-17.9492 14.9609-17.9492Q16.7773-17.9492 18.4131-17.4023Q20.0488-16.8555 21.4111-15.8594Q22.7734-14.8633 23.7695-13.501Q24.7656-12.1387 25.3174-10.5029Q25.8691-8.86719 25.8691-7.05078Q25.8789-5.24414 25.332-3.6084Q24.7852-1.97266 23.7842-0.610352Q22.7832 0.751953 21.4209 1.74805Q20.0586 2.74414 18.4229 3.2959Q16.7871 3.84766 14.9707 3.84766ZM9.19922-7.05078Q9.19922-6.66992 9.45801-6.4209Q9.7168-6.17188 10.1172-6.17188L14.0625-6.17188L14.0625-2.2168Q14.0625-1.81641 14.3115-1.55762Q14.5605-1.29883 14.9512-1.29883Q15.3516-1.29883 15.6104-1.55273Q15.8691-1.80664 15.8691-2.2168L15.8691-6.17188L19.8242-6.17188Q20.2246-6.17188 20.4785-6.4209Q20.7324-6.66992 20.7324-7.05078Q20.7324-7.46094 20.4785-7.71484Q20.2246-7.96875 19.8242-7.96875L15.8691-7.96875L15.8691-11.9141Q15.8691-12.3242 15.6104-12.583Q15.3516-12.8418 14.9512-12.8418Q14.5605-12.8418 14.3115-12.583Q14.0625-12.3242 14.0625-11.9141L14.0625-7.96875L10.1172-7.96875Q9.70703-7.96875 9.45312-7.71484Q9.19922-7.46094 9.19922-7.05078Z"/>
  </g>
  <text style="stroke:none;fill:black;font-family:sans-serif;font-size:13;font-weight:bold;" transform="matrix(1 0 0 1 263 1953)">Design Variations</text>
  <text style="stroke:none;fill:black;font-family:sans-serif;font-size:13;" transform="matrix(1 0 0 1 263 1971)">Symbols are supported in up to nine weights and three scales.</text>
  <text style="stroke:none;fill:black;font-family:sans-serif;font-size:13;" transform="matrix(1 0 0 1 263 1989)">For optimal layout with text and other symbols, vertically align</text>
  <text style="stroke:none;fill:black;font-family:sans-serif;font-size:13;" transform="matrix(1 0 0 1 263 2007)">symbols with the adjacent text.</text>
  <line style="fill:none;stroke:#00AEEF;stroke-width:0.5;opacity:1.0;" x1="776" x2="776" y1="1919" y2="1933"/>
  <g transform="matrix(1 0 0 1 776 1933)">
   <path d="M3.31055 0.15625Q3.70117 0.15625 3.91602-0.00976562Q4.13086-0.175781 4.26758-0.585938L5.52734-4.0332L11.2891-4.0332L12.5488-0.585938Q12.6855-0.175781 12.9004-0.00976562Q13.1152 0.15625 13.4961 0.15625Q13.8867 0.15625 14.1162-0.0585938Q14.3457-0.273438 14.3457-0.644531Q14.3457-0.869141 14.2383-1.17188L9.6582-13.3691Q9.48242-13.8184 9.17969-14.043Q8.87695-14.2676 8.4082-14.2676Q7.5-14.2676 7.17773-13.3789L2.59766-1.16211Q2.49023-0.859375 2.49023-0.634766Q2.49023-0.263672 2.70996-0.0537109Q2.92969 0.15625 3.31055 0.15625ZM6.00586-5.51758L8.37891-12.0898L8.42773-12.0898L10.8008-5.51758Z"/>
  </g>
  <line style="fill:none;stroke:#00AEEF;stroke-width:0.5;opacity:1.0;" x1="793.197" x2="793.197" y1="1919" y2="1933"/>
  <text style="stroke:none;fill:black;font-family:sans-serif;font-size:13;font-weight:bold;" transform="matrix(1 0 0 1 776 1953)">Margins</text>
  <text style="stroke:none;fill:black;font-family:sans-serif;font-size:13;" transform="matrix(1 0 0 1 776 1971)">Leading and trailing margins on the left and right side of each symbol</text>
  <text style="stroke:none;fill:black;font-family:sans-serif;font-size:13;" transform="matrix(1 0 0 1 776 1989)">can be adjusted by modifying the x-location of the margin guidelines.</text>
  <text style="stroke:none;fill:black;font-family:sans-serif;font-size:13;" transform="matrix(1 0 0 1 776 2007)">Modifications are automatically applied proportionally to all</text>
  <text style="stroke:none;fill:black;font-family:sans-serif;font-size:13;" transform="matrix(1 0 0 1 776 2025)">scales and weights.</text>
  <g transform="matrix(1 0 0 1 1289 1933)">
   <path d="M2.8418 1.86523L4.54102 3.57422Q5.18555 4.22852 5.90332 4.17969Q6.62109 4.13086 7.31445 3.35938L18.0078-8.42773L17.041-9.4043L6.42578 2.27539Q6.16211 2.57812 5.89355 2.61719Q5.625 2.65625 5.27344 2.30469L4.10156 1.14258Q3.75 0.791016 3.79395 0.522461Q3.83789 0.253906 4.14062-0.0195312L15.6152-10.8203L14.6387-11.7871L3.04688-0.898438Q2.30469-0.214844 2.25098 0.498047Q2.19727 1.21094 2.8418 1.86523ZM9.25781-16.3281Q8.94531-16.0254 8.90625-15.6348Q8.86719-15.2441 9.04297-14.9512Q9.21875-14.6777 9.55566-14.541Q9.89258-14.4043 10.3809-14.5215Q11.4746-14.7754 12.5977-14.7314Q13.7207-14.6875 14.7949-13.9844L14.209-12.5293Q13.9551-11.9043 14.0674-11.4404Q14.1797-10.9766 14.5801-10.5664L16.875-8.25195Q17.2363-7.88086 17.5781-7.82227Q17.9199-7.76367 18.3398-7.8418L19.4043-8.03711L20.0684-7.36328L20.0293-6.80664Q20-6.43555 20.1221-6.12305Q20.2441-5.81055 20.6055-5.44922L21.3672-4.70703Q21.7285-4.3457 22.1533-4.33105Q22.5781-4.31641 22.9297-4.66797L25.8398-7.58789Q26.1914-7.93945 26.1816-8.35449Q26.1719-8.76953 25.8105-9.13086L25.0391-9.89258Q24.6875-10.2539 24.3799-10.3857Q24.0723-10.5176 23.7109-10.4883L23.1348-10.4395L22.4902-11.0742L22.7344-12.1973Q22.832-12.6172 22.6953-12.9834Q22.5586-13.3496 22.1191-13.7891L19.9219-15.9766Q18.6719-17.2168 17.2607-17.8369Q15.8496-18.457 14.4189-18.4814Q12.9883-18.5059 11.665-17.959Q10.3418-17.4121 9.25781-16.3281ZM10.752-15.957Q11.6602-16.6211 12.7002-16.9043Q13.7402-17.1875 14.8047-17.085Q15.8691-16.9824 16.8701-16.5137Q17.8711-16.0449 18.7012-15.2051L21.1328-12.793Q21.3086-12.6172 21.3525-12.4512Q21.3965-12.2852 21.3379-12.0312L21.0156-10.5469L22.5195-9.0625L23.5059-9.12109Q23.6914-9.13086 23.7891-9.09668Q23.8867-9.0625 24.0332-8.91602L24.6094-8.33984L22.168-5.89844L21.5918-6.47461Q21.4453-6.62109 21.4062-6.71875Q21.3672-6.81641 21.377-7.01172L21.4453-7.98828L19.9512-9.47266L18.4277-9.21875Q18.1836-9.16992 18.042-9.2041Q17.9004-9.23828 17.7148-9.41406L15.7129-11.416Q15.5176-11.5918 15.4932-11.7529Q15.4688-11.9141 15.5859-12.1875L16.4648-14.2773Q15.293-15.3711 13.8281-15.791Q12.3633-16.2109 10.8398-15.7617Q10.7227-15.7324 10.6885-15.8057Q10.6543-15.8789 10.752-15.957Z"/>
  </g>
  <text style="stroke:none;fill:black;font-family:sans-serif;font-size:13;font-weight:bold;" transform="matrix(1 0 0 1 1289 1953)">Exporting</text>
  <text style="stroke:none;fill:black;font-family:sans-serif;font-size:13;" transform="matrix(1 0 0 1 1289 1971)">Symbols should be outlined when exporting to ensure the</text>
  <text style="stroke:none;fill:black;font-family:sans-serif;font-size:13;" transform="matrix(1 0 0 1 1289 1989)">design is preserved when submitting to Xcode.</text>
  <text id="template-version" style="stroke:none;fill:black;font-family:sans-serif;font-size:13;text-anchor:end;" transform="matrix(1 0 0 1 3036 1933)">Template v.3.0</text>
  <text style="stroke:none;fill:black;font-family:sans-serif;font-size:13;text-anchor:end;" transform="matrix(1 0 0 1 3036 1951)">Requires Xcode 13 or greater</text>
  <text id="descriptive-name" style="stroke:none;fill:black;font-family:sans-serif;font-size:13;text-anchor:end;" transform="matrix(1 0 0 1 3036 1969)">Generated from bitcoinsign.circle</text>
  <text style="stroke:none;fill:black;font-family:sans-serif;font-size:13;text-anchor:end;" transform="matrix(1 0 0 1 3036 1987)">Typeset at 100 points</text>
  <text style="stroke:none;fill:black;font-family:sans-serif;font-size:13;" transform="matrix(1 0 0 1 263 726)">Small</text>
  <text style="stroke:none;fill:black;font-family:sans-serif;font-size:13;" transform="matrix(1 0 0 1 263 1156)">Medium</text>
  <text style="stroke:none;fill:black;font-family:sans-serif;font-size:13;" transform="matrix(1 0 0 1 263 1586)">Large</text>
 </g>
 <g id="Guides">
  <g id="H-reference" style="fill:#27AAE1;stroke:none;" transform="matrix(1 0 0 1 339 696)">
   <path d="M0.993347 0L3.6377 0L29.3282-67.1326L30.0301-67.1326L30.0301-70.459L28.1227-70.459ZM11.6882-24.4797L46.9818-24.4797L46.2311-26.7288L12.4382-26.7288ZM55.1193 0L57.7637 0L30.6381-70.459L29.4327-70.459L29.4327-67.1326Z"/>
  </g>
  <line id="Baseline-S" style="fill:none;stroke:#27AAE1;opacity:1;stroke-width:0.5;" x1="263" x2="3036" y1="696" y2="696"/>
  <line id="Capline-S" style="fill:none;stroke:#27AAE1;opacity:1;stroke-width:0.5;" x1="263" x2="3036" y1="625.541" y2="625.541"/>
  <g id="H-reference" style="fill:#27AAE1;stroke:none;" transform="matrix(1 0 0 1 339 1126)">
   <path d="M0.993347 0L3.6377 0L29.3282-67.1326L30.0301-67.1326L30.0301-70.459L28.1227-70.459ZM11.6882-24.4797L46.9818-24.4797L46.2311-26.7288L12.4382-26.7288ZM55.1193 0L57.7637 0L30.6381-70.459L29.4327-70.459L29.4327-67.1326Z"/>
  </g>
  <line id="Baseline-M" style="fill:none;stroke:#27AAE1;opacity:1;stroke-width:0.5;" x1="263" x2="3036" y1="1126" y2="1126"/>
  <line id="Capline-M" style="fill:none;stroke:#27AAE1;opacity:1;stroke-width:0.5;" x1="263" x2="3036" y1="1055.54" y2="1055.54"/>
  <g id="H-reference" style="fill:#27AAE1;stroke:none;" transform="matrix(1 0 0 1 339 1556)">
   <path d="M0.993347 0L3.6377 0L29.3282-67.1326L30.0301-67.1326L30.0301-70.459L28.1227-70.459ZM11.6882-24.4797L46.9818-24.4797L46.2311-26.7288L12.4382-26.7288ZM55.1193 0L57.7637 0L30.6381-70.459L29.4327-70.459L29.4327-67.1326Z"/>
  </g>
  <line id="Baseline-L" style="fill:none;stroke:#27AAE1;opacity:1;stroke-width:0.5;" x1="263" x2="3036" y1="1556" y2="1556"/>
  <line id="Capline-L" style="fill:none;stroke:#27AAE1;opacity:1;stroke-width:0.5;" x1="263" x2="3036" y1="1485.54" y2="1485.54"/>
  <line id="left-margin-Regular-M" style="fill:none;stroke:#00AEEF;stroke-width:0.5;opacity:1.0;" x1="1391.32" x2="1391.32" y1="1030.79" y2="1150.12"/>
  <line id="right-margin-Regular-M" style="fill:none;stroke:#00AEEF;stroke-width:0.5;opacity:1.0;" x1="1508.37" x2="1508.37" y1="1030.79" y2="1150.12"/>
 </g>
 <g id="Symbols">
  <g id="Black-L" transform="matrix(1 0 0 1 2854.19 1556)">
   <path d="M79.1953 32.7252Q93.2356 32.7252 105.521 27.4303Q117.806 22.1354 127.174 12.7571Q136.542 3.37874 141.848-8.90649Q147.154-21.1917 147.154-35.2113Q147.154-49.2309 141.848-61.5161Q136.542-73.8013 127.164-83.1796Q117.785-92.558 105.5-97.8529Q93.2149-103.148 79.1746-103.148Q65.1563-103.148 52.8704-97.8529Q40.5846-92.558 31.2276-83.1796Q21.8707-73.8013 16.5647-61.5161Q11.2588-49.2309 11.2588-35.2113Q11.2588-21.1917 16.5647-8.90649Q21.8707 3.37874 31.238 12.7571Q40.6053 22.1354 52.8912 27.4303Q65.177 32.7252 79.1953 32.7252ZM79.1953 12.5777Q69.2941 12.5777 60.6256 8.86047Q51.9572 5.14327 45.4197-1.40458Q38.8822-7.95243 35.1644-16.6312Q31.4465-25.3101 31.4465-35.2113Q31.4465-45.1125 35.154-53.7913Q38.8615-62.4702 45.399-69.018Q51.9365-75.5659 60.6049-79.2831Q69.2734-83.0003 79.1746-83.0003Q89.0966-83.0003 97.7657-79.2831Q106.435-75.5659 112.982-69.018Q119.529-62.4702 123.257-53.7913Q126.986-45.1125 126.986-35.2113Q126.986-25.3101 123.268-16.6312Q119.551-7.95243 113.014-1.40458Q106.476 5.14327 97.7974 8.86047Q89.1186 12.5777 79.1953 12.5777ZM59.0654-15.647Q59.0654-12.0103 60.9874-10.0305Q62.9095-8.05068 66.4294-8.05068L70.1747-8.05068L70.1747-3.22692Q70.1747-0.633008 72.766-0.633008Q75.3561-0.633008 75.3561-3.22692L75.3561-8.05068L79.3641-8.05068L79.3641-3.22692Q79.3641-0.633008 81.9554-0.633008Q84.5454-0.633008 84.5454-3.22692L84.5454-8.11286Q93.0081-8.34729 97.9355-12.5862Q102.863-16.825 102.863-23.928Q102.863-28.3739 100.085-31.9058Q97.3062-35.4376 92.912-36.7878Q96.3129-38.243 98.4453-41.3571Q100.578-44.4712 100.578-48.0821Q100.578-54.2007 96.3696-57.8745Q92.1615-61.5484 84.5454-61.8839L84.5454-66.9945Q84.5454-69.5871 81.9554-69.5871Q79.3641-69.5871 79.3641-66.9945L79.3641-61.9681L75.3561-61.9681L75.3561-66.9945Q75.3561-69.5871 72.766-69.5871Q70.1747-69.5871 70.1747-66.9945L70.1747-61.9681L66.4878-61.9681Q62.9886-61.9681 61.027-59.9092Q59.0654-57.8503 59.0654-54.2148ZM73.3973-18.8059L73.3973-31.0135L80.503-31.0135Q84.3821-31.0135 86.3598-29.4991Q88.3376-27.9847 88.3376-25.0038Q88.3376-21.932 86.4038-20.3897Q84.4701-18.8474 80.6427-18.8266ZM73.3973-40.6564L73.3973-51.3128L79.8462-51.3128Q82.9138-51.3128 84.646-49.9527Q86.3782-48.5926 86.3782-46.1239Q86.3782-43.5244 84.4905-42.0801Q82.6028-40.6357 79.1646-40.6357Z"/>
  </g>
  <g id="Heavy-L" transform="matrix(1 0 0 1 2558.42 1556)">
   <path d="M78.2511 31.7672Q92.088 31.7672 104.202 26.5464Q116.316 21.3256 125.559 12.0677Q134.802 2.8099 140.04-9.30402Q145.279-21.4179 145.279-35.2251Q145.279-49.0322 140.04-61.1461Q134.802-73.2601 125.544-82.5179Q116.286-91.7758 104.172-96.9966Q92.0582-102.217 78.2213-102.217Q64.4202-102.217 52.3033-96.9966Q40.1863-91.7758 30.9613-82.5179Q21.7362-73.2601 16.4975-61.1461Q11.2588-49.0322 11.2588-35.2251Q11.2588-21.4179 16.4975-9.30402Q21.7362 2.8099 30.9761 12.0677Q40.2161 21.3256 52.333 26.5464Q64.45 31.7672 78.2511 31.7672ZM78.2511 14.0252Q68.0447 14.0252 59.1149 10.2016Q50.1851 6.37791 43.4463-0.375708Q36.7076-7.12933 32.8809-16.074Q29.0543-25.0188 29.0543-35.2251Q29.0543-45.4314 32.8661-54.3761Q36.6778-63.3208 43.4166-70.0745Q50.1553-76.8281 59.0851-80.6517Q68.015-84.4754 78.2213-84.4754Q88.4574-84.4754 97.3902-80.6517Q106.323-76.8281 113.074-70.0745Q119.824-63.3208 123.666-54.3761Q127.507-45.4314 127.507-35.2251Q127.507-25.0188 123.684-16.074Q119.86-7.12933 113.121-0.375708Q106.383 6.37791 97.4379 10.2016Q88.4932 14.0252 78.2511 14.0252ZM58.7441-14.3109Q58.7441-11.0401 60.515-9.22753Q62.286-7.415 65.4675-7.415L69.032-7.415L69.032-2.52903Q69.032 0.153838 71.7028 0.153838Q74.3676 0.153838 74.3676-2.52903L74.3676-7.415L78.395-7.415L78.395-2.52903Q78.395 0.153838 81.0658 0.153838Q83.7306 0.153838 83.7306-2.52903L83.7306-7.50428Q92.0459-7.86184 96.8378-12.1088Q101.63-16.3558 101.63-23.4198Q101.63-28.0578 98.8238-31.6393Q96.018-35.2209 91.5144-36.6029Q94.9338-38.1132 97.0843-41.3003Q99.2347-44.4874 99.2347-48.19Q99.2347-54.2388 95.1322-57.9737Q91.0296-61.7087 83.7306-62.1764L83.7306-67.2879Q83.7306-69.9647 81.0658-69.9647Q78.395-69.9647 78.395-67.2879L78.395-62.3015L74.3676-62.3015L74.3676-67.2879Q74.3676-69.9647 71.7028-69.9647Q69.032-69.9647 69.032-67.2879L69.032-62.3015L65.5121-62.3015Q62.3603-62.3015 60.5522-60.4146Q58.7441-58.5276 58.7441-55.2629ZM71.4935-17.2698L71.4935-31.1978L79.4879-31.1978Q84.0571-31.1978 86.4062-29.4569Q88.7554-27.7161 88.7554-24.2975Q88.7554-20.8436 86.4778-19.0864Q84.2002-17.3293 79.7654-17.2995ZM71.4935-40.1926L71.4935-52.5243L79.024-52.5243Q82.5797-52.5243 84.58-50.9608Q86.5802-49.3973 86.5802-46.5598Q86.5802-43.5135 84.3701-41.8382Q82.1599-40.1629 78.107-40.1629Z"/>
  </g>
  <g id="Bold-L" transform="matrix(1 0 0 1 2262.89 1556)">
   <path d="M77.0653 30.566Q90.6516 30.566 102.549 25.4396Q114.447 20.3133 123.533 11.2089Q132.619 2.10448 137.771-9.79333Q142.923-21.6912 142.923-35.2405Q142.923-48.7898 137.771-60.6877Q132.619-72.5855 123.515-81.6899Q114.41-90.7942 102.512-95.9206Q90.6146-101.047 77.0283-101.047Q63.4932-101.047 51.5882-95.9206Q39.6833-90.7942 30.623-81.6899Q21.5627-72.5855 16.4108-60.6877Q11.2588-48.7898 11.2588-35.2405Q11.2588-21.6912 16.4108-9.79333Q21.5627 2.10448 30.6415 11.2089Q39.7203 20.3133 51.6252 25.4396Q63.5301 30.566 77.0653 30.566ZM77.0653 15.8201Q66.4831 15.8201 57.2278 11.8629Q47.9725 7.90583 40.9827 0.897553Q33.9929-6.11072 30.0287-15.3845Q26.0645-24.6583 26.0645-35.2405Q26.0645-45.8227 30.0102-55.0965Q33.9559-64.3703 40.9457-71.3786Q47.9355-78.3868 57.1908-82.3439Q66.4461-86.3011 77.0283-86.3011Q87.6474-86.3011 96.9099-82.3439Q106.172-78.3868 113.173-71.3786Q120.175-64.3703 124.157-55.0965Q128.14-45.8227 128.14-35.2405Q128.14-24.6583 124.183-15.3845Q120.226-6.11072 113.236 0.897553Q106.246 7.90583 96.9725 11.8629Q87.6986 15.8201 77.0653 15.8201ZM58.3904-12.8335Q58.3904-10.0267 59.9592-8.43581Q61.528-6.84492 64.2764-6.84492L67.7797-6.84492L67.7797-1.84332Q67.7797 0.884377 70.4789 0.884377Q73.1639 0.884377 73.1639-1.84332L73.1639-6.84492L77.2333-6.84492L77.2333-1.84332Q77.2333 0.884377 79.9325 0.884377Q82.6175 0.884377 82.6175-1.84332L82.6175-6.95589Q90.7623-7.43392 95.4041-11.6698Q100.046-15.9057 100.046-22.8859Q100.046-27.7215 97.2092-31.3428Q94.3725-34.9641 89.7639-36.376Q93.2069-37.948 95.3718-41.2066Q97.5367-44.4653 97.5367-48.2676Q97.5367-54.221 93.5494-58.007Q89.562-61.793 82.6175-62.3885L82.6175-67.5183Q82.6175-70.2317 79.9325-70.2317Q77.2333-70.2317 77.2333-67.5183L77.2333-62.5506L73.1639-62.5506L73.1639-67.5183Q73.1639-70.2317 70.4789-70.2317Q67.7797-70.2317 67.7797-67.5183L67.7797-62.5506L64.3056-62.5506Q61.5942-62.5506 59.9923-60.8936Q58.3904-59.2365 58.3904-56.4439ZM69.1623-15.5226L69.1623-31.4989L78.2717-31.4989Q83.6302-31.4989 86.4236-29.4803Q89.217-27.4616 89.217-23.5304Q89.217-19.6346 86.526-17.6156Q83.835-15.5965 78.7035-15.5595ZM69.1623-39.5932L69.1623-53.9371L78.0237-53.9371Q82.1456-53.9371 84.4745-52.123Q86.8033-50.3089 86.8033-47.0359Q86.8033-43.4697 84.2166-41.513Q81.6298-39.5563 76.9096-39.5563Z"/>
  </g>
  <g id="Semibold-L" transform="matrix(1 0 0 1 1966.99 1556)">
   <path d="M76.2478 29.7379Q89.6614 29.7379 101.41 24.6766Q113.159 19.6153 122.137 10.6168Q131.114 1.61818 136.206-10.1307Q141.299-21.8795 141.299-35.2511Q141.299-48.6228 136.206-60.3716Q131.114-72.1204 122.116-81.119Q113.117-90.1176 101.368-95.1789Q89.6194-100.24 76.2058-100.24Q62.854-100.24 51.0953-95.1789Q39.3365-90.1176 30.3898-81.119Q21.4432-72.1204 16.351-60.3716Q11.2588-48.6228 11.2588-35.2511Q11.2588-21.8795 16.351-10.1307Q21.4432 1.61818 30.4108 10.6168Q39.3785 19.6153 51.1372 24.6766Q62.896 29.7379 76.2478 29.7379ZM76.2478 17.0574Q65.4065 17.0574 55.9268 13.0083Q46.4471 8.95916 39.2843 1.77533Q32.1214-5.4085 28.0624-14.9092Q24.0033-24.4099 24.0033-35.2511Q24.0033-46.0924 28.0414-55.5931Q32.0795-65.0938 39.2423-72.2776Q46.4052-79.4614 55.8848-83.5105Q65.3645-87.5597 76.2058-87.5597Q87.089-87.5597 96.5787-83.5105Q106.068-79.4614 113.242-72.2776Q120.416-65.0938 124.496-55.5931Q128.576-46.0924 128.576-35.2511Q128.576-24.4099 124.527-14.9092Q120.478-5.4085 113.315 1.77533Q106.152 8.95916 96.6516 13.0083Q87.1509 17.0574 76.2478 17.0574ZM58.1466-11.815Q58.1466-9.3281 59.576-7.89Q61.0055-6.45191 63.4553-6.45191L66.9163-6.45191L66.9163-1.3706Q66.9163 1.38801 69.6352 1.38801Q72.3341 1.38801 72.3341-1.3706L72.3341-6.45191L76.4324-6.45191L76.4324-1.3706Q76.4324 1.38801 79.1513 1.38801Q81.8502 1.38801 81.8502-1.3706L81.8502-6.57783Q89.8774-7.13891 94.4157-11.3672Q98.9541-15.5954 98.9541-22.5179Q98.9541-27.4896 96.0961-31.1383Q93.2381-34.787 88.5571-36.2195Q92.0164-37.834 94.1913-41.142Q96.3662-44.45 96.3662-48.3211Q96.3662-54.2087 92.4582-58.0299Q88.5502-61.8512 81.8502-62.5346L81.8502-67.6771Q81.8502-70.4158 79.1513-70.4158Q76.4324-70.4158 76.4324-67.6771L76.4324-62.7224L72.3341-62.7224L72.3341-67.6771Q72.3341-70.4158 69.6352-70.4158Q66.9163-70.4158 66.9163-67.6771L66.9163-62.7224L63.4738-62.7224Q61.066-62.7224 59.6063-61.2238Q58.1466-59.7251 58.1466-57.2581ZM67.5552-14.3181L67.5552-31.7065L77.4333-31.7065Q83.3359-31.7065 86.4355-29.4964Q89.5352-27.2862 89.5352-23.0015Q89.5352-18.8011 86.5592-16.6016Q83.5832-14.402 77.9713-14.36ZM67.5552-39.18L67.5552-54.9111L77.3341-54.9111Q81.8463-54.9111 84.4017-52.9242Q86.9571-50.9374 86.9571-47.3641Q86.9571-43.4395 84.1108-41.2888Q81.2644-39.138 76.0842-39.138Z"/>
  </g>
  <g id="Medium-L" transform="matrix(1 0 0 1 1670.9 1556)">
   <path d="M75.6279 29.11Q88.9106 29.11 100.546 24.0981Q112.182 19.0862 121.078 10.1678Q129.973 1.24944 135.02-10.3864Q140.067-22.0223 140.067-35.2592Q140.067-48.4961 135.02-60.1319Q129.973-71.7678 121.055-80.6862Q112.137-89.6045 100.501-94.6164Q88.8648-99.6283 75.5822-99.6283Q62.3695-99.6283 50.7215-94.6164Q39.0736-89.6045 30.213-80.6862Q21.3525-71.7678 16.3056-60.1319Q11.2588-48.4961 11.2588-35.2592Q11.2588-22.0223 16.3056-10.3864Q21.3525 1.24944 30.2359 10.1678Q39.1193 19.0862 50.7673 24.0981Q62.4152 29.11 75.6279 29.11ZM75.6279 17.9956Q64.5902 17.9956 54.9404 13.8767Q45.2905 9.75784 37.9965 2.4409Q30.7024-4.87605 26.5714-14.5488Q22.4405-24.2215 22.4405-35.2592Q22.4405-46.2969 26.5486-55.9696Q30.6567-65.6423 37.9507-72.9593Q45.2448-80.2762 54.8946-84.3951Q64.5445-88.514 75.5822-88.514Q86.6657-88.514 96.3276-84.3951Q105.989-80.2762 113.294-72.9593Q120.599-65.6423 124.753-55.9696Q128.907-46.2969 128.907-35.2592Q128.907-24.2215 124.788-14.5488Q120.669-4.87605 113.375 2.4409Q106.081 9.75784 96.4083 13.8767Q86.7356 17.9956 75.6279 17.9956ZM57.9617-11.0427Q57.9617-8.79838 59.2855-7.47615Q60.6093-6.15391 62.8326-6.15391L66.2617-6.15391L66.2617-1.01216Q66.2617 1.76988 68.9954 1.76988Q71.705 1.76988 71.705-1.01216L71.705-6.15391L75.8251-6.15391L75.8251-1.01216Q75.8251 1.76988 78.5589 1.76988Q81.2684 1.76988 81.2684-1.01216L81.2684-6.29117Q89.2064-6.91522 93.6663-11.1377Q98.1262-15.3602 98.1262-22.2388Q98.1262-27.3138 95.2521-30.9833Q92.378-34.6528 87.642-36.1009Q91.1137-37.7477 93.2961-41.093Q95.4786-44.4384 95.4786-48.3617Q95.4786-54.1994 91.6308-58.0473Q87.783-61.8953 81.2684-62.6455L81.2684-67.7975Q81.2684-70.5554 78.5589-70.5554Q75.8251-70.5554 75.8251-67.7975L75.8251-62.8527L71.705-62.8527L71.705-67.7975Q71.705-70.5554 68.9954-70.5554Q66.2617-70.5554 66.2617-67.7975L66.2617-62.8527L62.8431-62.8527Q60.6656-62.8527 59.3136-61.4742Q57.9617-60.0957 57.9617-57.8755ZM66.3367-13.4047L66.3367-31.8639L76.7976-31.8639Q83.1127-31.8639 86.4446-29.5086Q89.7765-27.1532 89.7765-22.6005Q89.7765-18.1692 86.5844-15.8327Q83.3923-13.4963 77.4162-13.4505ZM66.3367-38.8667L66.3367-55.6496L76.8112-55.6496Q81.6194-55.6496 84.3466-53.5318Q87.0738-51.414 87.0738-47.6129Q87.0738-43.4166 84.0306-41.1188Q80.9874-38.8209 75.4582-38.8209Z"/>
  </g>
  <g id="Regular-L" transform="matrix(1 0 0 1 1374.99 1556)">
   <path d="M74.8194 28.2909Q87.9312 28.2909 99.4198 23.3434Q110.908 18.3959 119.697 9.58221Q128.485 0.768476 133.473-10.7201Q138.46-22.2086 138.46-35.2697Q138.46-48.3308 133.473-59.8193Q128.485-71.3079 119.671-80.1216Q110.858-88.9353 99.3691-93.8828Q87.8805-98.8303 74.7687-98.8303Q61.7374-98.8303 50.234-93.8828Q38.7306-88.9353 29.9824-80.1216Q21.2342-71.3079 16.2465-59.8193Q11.2588-48.3308 11.2588-35.2697Q11.2588-22.2086 16.2465-10.7201Q21.2342 0.768476 30.0077 9.58221Q38.7813 18.3959 50.2847 23.3434Q61.7881 28.2909 74.8194 28.2909ZM74.8194 19.2194Q63.5255 19.2194 53.6537 15.0095Q43.7819 10.7996 36.3167 3.30903Q28.8515-4.18154 24.6267-14.0786Q20.402-23.9757 20.402-35.2697Q20.402-46.5637 24.6014-56.4608Q28.8008-66.3579 36.266-73.8484Q43.7313-81.339 53.603-85.5489Q63.4748-89.7588 74.7687-89.7588Q86.1134-89.7588 96-85.5489Q105.887-81.339 113.362-73.8484Q120.838-66.3579 125.088-56.4608Q129.338-46.5637 129.338-35.2697Q129.338-23.9757 125.128-14.0786Q120.918-4.18154 113.453 3.30903Q105.988 10.7996 96.0909 15.0095Q86.1938 19.2194 74.8194 19.2194ZM57.7206-10.0354Q57.7206-8.10745 58.9065-6.93634Q60.0925-5.76522 62.0205-5.76522L65.4078-5.76522L65.4078-0.54463Q65.4078 2.26797 68.1609 2.26797Q70.8843 2.26797 70.8843-0.54463L70.8843-5.76522L75.033-5.76522L75.033-0.54463Q75.033 2.26797 77.7862 2.26797Q80.5096 2.26797 80.5096-0.54463L80.5096-5.91727Q88.3312-6.62345 92.6888-10.8384Q97.0463-15.0533 97.0463-21.8748Q97.0463-27.0845 94.1512-30.7811Q91.2561-34.4776 86.4485-35.9462Q89.9363-37.635 92.1286-41.0292Q94.3208-44.4233 94.3208-48.4146Q94.3208-54.1872 90.5516-58.07Q86.7823-61.9528 80.5096-62.7901L80.5096-67.9545Q80.5096-70.7374 77.7862-70.7374Q75.033-70.7374 75.033-67.9545L75.033-63.0225L70.8843-63.0225L70.8843-67.9545Q70.8843-70.7374 68.1609-70.7374Q65.4078-70.7374 65.4078-67.9545L65.4078-63.0225L62.0205-63.0225Q60.1432-63.0225 58.9319-61.8007Q57.7206-60.5789 57.7206-58.6807ZM64.7473-12.2135L64.7473-32.0692L75.9683-32.0692Q82.8216-32.0692 86.4564-29.5245Q90.0913-26.9797 90.0913-22.0775Q90.0913-17.3449 86.6173-14.8298Q83.1433-12.3148 76.6921-12.2642ZM64.7473-38.458L64.7473-56.6128L76.1292-56.6128Q81.3234-56.6128 84.2746-54.3242Q87.2259-52.0356 87.2259-47.9375Q87.2259-43.3867 83.9259-40.897Q80.626-38.4073 74.6418-38.4073Z"/>
  </g>
  <g id="Light-L" transform="matrix(1 0 0 1 1079.2 1556)">
   <path d="M73.8959 27.3674Q86.8436 27.3674 98.1577 22.502Q109.472 17.6366 118.137 8.95629Q126.802 0.275949 131.708-11.0381Q136.614-22.3522 136.614-35.2697Q136.614-48.1872 131.708-59.5013Q126.802-70.8154 118.122-79.4957Q109.442-88.176 98.1275-93.0414Q86.8134-97.9069 73.8658-97.9069Q60.9986-97.9069 49.6594-93.0414Q38.3201-88.176 29.6951-79.4957Q21.07-70.8154 16.1644-59.5013Q11.2588-48.1872 11.2588-35.2697Q11.2588-22.3522 16.1644-11.0381Q21.07 0.275949 29.7102 8.95629Q38.3503 17.6366 49.6895 22.502Q61.0287 27.3674 73.8959 27.3674ZM73.8959 20.4712Q62.3557 20.4712 52.2479 16.1587Q42.1402 11.8462 34.4903 4.18122Q26.8403-3.48379 22.5027-13.6066Q18.1651-23.7295 18.1651-35.2697Q18.1651-46.8099 22.4876-56.9328Q26.8102-67.0556 34.4601-74.7206Q42.11-82.3856 52.2178-86.6981Q62.3255-91.0106 73.8658-91.0106Q85.4362-91.0106 95.5691-86.6981Q105.702-82.3856 113.342-74.7206Q120.982-67.0556 125.334-56.9328Q129.687-46.8099 129.687-35.2697Q129.687-23.7295 125.375-13.6066Q121.062-3.48379 113.412 4.18122Q105.762 11.8462 95.6394 16.1587Q85.5166 20.4712 73.8959 20.4712ZM57.7616-10.1586Q57.7616-8.6205 58.7116-7.69565Q59.6616-6.7708 61.1996-6.7708L65.5925-6.7708L65.5925-1.22186Q65.5925 1.20083 67.9146 1.20083Q70.1866 1.20083 70.1866-1.22186L70.1866-6.7708L74.479-6.7708L74.479-1.22186Q74.479 1.20083 76.8011 1.20083Q79.073 1.20083 79.073-1.22186L79.073-6.86128Q86.8537-7.44433 91.2215-11.5156Q95.5893-15.5869 95.5893-22.121Q95.5893-27.2076 92.6941-30.7913Q89.799-34.375 85.1146-35.8025Q88.6229-37.4913 90.7741-40.8137Q92.9253-44.136 92.9253-48.1068Q92.9253-53.7563 89.1356-57.5159Q85.3458-61.2756 79.073-61.9692L79.073-67.2568Q79.073-69.6292 76.8011-69.6292Q74.479-69.6292 74.479-67.2568L74.479-62.1401L70.1866-62.1401L70.1866-67.2568Q70.1866-69.6292 67.9146-69.6292Q65.5925-69.6292 65.5925-67.2568L65.5925-62.1401L61.1996-62.1401Q59.6917-62.1401 58.7267-61.1851Q57.7616-60.2301 57.7616-58.7423ZM63.3107-12.0083L63.3107-32.7465L75.3937-32.7465Q82.3701-32.7465 86.2102-30.0273Q90.0502-27.3081 90.0502-22.2417Q90.0502-17.4064 86.371-14.7375Q82.6918-12.0686 76.1175-12.0384ZM63.3107-37.8834L63.3107-57.0233L75.5546-57.0233Q80.8924-57.0233 84.0489-54.5705Q87.2054-52.1177 87.2054-47.8554Q87.2054-43.1609 83.7925-40.5071Q80.3797-37.8532 74.5392-37.8532Z"/>
  </g>
  <g id="Thin-L" transform="matrix(1 0 0 1 783.716 1556)">
   <path d="M72.6746 26.1461Q85.405 26.1461 96.4884 21.3892Q107.572 16.6324 116.074 8.12846Q124.577-0.375458 129.374-11.4588Q134.171-22.5422 134.171-35.2697Q134.171-47.9972 129.374-59.0806Q124.577-70.1639 116.073-78.6679Q107.569-87.1718 96.4854-91.9286Q85.402-96.6855 72.6715-96.6855Q60.0215-96.6855 48.8994-91.9286Q37.7773-87.1718 29.3151-78.6679Q20.8529-70.1639 16.0558-59.0806Q11.2588-47.9972 11.2588-35.2697Q11.2588-22.5422 16.0558-11.4588Q20.8529-0.375458 29.3166 8.12846Q37.7803 16.6324 48.9024 21.3892Q60.0245 26.1461 72.6746 26.1461ZM72.6746 22.1269Q60.8086 22.1269 50.3887 17.6787Q39.9688 13.2305 32.0746 5.33475Q24.1804-2.56097 19.6935-12.9824Q15.2066-23.4038 15.2066-35.2697Q15.2066-47.1356 19.692-57.557Q24.1774-67.9784 32.0716-75.8742Q39.9658-83.7699 50.3857-88.2181Q60.8056-92.6663 72.6715-92.6663Q84.5405-92.6663 94.9991-88.2181Q105.458-83.7699 113.315-75.8742Q121.172-67.9784 125.66-57.557Q130.149-47.1356 130.149-35.2697Q130.149-23.4038 125.7-12.9824Q121.252-2.56097 113.358 5.33475Q105.464 13.2305 95.0423 17.6787Q84.6209 22.1269 72.6746 22.1269ZM57.8159-10.3214Q57.8159-9.29905 58.4537-8.6999Q59.0916-8.10076 60.114-8.10076L65.8368-8.10076L65.8368-2.11754Q65.8368-0.210551 67.5889-0.210551Q69.2637-0.210551 69.2637-2.11754L69.2637-8.10076L73.7461-8.10076L73.7461-2.11754Q73.7461-0.210551 75.4983-0.210551Q77.1731-0.210551 77.1731-2.11754L77.1731-8.10981Q84.8994-8.53001 89.2808-12.4113Q93.6622-16.2926 93.6622-22.4467Q93.6622-27.3704 90.7671-30.8049Q87.872-34.2393 83.3503-35.6125Q86.8858-37.3013 88.9827-40.5287Q91.0797-43.756 91.0797-47.6996Q91.0797-53.1863 87.2628-56.7831Q83.4458-60.3799 77.1731-60.8835L77.1731-66.334Q77.1731-68.1636 75.4983-68.1636Q73.7461-68.1636 73.7461-66.334L73.7461-60.973L69.2637-60.973L69.2637-66.334Q69.2637-68.1636 67.5889-68.1636Q65.8368-68.1636 65.8368-66.334L65.8368-60.973L60.114-60.973Q59.0946-60.973 58.4552-60.3708Q57.8159-59.7687 57.8159-58.8237ZM61.4108-11.7368L61.4108-33.6421L74.6338-33.6421Q81.773-33.6421 85.8845-30.6923Q89.9959-27.7424 89.9959-22.4588Q89.9959-17.4878 86.0453-14.6154Q82.0947-11.7429 75.3575-11.7399ZM61.4108-37.1234L61.4108-57.5661L74.7946-57.5661Q80.3224-57.5661 83.7503-54.8962Q87.1782-52.2262 87.1782-47.7469Q87.1782-42.8624 83.6161-39.9914Q80.054-37.1204 74.4035-37.1204Z"/>
  </g>
  <g id="Ultralight-L" transform="matrix(1 0 0 1 487.631 1556)">
   <path d="M72.049 25.5205Q84.6682 25.5205 95.6335 20.8192Q106.599 16.118 115.018 7.70445Q123.437-0.709105 128.178-11.6743Q132.92-22.6395 132.92-35.2697Q132.92-47.8999 128.178-58.8651Q123.437-69.8303 115.023-78.2439Q106.61-86.6574 95.6443-91.3586Q84.6791-96.0599 72.0598-96.0599Q59.521-96.0599 48.5101-91.3586Q37.4993-86.6574 29.1205-78.2439Q20.7417-69.8303 16.0002-58.8651Q11.2588-47.8999 11.2588-35.2697Q11.2588-22.6395 16.0002-11.6743Q20.7417-0.709105 29.115 7.70445Q37.4884 16.118 48.4992 20.8192Q59.5101 25.5205 72.049 25.5205ZM72.049 22.9749Q60.0162 22.9749 49.4364 18.4572Q38.8567 13.9395 30.8374 5.92558Q22.818-2.0883 18.2546-12.6626Q13.6913-23.2369 13.6913-35.2697Q13.6913-47.3025 18.2601-57.8768Q22.8289-68.4511 30.8482-76.465Q38.8676-84.4789 49.4473-88.9966Q60.0271-93.5143 72.0598-93.5143Q84.0817-93.5143 94.7071-88.9966Q105.333-84.4789 113.301-76.465Q121.269-68.4511 125.827-57.8768Q130.385-47.3025 130.385-35.2697Q130.385-23.2369 125.867-12.6626Q121.349-2.0883 113.33 5.92558Q105.311 13.9395 94.7365 18.4572Q84.1621 22.9749 72.049 22.9749ZM57.8437-10.4048Q57.8437-9.6466 58.3217-9.21428Q58.7996-8.78195 59.5579-8.78195L65.9619-8.78195L65.9619-2.5763Q65.9619-0.933453 67.4221-0.933453Q68.7911-0.933453 68.7911-2.5763L68.7911-8.78195L73.3708-8.78195L73.3708-2.5763Q73.3708-0.933453 74.831-0.933453Q76.1999-0.933453 76.1999-2.5763L76.1999-8.7493Q83.8985-9.08609 88.2868-12.8701Q92.6751-16.654 92.6751-22.6135Q92.6751-27.4539 89.78-30.8118Q86.8849-34.1698 82.4467-35.5152Q85.9961-37.204 88.0652-40.3827Q90.1344-43.5614 90.1344-47.4911Q90.1344-52.8943 86.3035-56.4077Q82.4727-59.9211 76.1999-60.3274L76.1999-65.8613Q76.1999-67.4128 74.831-67.4128Q73.3708-67.4128 73.3708-65.8613L73.3708-60.3752L68.7911-60.3752L68.7911-65.8613Q68.7911-67.4128 67.4221-67.4128Q65.9619-67.4128 65.9619-65.8613L65.9619-60.3752L59.5579-60.3752Q58.7888-60.3752 58.3162-59.9538Q57.8437-59.5323 57.8437-58.8654ZM60.4376-11.5978L60.4376-34.1009L74.2445-34.1009Q81.4672-34.1009 85.7177-31.0329Q89.9681-27.9648 89.9681-22.57Q89.9681-17.5296 85.8785-14.5528Q81.7889-11.5761 74.9683-11.5869ZM60.4376-36.7342L60.4376-57.8441L74.4053-57.8441Q80.0305-57.8441 83.5974-55.063Q87.1643-52.2818 87.1643-47.6913Q87.1643-42.7094 83.5258-39.7273Q79.8872-36.7451 74.334-36.7451Z"/>
  </g>
  <g id="Black-M" transform="matrix(1 0 0 1 2871.36 1126)">
   <path d="M62.0423 18.1161Q73.0725 18.1161 82.714 13.9613Q92.3555 9.80654 99.704 2.45531Q107.052-4.89592 111.21-14.5374Q115.367-24.1789 115.367-35.2035Q115.367-46.2282 111.21-55.8697Q107.052-65.5112 99.7012-72.8624Q92.35-80.2136 82.7085-84.3684Q73.067-88.5232 62.0368-88.5232Q51.0119-88.5232 41.3705-84.3684Q31.7292-80.2136 24.3833-72.8624Q17.0375-65.5112 12.8801-55.8697Q8.72266-46.2282 8.72266-35.2035Q8.72266-24.1789 12.8801-14.5374Q17.0375-4.89592 24.3861 2.45531Q31.7347 9.80654 41.376 13.9613Q51.0174 18.1161 62.0423 18.1161ZM62.0423 0.734266Q54.6003 0.734266 48.0771-2.06802Q41.554-4.87031 36.637-9.78999Q31.7201-14.7097 28.918-21.2356Q26.1159-27.7615 26.1159-35.2035Q26.1159-42.6456 28.9152-49.1715Q31.7146-55.6974 36.6315-60.6171Q41.5485-65.5368 48.0716-68.3391Q54.5948-71.1414 62.0368-71.1414Q69.4844-71.1414 76.0074-68.3391Q82.5304-65.5368 87.4502-60.6171Q92.3701-55.6974 95.175-49.1715Q97.9799-42.6456 97.9799-35.2035Q97.9799-27.7615 95.1776-21.2356Q92.3753-14.7097 87.4584-9.78999Q82.5414-4.87031 76.0155-2.06802Q69.4896 0.734266 62.0423 0.734266ZM46.0422-21.2231Q46.0422-18.1439 47.6291-16.4997Q49.2161-14.8555 52.1811-14.8555L55.3743-14.8555L55.3743-11.1273Q55.3743-9.24697 57.2553-9.24697Q59.1365-9.24697 59.1365-11.1273L59.1365-14.8555L62.2444-14.8555L62.2444-11.1273Q62.2444-9.24697 64.1254-9.24697Q66.0066-9.24697 66.0066-11.1273L66.0066-14.872Q72.684-14.9312 76.6193-18.1888Q80.5546-21.4464 80.5546-26.9438Q80.5546-30.2065 78.4258-32.8848Q76.297-35.5631 73.0032-36.5762Q75.6249-37.6562 77.2559-39.9964Q78.8868-42.3366 78.8868-45.0524Q78.8868-49.8361 75.5332-52.6132Q72.1796-55.3903 66.0066-55.5172L66.0066-59.4925Q66.0066-61.3731 64.1254-61.3731Q62.2444-61.3731 62.2444-59.4925L62.2444-55.539L59.1365-55.539L59.1365-59.4925Q59.1365-61.3731 57.2553-61.3731Q55.3743-61.3731 55.3743-59.4925L55.3743-55.539L52.2382-55.539Q49.2787-55.539 47.6604-53.8321Q46.0422-52.1253 46.0422-49.0459ZM58.3055-23.7979L58.3055-31.8966L63.1637-31.8966Q65.5925-31.8966 66.8333-30.8943Q68.0742-29.892 68.0742-27.9365Q68.0742-25.8712 66.8438-24.84Q65.6133-23.8089 63.1534-23.8034ZM58.3055-39.7547L58.3055-46.7044L62.4889-46.7044Q64.4655-46.7044 65.605-45.8032Q66.7444-44.902 66.7444-43.2841Q66.7444-41.6347 65.5438-40.6919Q64.3432-39.7492 62.2271-39.7492Z"/>
  </g>
  <g id="Heavy-M" transform="matrix(1 0 0 1 2575.48 1126)">
   <path d="M61.2045 17.2648Q72.0509 17.2648 81.541 13.1749Q91.0312 9.08498 98.2688 1.83921Q105.506-5.40657 109.606-14.8967Q113.705-24.3868 113.705-35.217Q113.705-46.0473 109.606-55.5374Q105.506-65.0275 98.2607-72.2733Q91.0149-79.519 81.5248-83.6089Q72.0347-87.6988 61.1882-87.6988Q50.3604-87.6988 40.8691-83.6089Q31.3778-79.519 24.1495-72.2733Q16.9211-65.0275 12.8219-55.5374Q8.72266-46.0473 8.72266-35.217Q8.72266-24.3868 12.8219-14.8967Q16.9211-5.40657 24.1576 1.83921Q31.394 9.08498 40.8853 13.1749Q50.3767 17.2648 61.2045 17.2648ZM61.2045 2.03385Q53.4869 2.03385 46.73-0.86303Q39.9731-3.75991 34.8765-8.86466Q29.7798-13.9694 26.8817-20.7344Q23.9836-27.4994 23.9836-35.217Q23.9836-42.9346 26.8736-49.6996Q29.7636-56.4646 34.8602-61.5694Q39.9568-66.6741 46.7137-69.571Q53.4706-72.4679 61.1882-72.4679Q68.922-72.4679 75.6802-69.571Q82.4383-66.6741 87.5418-61.5694Q92.6453-56.4646 95.5516-49.6996Q98.4578-42.9346 98.4578-35.217Q98.4578-27.4994 95.5609-20.7344Q92.664-13.9694 87.5674-8.86466Q82.4708-3.75991 75.7057-0.86303Q68.9407 2.03385 61.2045 2.03385ZM45.7243-19.9056Q45.7243-17.1481 47.1853-15.6447Q48.6463-14.1413 51.3165-14.1413L54.2403-14.1413L54.2403-10.3826Q54.2403-8.37933 56.2386-8.37933Q58.2346-8.37933 58.2346-10.3826L58.2346-14.1413L61.3482-14.1413L61.3482-10.3826Q61.3482-8.37933 63.3466-8.37933Q65.3425-8.37933 65.3425-10.3826L65.3425-14.19Q71.8797-14.3809 75.6816-17.6596Q79.4835-20.9384 79.4835-26.4244Q79.4835-29.8862 77.3278-32.6234Q75.172-35.3607 71.76-36.4087Q74.398-37.5426 76.0504-39.9608Q77.7028-42.3789 77.7028-45.1864Q77.7028-49.9131 74.4542-52.7613Q71.2056-55.6095 65.3425-55.8789L65.3425-59.8437Q65.3425-61.8445 63.3466-61.8445Q61.3482-61.8445 61.3482-59.8437L61.3482-55.9463L58.2346-55.9463L58.2346-59.8437Q58.2346-61.8445 56.2386-61.8445Q54.2403-61.8445 54.2403-59.8437L54.2403-55.9463L51.3601-55.9463Q48.7062-55.9463 47.2152-54.383Q45.7243-52.8197 45.7243-50.0647ZM56.5769-22.3151L56.5769-32.0142L62.2243-32.0142Q65.3164-32.0142 66.9014-30.8067Q68.4864-29.5991 68.4864-27.2309Q68.4864-24.8015 66.9388-23.5745Q65.3912-22.3476 62.3488-22.3313ZM56.5769-39.3543L56.5769-47.8508L61.7382-47.8508Q64.1787-47.8508 65.5613-46.7659Q66.9438-45.6811 66.9438-43.7178Q66.9438-41.6449 65.4384-40.4915Q63.9329-39.3381 61.2028-39.3381Z"/>
  </g>
  <g id="Bold-M" transform="matrix(1 0 0 1 2279.69 1126)">
   <path d="M60.2672 16.3124Q70.9082 16.3124 80.2289 12.2951Q89.5497 8.27781 96.6634 1.15Q103.777-5.9778 107.811-15.2986Q111.845-24.6193 111.845-35.2321Q111.845-45.8449 107.811-55.1656Q103.777-64.4864 96.6493-71.6142Q89.5215-78.742 80.2007-82.7593Q70.8799-86.7766 60.2389-86.7766Q49.6317-86.7766 40.3082-82.7593Q30.9846-78.742 23.8878-71.6142Q16.791-64.4864 12.7568-55.1656Q8.72266-45.8449 8.72266-35.2321Q8.72266-24.6193 12.7568-15.2986Q16.791-5.9778 23.902 1.15Q31.0129 8.27781 40.3364 12.2951Q49.6599 16.3124 60.2672 16.3124ZM60.2672 3.48763Q52.2414 3.48763 45.223 0.484927Q38.2046-2.51777 32.907-7.82954Q27.6093-13.1413 24.6039-20.1738Q21.5984-27.2063 21.5984-35.2321Q21.5984-43.2579 24.5897-50.2904Q27.5811-57.3229 32.8787-62.6347Q38.1764-67.9464 45.1948-70.9491Q52.2131-73.9518 60.2389-73.9518Q68.293-73.9518 75.3141-70.9491Q82.3352-67.9464 87.6443-62.6347Q92.9533-57.3229 95.9728-50.2904Q98.9924-43.2579 98.9924-35.2321Q98.9924-27.2063 95.9897-20.1738Q92.987-13.1413 87.6894-7.82954Q82.3917-2.51777 75.3592 0.484927Q68.3267 3.48763 60.2672 3.48763ZM45.3687-18.4318Q45.3687-16.0342 46.6888-14.6883Q48.0089-13.3424 50.3494-13.3424L52.9716-13.3424L52.9716-9.54953Q52.9716-7.40874 55.1014-7.40874Q57.2256-7.40874 57.2256-9.54953L57.2256-13.3424L60.3457-13.3424L60.3457-9.54953Q60.3457-7.40874 62.4754-7.40874Q64.5997-7.40874 64.5997-9.54953L64.5997-13.4271Q70.98-13.7653 74.6327-17.0678Q78.2854-20.3702 78.2854-25.8433Q78.2854-29.5278 76.0995-32.331Q73.9136-35.1343 70.3693-36.2214Q73.0254-37.4156 74.7018-39.921Q76.3782-42.4263 76.3782-45.3362Q76.3782-49.9993 73.2471-52.927Q70.116-55.8547 64.5997-56.2834L64.5997-60.2365Q64.5997-62.3718 62.4754-62.3718Q60.3457-62.3718 60.3457-60.2365L60.3457-56.4019L57.2256-56.4019L57.2256-60.2365Q57.2256-62.3718 55.1014-62.3718Q52.9716-62.3718 52.9716-60.2365L52.9716-56.4019L50.3779-56.4019Q48.0657-56.4019 46.7172-54.9992Q45.3687-53.5965 45.3687-51.2045ZM54.6433-20.6564L54.6433-32.1459L61.1735-32.1459Q65.0076-32.1459 66.9776-30.7087Q68.9475-29.2715 68.9475-26.4415Q68.9475-23.6048 67.0451-22.1588Q65.1426-20.7129 61.4487-20.6847ZM54.6433-38.9065L54.6433-49.1333L60.8984-49.1333Q63.8579-49.1333 65.5124-47.8429Q67.1668-46.5526 67.1668-44.2029Q67.1668-41.6563 65.3204-40.2672Q63.4739-38.8782 60.0569-38.8782Z"/>
  </g>
  <g id="Semibold-M" transform="matrix(1 0 0 1 1983.62 1126)">
   <path d="M59.621 15.6559Q70.1203 15.6559 79.3244 11.6886Q88.5284 7.72135 95.5566 0.674869Q102.585-6.37161 106.574-15.5756Q110.564-24.7797 110.564-35.2425Q110.564-45.7053 106.574-54.9093Q102.585-64.1134 95.5384-71.1598Q88.4919-78.2063 79.2879-82.1736Q70.0838-86.1408 59.5845-86.1408Q49.1293-86.1408 39.9215-82.1736Q30.7136-78.2063 23.7075-71.1598Q16.7013-64.1134 12.712-54.9093Q8.72266-45.7053 8.72266-35.2425Q8.72266-24.7797 12.712-15.5756Q16.7013-6.37161 23.7257 0.674869Q30.7501 7.72135 39.958 11.6886Q49.1658 15.6559 59.621 15.6559ZM59.621 4.48985Q51.3827 4.48985 44.1841 1.4142Q36.9855-1.66145 31.5492-7.11594Q26.113-12.5704 23.0335-19.7873Q19.954-27.0042 19.954-35.2425Q19.954-43.4808 23.0153-50.6977Q26.0765-57.9145 31.5127-63.369Q36.9489-68.8235 44.1476-71.8992Q51.3462-74.9748 59.5845-74.9748Q67.8593-74.9748 75.0618-71.8992Q82.2642-68.8235 87.7149-63.369Q93.1655-57.9145 96.2633-50.6977Q99.361-43.4808 99.361-35.2425Q99.361-27.0042 96.2853-19.7873Q93.2097-12.5704 87.7735-7.11594Q82.3372-1.66145 75.1203 1.4142Q67.9035 4.48985 59.621 4.48985ZM45.1235-17.4157Q45.1235-15.2663 46.3465-14.029Q47.5695-12.7916 49.6826-12.7916L52.097-12.7916L52.097-8.97522Q52.097-6.73963 54.3173-6.73963Q56.53-6.73963 56.53-8.97522L56.53-12.7916L59.6546-12.7916L59.6546-8.97522Q59.6546-6.73963 61.8749-6.73963Q64.0875-6.73963 64.0875-8.97522L64.0875-12.9011Q70.3597-13.3409 73.9095-16.6597Q77.4594-19.9785 77.4594-25.4427Q77.4594-29.2807 75.2527-32.1295Q73.0461-34.9782 69.4106-36.0922Q72.0792-37.328 73.7721-39.8935Q75.465-42.459 75.465-45.4395Q75.465-50.0587 72.415-53.0412Q69.3649-56.0237 64.0875-56.5623L64.0875-60.5074Q64.0875-62.7353 61.8749-62.7353Q59.6546-62.7353 59.6546-60.5074L59.6546-56.716L56.53-56.716L56.53-60.5074Q56.53-62.7353 54.3173-62.7353Q52.097-62.7353 52.097-60.5074L52.097-56.716L49.7008-56.716Q47.6242-56.716 46.3739-55.424Q45.1235-54.1319 45.1235-51.9902ZM53.3102-19.5129L53.3102-32.2366L60.4491-32.2366Q64.7947-32.2366 67.03-30.6411Q69.2654-29.0456 69.2654-25.8973Q69.2654-22.7798 67.1183-21.1829Q64.9713-19.5859 60.8282-19.5494ZM53.3102-38.5977L53.3102-50.0174L60.3195-50.0174Q63.6367-50.0174 65.4786-48.5854Q67.3206-47.1533 67.3206-44.5374Q67.3206-41.6641 65.2391-40.1127Q63.1575-38.5612 59.2669-38.5612Z"/>
  </g>
  <g id="Medium-M" transform="matrix(1 0 0 1 1687.4 1126)">
   <path d="M59.1311 15.158Q69.523 15.158 78.6385 11.2287Q87.754 7.29942 94.7174 0.314603Q101.681-6.67021 105.636-15.7857Q109.591-24.9012 109.591-35.2504Q109.591-45.5995 105.636-54.715Q101.681-63.8305 94.696-70.8153Q87.7112-77.8002 78.5957-81.7295Q69.4802-85.6588 59.0883-85.6588Q48.7484-85.6588 39.6283-81.7295Q30.5081-77.8002 23.5707-70.8153Q16.6333-63.8305 12.678-54.715Q8.72266-45.5995 8.72266-35.2504Q8.72266-24.9012 12.678-15.7857Q16.6333-6.67021 23.5921 0.314603Q30.5509 7.29942 39.671 11.2287Q48.7912 15.158 59.1311 15.158ZM59.1311 5.24978Q50.7316 5.24978 43.3963 2.11881Q36.061-1.01215 30.5197-6.57486Q24.9784-12.1376 21.8428-19.4943Q18.7072-26.8509 18.7072-35.2504Q18.7072-43.6498 21.8214-51.0065Q24.9356-58.3632 30.4769-63.9259Q36.0183-69.4886 43.3536-72.6195Q50.6889-75.7505 59.0883-75.7505Q67.5305-75.7505 74.8704-72.6195Q82.2103-69.4886 87.7684-63.9259Q93.3265-58.3632 96.4835-51.0065Q99.6405-43.6498 99.6405-35.2504Q99.6405-26.8509 96.5095-19.4943Q93.3785-12.1376 87.8372-6.57486Q82.2959-1.01215 74.9392 2.11881Q67.5825 5.24978 59.1311 5.24978ZM44.9376-16.6453Q44.9376-14.684 46.087-13.529Q47.2364-12.374 49.1771-12.374L51.4339-12.374L51.4339-8.53975Q51.4339-6.23228 53.7229-6.23228Q56.0026-6.23228 56.0026-8.53975L56.0026-12.374L59.1305-12.374L59.1305-8.53975Q59.1305-6.23228 61.4195-6.23228Q63.6992-6.23228 63.6992-8.53975L63.6992-12.5023Q69.8894-13.0191 73.3612-16.3503Q76.8331-19.6815 76.8331-25.1389Q76.8331-29.0934 74.6107-31.9766Q72.3882-34.8598 68.6836-35.9943Q71.3617-37.2616 73.0672-39.8727Q74.7727-42.4838 74.7727-45.5178Q74.7727-50.1037 71.784-53.1278Q68.7954-56.1519 63.6992-56.7738L63.6992-60.7127Q63.6992-63.0109 61.4195-63.0109Q59.1305-63.0109 59.1305-60.7127L59.1305-56.9541L56.0026-56.9541L56.0026-60.7127Q56.0026-63.0109 53.7229-63.0109Q51.4339-63.0109 51.4339-60.7127L51.4339-56.9541L49.1874-56.9541Q47.2894-56.9541 46.1135-55.7461Q44.9376-54.538 44.9376-52.5859ZM52.2994-18.6459L52.2994-32.3054L59.8998-32.3054Q64.6332-32.3054 67.0698-30.5899Q69.5065-28.8743 69.5065-25.4847Q69.5065-22.1543 67.1739-20.4429Q64.8413-18.7314 60.3577-18.6887ZM52.2994-38.3636L52.2994-50.6878L59.8805-50.6878Q63.469-50.6878 65.4531-49.1483Q67.4372-47.6089 67.4372-44.7909Q67.4372-41.6701 65.1774-39.9954Q62.9176-38.3208 58.6679-38.3208Z"/>
  </g>
  <g id="Regular-M" transform="matrix(1 0 0 1 1391.32 1126)">
   <path d="M58.492 14.5087Q68.7438 14.5087 77.7439 10.6289Q86.7439 6.74907 93.6228-0.155309Q100.502-7.05969 104.413-16.0597Q108.324-25.0598 108.324-35.2606Q108.324-45.4615 104.413-54.4616Q100.502-63.4616 93.5973-70.366Q86.693-77.2704 77.6929-81.1502Q68.6929-85.03 58.441-85.03Q48.2515-85.03 39.2458-81.1502Q30.2401-77.2704 23.3923-70.366Q16.5446-63.4616 12.6336-54.4616Q8.72266-45.4615 8.72266-35.2606Q8.72266-25.0598 12.6336-16.0597Q16.5446-7.05969 23.4178-0.155309Q30.291 6.74907 39.2968 10.6289Q48.3025 14.5087 58.492 14.5087ZM58.492 6.24099Q49.8824 6.24099 42.3688 3.03788Q34.8553-0.165238 29.1769-5.86909Q23.4985-11.573 20.2897-19.112Q17.0809-26.6511 17.0809-35.2606Q17.0809-43.8702 20.2642-51.4093Q23.4476-58.9483 29.1259-64.6522Q34.8043-70.3561 42.3179-73.5592Q49.8315-76.7623 58.441-76.7623Q67.1016-76.7623 74.6208-73.5592Q82.1401-70.3561 87.8383-64.6522Q93.5364-58.9483 96.7707-51.4093Q100.005-43.8702 100.005-35.2606Q100.005-26.6511 96.8019-19.112Q93.5988-11.573 87.9204-5.86909Q82.242-0.165238 74.7029 3.03788Q67.1639 6.24099 58.492 6.24099ZM44.6952-15.6404Q44.6952-13.9246 45.7485-12.8769Q46.8018-11.8293 48.5177-11.8293L50.5689-11.8293L50.5689-7.97176Q50.5689-5.57052 52.9475-5.57052Q55.3147-5.57052 55.3147-7.97176L55.3147-11.8293L58.447-11.8293L58.447-7.97176Q58.447-5.57052 60.8255-5.57052Q63.1927-5.57052 63.1927-7.97176L63.1927-11.9821Q69.2759-12.5994 72.646-15.9468Q76.0162-19.2941 76.0162-24.7427Q76.0162-28.849 73.7732-31.7773Q71.5302-34.7055 67.7354-35.8666Q70.4259-37.175 72.1477-39.8455Q73.8695-42.5161 73.8695-45.62Q73.8695-50.1624 70.961-53.2407Q68.0525-56.3191 63.1927-57.0496L63.1927-60.9806Q63.1927-63.3705 60.8255-63.3705Q58.447-63.3705 58.447-60.9806L58.447-57.2648L55.3147-57.2648L55.3147-60.9806Q55.3147-63.3705 52.9475-63.3705Q50.5689-63.3705 50.5689-60.9806L50.5689-57.2648L48.5177-57.2648Q46.8527-57.2648 45.7739-56.1662Q44.6952-55.0676 44.6952-53.363ZM50.981-17.515L50.981-32.3952L59.1833-32.3952Q64.4227-32.3952 67.1218-30.5231Q69.8209-28.651 69.8209-24.9465Q69.8209-21.3384 67.2464-19.4777Q64.6719-17.6169 59.7441-17.5659ZM50.981-38.0582L50.981-51.5622L59.3079-51.5622Q63.2502-51.5622 65.4197-49.8826Q67.5892-48.2031 67.5892-45.1217Q67.5892-41.6778 65.097-39.8425Q62.6047-38.0073 57.8866-38.0073Z"/>
  </g>
  <g id="Light-M" transform="matrix(1 0 0 1 1095.44 1126)">
   <path d="M57.664 13.6807Q67.7687 13.6807 76.6123 9.87453Q85.456 6.06831 92.2245-0.716478Q98.993-7.50127 102.83-16.3449Q106.668-25.1886 106.668-35.2606Q106.668-45.3327 102.83-54.1764Q98.993-63.02 92.2082-69.8048Q85.4234-76.5896 76.5798-80.3958Q67.7361-84.202 57.6315-84.202Q47.5892-84.202 38.7306-80.3958Q29.8721-76.5896 23.1348-69.8048Q16.3974-63.02 12.56-54.1764Q8.72266-45.3327 8.72266-35.2606Q8.72266-25.1886 12.56-16.3449Q16.3974-7.50127 23.151-0.716478Q29.9047 6.06831 38.7632 9.87453Q47.6217 13.6807 57.664 13.6807ZM57.664 7.36333Q48.8337 7.36333 41.1085 4.06822Q33.3833 0.773111 27.5394-5.08714Q21.6954-10.9474 18.3854-18.6888Q15.0755-26.4303 15.0755-35.2606Q15.0755-44.091 18.3692-51.8325Q21.6629-59.5739 27.5068-65.4342Q33.3508-71.2944 41.076-74.5895Q48.8011-77.8846 57.6315-77.8846Q66.4944-77.8846 74.2345-74.5895Q81.9745-71.2944 87.8199-65.4342Q93.6652-59.5739 96.9915-51.8325Q100.318-44.091 100.318-35.2606Q100.318-26.4303 97.0227-18.6888Q93.7275-10.9474 87.8836-5.08714Q82.0396 0.773111 74.2982 4.06822Q66.5567 7.36333 57.664 7.36333ZM44.7319-15.7508Q44.7319-14.3845 45.5737-13.5577Q46.4154-12.7308 47.7817-12.7308L50.7345-12.7308L50.7345-8.57893Q50.7345-6.52727 52.7267-6.52727Q54.6891-6.52727 54.6891-8.57893L54.6891-12.7308L57.9502-12.7308L57.9502-8.57893Q57.9502-6.52727 59.9424-6.52727Q61.9048-6.52727 61.9048-8.57893L61.9048-12.8285Q67.9512-13.3354 71.3305-16.5539Q74.7098-19.7725 74.7098-24.9635Q74.7098-28.9594 72.4669-31.7865Q70.2239-34.6135 66.5395-35.7378Q69.2483-37.0462 70.9334-39.6523Q72.6184-42.2585 72.6184-45.344Q72.6184-49.7761 69.6915-52.744Q66.7646-55.7119 61.9048-56.3136L61.9048-60.355Q61.9048-62.3769 59.9424-62.3769Q57.9502-62.3769 57.9502-60.355L57.9502-56.4736L54.6891-56.4736L54.6891-60.355Q54.6891-62.3769 52.7267-62.3769Q50.7345-62.3769 50.7345-60.355L50.7345-56.4736L47.7817-56.4736Q46.448-56.4736 45.59-55.6142Q44.7319-54.7548 44.7319-53.4182ZM49.6931-17.331L49.6931-33.0024L58.6681-33.0024Q64.0179-33.0024 66.901-30.9739Q69.7841-28.9453 69.7841-25.0937Q69.7841-21.3936 67.0256-19.3949Q64.2671-17.3961 59.2289-17.3635ZM49.6931-37.543L49.6931-51.9301L58.7927-51.9301Q62.8638-51.9301 65.2173-50.1034Q67.5708-48.2767 67.5708-45.0481Q67.5708-41.4754 64.9774-39.493Q62.3839-37.5105 57.7946-37.5105Z"/>
  </g>
  <g id="Thin-M" transform="matrix(1 0 0 1 799.828 1126)">
   <path d="M56.569 12.5857Q66.479 12.5857 75.1158 8.87683Q83.7526 5.16794 90.3751-1.45867Q96.9976-8.08529 100.738-16.7221Q104.478-25.3589 104.478-35.2606Q104.478-45.1624 100.738-53.7992Q96.9976-62.436 90.371-69.0626Q83.7444-75.6892 75.1076-79.3981Q66.4707-83.107 56.5608-83.107Q46.7131-83.107 38.0493-79.3981Q29.3854-75.6892 22.7941-69.0626Q16.2027-62.436 12.4627-53.7992Q8.72266-45.1624 8.72266-35.2606Q8.72266-25.3589 12.4627-16.7221Q16.2027-8.08529 22.7982-1.45867Q29.3936 5.16794 38.0575 8.87683Q46.7214 12.5857 56.569 12.5857ZM56.569 8.84771Q47.4466 8.84771 39.4416 5.43093Q31.4366 2.01415 25.3736-4.05293Q19.3107-10.12 15.8668-18.1291Q12.423-26.1383 12.423-35.2606Q12.423-44.383 15.8627-52.3921Q19.3024-60.4013 25.3654-66.4684Q31.4284-72.5354 39.4334-75.9522Q47.4384-79.369 56.5608-79.369Q65.6914-79.369 73.7234-75.9522Q81.7555-72.5354 87.7955-66.4684Q93.8356-60.4013 97.2835-52.3921Q100.731-44.383 100.731-35.2606Q100.731-26.1383 97.3147-18.1291Q93.8979-10.12 87.8349-4.05293Q81.7719 2.01415 73.7628 5.43093Q65.7537 8.84771 56.569 8.84771ZM44.7806-15.8968Q44.7806-14.9929 45.3425-14.458Q45.9044-13.9232 46.8083-13.9232L50.9535-13.9232L50.9535-9.38195Q50.9535-7.79265 52.4347-7.79265Q53.8617-7.79265 53.8617-9.38195L53.8617-13.9232L57.2932-13.9232L57.2932-9.38195Q57.2932-7.79265 58.7744-7.79265Q60.2014-7.79265 60.2014-9.38195L60.2014-13.9479Q66.1991-14.3087 69.5906-17.357Q72.9821-20.4052 72.9821-25.2555Q72.9821-29.1054 70.7391-31.7986Q68.4962-34.4918 64.9578-35.5674Q67.6909-36.8758 69.3273-39.3968Q70.9637-41.9178 70.9637-44.979Q70.9637-49.265 68.0124-52.087Q65.0612-54.9089 60.2014-55.3403L60.2014-59.5276Q60.2014-61.0629 58.7744-61.0629Q57.2932-61.0629 57.2932-59.5276L57.2932-55.4273L53.8617-55.4273L53.8617-59.5276Q53.8617-61.0629 52.4347-61.0629Q50.9535-61.0629 50.9535-59.5276L50.9535-55.4273L46.8083-55.4273Q45.9126-55.4273 45.3466-54.8842Q44.7806-54.3411 44.7806-53.4912ZM47.9897-17.0876L47.9897-33.8054L57.9868-33.8054Q63.4825-33.8054 66.609-31.57Q69.7354-29.3347 69.7354-25.2884Q69.7354-21.4666 66.7336-19.2854Q63.7318-17.1041 58.5475-17.0959ZM47.9897-36.8617L47.9897-52.4168L58.1114-52.4168Q62.3528-52.4168 64.9497-50.3954Q67.5465-48.374 67.5465-44.9508Q67.5465-41.2078 64.8192-39.0306Q62.0919-36.8535 57.673-36.8535Z"/>
  </g>
  <g id="Ultralight-M" transform="matrix(1 0 0 1 503.679 1126)">
   <path d="M56.0081 12.0248Q65.8184 12.0248 74.3492 8.36581Q82.8801 4.70678 89.4278-1.83882Q95.9756-8.38442 99.6657-16.9153Q103.356-25.4462 103.356-35.2606Q103.356-45.0751 99.6657-53.606Q95.9756-62.1369 89.43-68.6825Q82.8844-75.2281 74.3535-78.8871Q65.8226-82.5461 56.0124-82.5461Q46.2644-82.5461 37.7003-78.8871Q29.1361-75.2281 22.6196-68.6825Q16.103-62.1369 12.4128-53.606Q8.72266-45.0751 8.72266-35.2606Q8.72266-25.4462 12.4128-16.9153Q16.103-8.38442 22.6175-1.83882Q29.1319 4.70678 37.6961 8.36581Q46.2602 12.0248 56.0081 12.0248ZM56.0081 9.60801Q46.7362 9.60801 38.5878 6.12891Q30.4395 2.64981 24.2644-3.52322Q18.0892-9.69625 14.5768-17.8425Q11.0645-25.9887 11.0645-35.2606Q11.0645-44.5326 14.579-52.6788Q18.0934-60.825 24.2686-66.9981Q30.4437-73.1711 38.5921-76.6502Q46.7404-80.1293 56.0124-80.1293Q65.2801-80.1293 73.4617-76.6502Q81.6433-73.1711 87.7831-66.9981Q93.9228-60.825 97.4331-52.6788Q100.943-44.5326 100.943-35.2606Q100.943-25.9887 97.4642-17.8425Q93.9851-9.69625 87.81-3.52322Q81.6348 2.64981 73.4886 6.12891Q65.3424 9.60801 56.0081 9.60801ZM44.8055-15.9716Q44.8055-15.3045 45.2241-14.9192Q45.6427-14.5339 46.3098-14.5339L51.0657-14.5339L51.0657-9.79326Q51.0657-8.44077 52.2851-8.44077Q53.438-8.44077 53.438-9.79326L53.438-14.5339L56.9567-14.5339L56.9567-9.79326Q56.9567-8.44077 58.1761-8.44077Q59.329-8.44077 59.329-9.79326L59.329-14.5212Q65.3017-14.8073 68.6995-17.7683Q72.0972-20.7292 72.0972-25.4051Q72.0972-29.1802 69.8542-31.8049Q67.6112-34.4295 64.1476-35.4802Q66.8932-36.7886 68.5047-39.266Q70.1161-41.7433 70.1161-44.792Q70.1161-49.0033 67.1524-51.7504Q64.1887-54.4976 59.329-54.8417L59.329-59.1039Q59.329-60.3898 58.1761-60.3898Q56.9567-60.3898 56.9567-59.1039L56.9567-54.8913L53.438-54.8913L53.438-59.1039Q53.438-60.3898 52.2851-60.3898Q51.0657-60.3898 51.0657-59.1039L51.0657-54.8913L46.3098-54.8913Q45.6384-54.8913 45.222-54.5103Q44.8055-54.1292 44.8055-53.5286ZM47.1172-16.963L47.1172-34.2167L57.6378-34.2167Q63.2083-34.2167 66.4594-31.8754Q69.7105-29.5341 69.7105-25.3881Q69.7105-21.504 66.584-19.2293Q63.4576-16.9545 58.1985-16.9588ZM47.1172-36.5127L47.1172-52.6661L57.7624-52.6661Q62.0911-52.6661 64.8126-50.545Q67.534-48.4239 67.534-44.9009Q67.534-41.0707 64.7382-38.7938Q61.9423-36.5169 57.6106-36.5169Z"/>
  </g>
  <g id="Black-S" transform="matrix(1 0 0 1 2884.57 696)">
   <path d="M48.8281 6.78711Q57.5195 6.78711 65.1123 3.51562Q72.7051 0.244141 78.4912-5.54199Q84.2773-11.3281 87.5488-18.9209Q90.8203-26.5137 90.8203-35.2051Q90.8203-43.8965 87.5488-51.4893Q84.2773-59.082 78.4912-64.8682Q72.7051-70.6543 65.1123-73.9258Q57.5195-77.1973 48.8281-77.1973Q40.1367-77.1973 32.5439-73.9258Q24.9512-70.6543 19.165-64.8682Q13.3789-59.082 10.1074-51.4893Q6.83594-43.8965 6.83594-35.2051Q6.83594-26.5137 10.1074-18.9209Q13.3789-11.3281 19.165-5.54199Q24.9512 0.244141 32.5439 3.51562Q40.1367 6.78711 48.8281 6.78711ZM48.8281-7.37305Q43.0664-7.37305 38.0127-9.5459Q32.959-11.7188 29.1504-15.5273Q25.3418-19.3359 23.1689-24.3896Q20.9961-29.4434 20.9961-35.2051Q20.9961-40.9668 23.1689-46.0205Q25.3418-51.0742 29.1504-54.8828Q32.959-58.6914 38.0127-60.8643Q43.0664-63.0371 48.8281-63.0371Q54.5898-63.0371 59.6436-60.8643Q64.6973-58.6914 68.5059-54.8828Q72.3145-51.0742 74.4873-46.0205Q76.6602-40.9668 76.6602-35.2051Q76.6602-29.4434 74.4873-24.3896Q72.3145-19.3359 68.5059-15.5273Q64.6973-11.7188 59.6436-9.5459Q54.5898-7.37305 48.8281-7.37305ZM36.1816-24.6582Q36.1816-22.168 37.4512-20.8496Q38.7207-19.5312 41.1133-19.5312L43.75-19.5312L43.75-16.6016Q43.75-15.1855 45.166-15.1855Q46.582-15.1855 46.582-16.6016L46.582-19.5312L49.0234-19.5312L49.0234-16.6016Q49.0234-15.1855 50.4395-15.1855Q51.8555-15.1855 51.8555-16.6016L51.8555-19.5312Q57.1289-19.5312 60.2539-22.0703Q63.3789-24.6094 63.3789-28.9062Q63.3789-31.3965 61.7188-33.4717Q60.0586-35.5469 57.5195-36.3281Q59.5703-37.1582 60.8398-38.9648Q62.1094-40.7715 62.1094-42.8711Q62.1094-46.6309 59.4482-48.7793Q56.7871-50.9277 51.8555-50.9766L51.8555-54.1016Q51.8555-55.5176 50.4395-55.5176Q49.0234-55.5176 49.0234-54.1016L49.0234-50.9766L46.582-50.9766L46.582-54.1016Q46.582-55.5176 45.166-55.5176Q43.75-55.5176 43.75-54.1016L43.75-50.9766L41.1621-50.9766Q38.7695-50.9766 37.4756-49.6094Q36.1816-48.2422 36.1816-45.752ZM46.1426-26.709L46.1426-32.6172L49.7559-32.6172Q51.4648-32.6172 52.3438-31.8848Q53.2227-31.1523 53.2227-29.7363Q53.2227-28.2227 52.3438-27.4658Q51.4648-26.709 49.707-26.709ZM46.1426-38.8672L46.1426-43.8965L49.1699-43.8965Q50.5859-43.8965 51.416-43.2373Q52.2461-42.5781 52.2461-41.4062Q52.2461-40.2344 51.3916-39.5508Q50.5371-38.8672 49.0723-38.8672Z"/>
  </g>
  <g id="Heavy-S" transform="matrix(1 0 0 1 2588.47 696)">
   <path d="M48.2173 6.16479Q56.7704 6.16479 64.2537 2.9394Q71.737-0.285985 77.4425-5.99721Q83.1479-11.7084 86.3791-19.1917Q89.6102-26.675 89.6102-35.2166Q89.6102-43.7582 86.3791-51.2415Q83.1479-58.7248 77.4367-64.436Q71.7255-70.1472 64.2422-73.3726Q56.7589-76.598 48.2058-76.598Q39.6642-76.598 32.1809-73.3726Q24.6976-70.1472 18.9979-64.436Q13.2982-58.7248 10.0671-51.2415Q6.83594-43.7582 6.83594-35.2166Q6.83594-26.675 10.0671-19.1917Q13.2982-11.7084 19.0037-5.99721Q24.7092-0.285985 32.1924 2.9394Q39.6757 6.16479 48.2173 6.16479ZM48.2173-6.40499Q42.2482-6.40499 37.0216-8.64699Q31.795-10.889 27.8539-14.8359Q23.9128-18.7828 21.6708-24.0151Q19.4288-29.2474 19.4288-35.2166Q19.4288-41.1858 21.665-46.4181Q23.9012-51.6504 27.8424-55.5973Q31.7835-59.5442 37.0101-61.7862Q42.2366-64.0282 48.2058-64.0282Q54.1865-64.0282 59.4131-61.7862Q64.6396-59.5442 68.5865-55.5973Q72.5334-51.6504 74.7812-46.4181Q77.0289-41.1858 77.0289-35.2166Q77.0289-29.2474 74.7869-24.0151Q72.5449-18.7828 68.6038-14.8359Q64.6627-10.889 59.4304-8.64699Q54.198-6.40499 48.2173-6.40499ZM35.9051-23.5173Q35.9051-21.2575 37.0939-20.0314Q38.2828-18.8052 40.4679-18.8052L42.7589-18.8052L42.7589-15.887Q42.7589-14.3212 44.3247-14.3212Q45.8906-14.3212 45.8906-15.887L45.8906-18.8052L48.3204-18.8052L48.3204-15.887Q48.3204-14.3212 49.8863-14.3212Q51.4521-14.3212 51.4521-15.887L51.4521-18.8398Q56.6103-18.9666 59.6201-21.5402Q62.6298-24.1138 62.6298-28.4337Q62.6298-31.1084 60.9466-33.247Q59.2634-35.3855 56.6091-36.2014Q58.6714-37.0775 59.964-38.9591Q61.2566-40.8406 61.2566-43.0209Q61.2566-46.7461 58.6876-48.9695Q56.1187-51.1928 51.4521-51.3799L51.4521-54.4819Q51.4521-56.0477 49.8863-56.0477Q48.3204-56.0477 48.3204-54.4819L48.3204-51.426L45.8906-51.426L45.8906-54.4819Q45.8906-56.0477 44.3247-56.0477Q42.7589-56.0477 42.7589-54.4819L42.7589-51.426L40.5052-51.426Q38.3316-51.426 37.1183-50.151Q35.9051-48.876 35.9051-46.6163ZM44.8288-25.4643L44.8288-32.6402L49.0183-32.6402Q51.2805-32.6402 52.4302-31.7522Q53.5799-30.8642 53.5799-29.114Q53.5799-27.3007 52.4532-26.394Q51.3266-25.4874 49.0847-25.4759ZM44.8288-38.5906L44.8288-44.83L48.5937-44.83Q50.39-44.83 51.4045-44.0325Q52.419-43.235 52.419-41.7866Q52.419-40.2689 51.3167-39.424Q50.2144-38.5791 48.2079-38.5791Z"/>
  </g>
  <g id="Bold-S" transform="matrix(1 0 0 1 2292.43 696)">
   <path d="M47.5342 5.46875Q55.9326 5.46875 63.2935 2.29492Q70.6543-0.878906 76.2695-6.50635Q81.8848-12.1338 85.0708-19.4946Q88.2568-26.8555 88.2568-35.2295Q88.2568-43.6035 85.0708-50.9644Q81.8848-58.3252 76.2573-63.9526Q70.6299-69.5801 63.269-72.7539Q55.9082-75.9277 47.5098-75.9277Q39.1357-75.9277 31.7749-72.7539Q24.4141-69.5801 18.811-63.9526Q13.208-58.3252 10.022-50.9644Q6.83594-43.6035 6.83594-35.2295Q6.83594-26.8555 10.022-19.4946Q13.208-12.1338 18.8232-6.50635Q24.4385-0.878906 31.7993 2.29492Q39.1602 5.46875 47.5342 5.46875ZM47.5342-5.32227Q41.333-5.32227 35.9131-7.6416Q30.4932-9.96094 26.4038-14.0625Q22.3145-18.1641 19.9951-23.5962Q17.6758-29.0283 17.6758-35.2295Q17.6758-41.4307 19.9829-46.8628Q22.29-52.2949 26.3794-56.3965Q30.4688-60.498 35.8887-62.8174Q41.3086-65.1367 47.5098-65.1367Q53.7354-65.1367 59.1553-62.8174Q64.5752-60.498 68.6768-56.3965Q72.7783-52.2949 75.1099-46.8628Q77.4414-41.4307 77.4414-35.2295Q77.4414-29.0283 75.1221-23.5962Q72.8027-18.1641 68.7134-14.0625Q64.624-9.96094 59.1919-7.6416Q53.7598-5.32227 47.5342-5.32227ZM35.5957-22.2412Q35.5957-20.2393 36.6943-19.1162Q37.793-17.9932 39.7461-17.9932L41.6504-17.9932L41.6504-15.0879Q41.6504-13.3545 43.3838-13.3545Q45.1172-13.3545 45.1172-15.0879L45.1172-17.9932L47.5342-17.9932L47.5342-15.0879Q47.5342-13.3545 49.2676-13.3545Q51.001-13.3545 51.001-15.0879L51.001-18.0664Q56.0303-18.335 58.9111-20.9473Q61.792-23.5596 61.792-27.9053Q61.792-30.7861 60.083-32.9956Q58.374-35.2051 55.5908-36.0596Q57.666-36.9873 58.9844-38.9526Q60.3027-40.918 60.3027-43.1885Q60.3027-46.875 57.8369-49.1821Q55.3711-51.4893 51.001-51.8311L51.001-54.9072Q51.001-56.6406 49.2676-56.6406Q47.5342-56.6406 47.5342-54.9072L47.5342-51.9287L45.1172-51.9287L45.1172-54.9072Q45.1172-56.6406 43.3838-56.6406Q41.6504-56.6406 41.6504-54.9072L41.6504-51.9287L39.7705-51.9287Q37.8418-51.9287 36.7188-50.7568Q35.5957-49.585 35.5957-47.583ZM43.3594-24.0723L43.3594-32.666L48.1934-32.666Q51.0742-32.666 52.5269-31.604Q53.9795-30.542 53.9795-28.418Q53.9795-26.2695 52.5757-25.1953Q51.1719-24.1211 48.3887-24.0967ZM43.3594-38.2812L43.3594-45.874L47.9492-45.874Q50.1709-45.874 51.3916-44.9219Q52.6123-43.9697 52.6123-42.2119Q52.6123-40.3076 51.2329-39.2822Q49.8535-38.2568 47.2412-38.2568Z"/>
  </g>
  <g id="Semibold-S" transform="matrix(1 0 0 1 1996.19 696)">
   <path d="M47.0632 4.98887Q55.355 4.98887 62.6314 1.85059Q69.9078-1.2877 75.4608-6.85737Q81.0139-12.4271 84.1688-19.7035Q87.3237-26.9799 87.3237-35.2384Q87.3237-43.4969 84.1688-50.7733Q81.0139-58.0497 75.4442-63.6194Q69.8745-69.1891 62.5981-72.3273Q55.3217-75.4656 47.0299-75.4656Q38.7714-75.4656 31.495-72.3273Q24.2186-69.1891 18.6822-63.6194Q13.1458-58.0497 9.99087-50.7733Q6.83594-43.4969 6.83594-35.2384Q6.83594-26.9799 9.99087-19.7035Q13.1458-12.4271 18.6988-6.85737Q24.2519-1.2877 31.5283 1.85059Q38.8047 4.98887 47.0632 4.98887ZM47.0632-4.57578Q40.7021-4.57578 35.1488-6.94844Q29.5956-9.32109 25.4041-13.5293Q21.2125-17.7375 18.8398-23.3074Q16.4672-28.8772 16.4672-35.2384Q16.4672-41.5995 18.8232-47.1694Q21.1792-52.7393 25.3708-56.9475Q29.5623-61.1557 35.1155-63.5283Q40.6688-65.901 47.0299-65.901Q53.4243-65.901 58.9775-63.5283Q64.5308-61.1557 68.739-56.9475Q72.9472-52.7393 75.3365-47.1694Q77.7258-41.5995 77.7258-35.2384Q77.7258-28.8772 75.3531-23.3074Q72.9805-17.7375 68.7889-13.5293Q64.5974-9.32109 59.0275-6.94844Q53.4576-4.57578 47.0632-4.57578ZM35.3824-21.3614Q35.3824-19.5372 36.4188-18.4853Q37.4553-17.4333 39.2484-17.4333L40.8861-17.4333L40.8861-14.5369Q40.8861-12.688 42.7351-12.688Q44.584-12.688 44.584-14.5369L44.584-17.4333L46.9921-17.4333L46.9921-14.5369Q46.9921-12.688 48.841-12.688Q50.6899-12.688 50.6899-14.5369L50.6899-17.5332Q55.6304-17.8995 58.4224-20.5385Q61.2144-23.1774 61.2144-27.5409Q61.2144-30.564 59.4876-32.8223Q57.7608-35.0807 54.8888-35.9618Q56.9729-36.9251 58.309-38.9482Q59.6451-40.9713 59.6451-43.304Q59.6451-46.9639 57.2504-49.3288Q54.8557-51.6937 50.6899-52.1421L50.6899-55.2005Q50.6899-57.0494 48.841-57.0494Q46.9921-57.0494 46.9921-55.2005L46.9921-52.2753L44.584-52.2753L44.584-55.2005Q44.584-57.0494 42.7351-57.0494Q40.8861-57.0494 40.8861-55.2005L40.8861-52.2753L39.264-52.2753Q37.5041-52.2753 36.4433-51.1745Q35.3824-50.0737 35.3824-48.2495ZM42.3463-23.1125L42.3463-32.6838L47.6246-32.6838Q50.932-32.6838 52.5935-31.5018Q54.255-30.3198 54.255-27.9381Q54.255-25.5586 52.6601-24.3688Q51.0652-23.1791 47.9088-23.1458ZM42.3463-38.068L42.3463-46.5938L47.5049-46.5938Q50.0198-46.5938 51.3827-45.5351Q52.7456-44.4763 52.7456-42.5052Q52.7456-40.3343 51.1751-39.1845Q49.6047-38.0347 46.5747-38.0347Z"/>
  </g>
  <g id="Medium-S" transform="matrix(1 0 0 1 1699.83 696)">
   <path d="M46.7061 4.625Q54.917 4.625 62.1294 1.51367Q69.3418-1.59766 74.8477-7.12354Q80.3535-12.6494 83.4849-19.8618Q86.6162-27.0742 86.6162-35.2451Q86.6162-43.416 83.4849-50.6284Q80.3535-57.8408 74.8276-63.3667Q69.3018-68.8926 62.0894-72.0039Q54.877-75.1152 46.666-75.1152Q38.4951-75.1152 31.2827-72.0039Q24.0703-68.8926 18.5845-63.3667Q13.0986-57.8408 9.96729-50.6284Q6.83594-43.416 6.83594-35.2451Q6.83594-27.0742 9.96729-19.8618Q13.0986-12.6494 18.6045-7.12354Q24.1104-1.59766 31.3228 1.51367Q38.5352 4.625 46.7061 4.625ZM46.7061-4.00977Q40.2236-4.00977 34.5693-6.42285Q28.915-8.83594 24.646-13.125Q20.377-17.4141 17.9639-23.0884Q15.5508-28.7627 15.5508-35.2451Q15.5508-41.7275 17.9438-47.4019Q20.3369-53.0762 24.606-57.3652Q28.875-61.6543 34.5293-64.0674Q40.1836-66.4805 46.666-66.4805Q53.1885-66.4805 58.8428-64.0674Q64.4971-61.6543 68.7861-57.3652Q73.0752-53.0762 75.5083-47.4019Q77.9414-41.7275 77.9414-35.2451Q77.9414-28.7627 75.5283-23.0884Q73.1152-17.4141 68.8462-13.125Q64.5771-8.83594 58.9028-6.42285Q53.2285-4.00977 46.7061-4.00977ZM35.2207-20.6943Q35.2207-19.0049 36.21-18.0068Q37.1992-17.0088 38.8711-17.0088L40.3066-17.0088L40.3066-14.1191Q40.3066-12.1826 42.2432-12.1826Q44.1797-12.1826 44.1797-14.1191L44.1797-17.0088L46.5811-17.0088L46.5811-14.1191Q46.5811-12.1826 48.5176-12.1826Q50.4541-12.1826 50.4541-14.1191L50.4541-17.1289Q55.3271-17.5693 58.0518-20.2285Q60.7764-22.8877 60.7764-27.2646Q60.7764-30.3955 59.0361-32.6909Q57.2959-34.9863 54.3564-35.8877Q56.4473-36.8779 57.7969-38.9448Q59.1465-41.0117 59.1465-43.3916Q59.1465-47.0312 56.8057-49.4399Q54.4648-51.8486 50.4541-52.3779L50.4541-55.4229Q50.4541-57.3594 48.5176-57.3594Q46.5811-57.3594 46.5811-55.4229L46.5811-52.5381L44.1797-52.5381L44.1797-55.4229Q44.1797-57.3594 42.2432-57.3594Q40.3066-57.3594 40.3066-55.4229L40.3066-52.5381L38.8799-52.5381Q37.248-52.5381 36.2344-51.4912Q35.2207-50.4443 35.2207-48.7549ZM41.5781-22.3848L41.5781-32.6973L47.1934-32.6973Q50.8242-32.6973 52.644-31.4243Q54.4639-30.1514 54.4639-27.5742Q54.4639-25.0195 52.7241-23.7422Q50.9844-22.4648 47.5449-22.4248ZM41.5781-37.9062L41.5781-47.1396L47.168-47.1396Q49.9053-47.1396 51.376-46Q52.8467-44.8604 52.8467-42.7275Q52.8467-40.3545 51.1313-39.1104Q49.416-37.8662 46.0693-37.8662Z"/>
  </g>
  <g id="Regular-S" transform="matrix(1 0 0 1 1403.58 696)">
   <path d="M46.2402 4.15039Q54.3457 4.15039 61.4746 1.07422Q68.6035-2.00195 74.0479-7.4707Q79.4922-12.9395 82.5928-20.0684Q85.6934-27.1973 85.6934-35.2539Q85.6934-43.3105 82.5928-50.4395Q79.4922-57.5684 74.0234-63.0371Q68.5547-68.5059 61.4258-71.582Q54.2969-74.6582 46.1914-74.6582Q38.1348-74.6582 31.0059-71.582Q23.877-68.5059 18.457-63.0371Q13.0371-57.5684 9.93652-50.4395Q6.83594-43.3105 6.83594-35.2539Q6.83594-27.1973 9.93652-20.0684Q13.0371-12.9395 18.4814-7.4707Q23.9258-2.00195 31.0547 1.07422Q38.1836 4.15039 46.2402 4.15039ZM46.2402-3.27148Q39.5996-3.27148 33.8135-5.7373Q28.0273-8.20312 23.6572-12.5977Q19.2871-16.9922 16.8213-22.8027Q14.3555-28.6133 14.3555-35.2539Q14.3555-41.8945 16.7969-47.7051Q19.2383-53.5156 23.6084-57.9102Q27.9785-62.3047 33.7646-64.7705Q39.5508-67.2363 46.1914-67.2363Q52.8809-67.2363 58.667-64.7705Q64.4531-62.3047 68.8477-57.9102Q73.2422-53.5156 75.7324-47.7051Q78.2227-41.8945 78.2227-35.2539Q78.2227-28.6133 75.7568-22.8027Q73.291-16.9922 68.9209-12.5977Q64.5508-8.20312 58.7402-5.7373Q52.9297-3.27148 46.2402-3.27148ZM35.0098-19.8242Q35.0098-18.3105 35.9375-17.3828Q36.8652-16.4551 38.3789-16.4551L39.5508-16.4551L39.5508-13.5742Q39.5508-11.5234 41.6016-11.5234Q43.6523-11.5234 43.6523-13.5742L43.6523-16.4551L46.0449-16.4551L46.0449-13.5742Q46.0449-11.5234 48.0957-11.5234Q50.1465-11.5234 50.1465-13.5742L50.1465-16.6016Q54.9316-17.1387 57.5684-19.8242Q60.2051-22.5098 60.2051-26.9043Q60.2051-30.1758 58.4473-32.5195Q56.6895-34.8633 53.6621-35.791Q55.7617-36.8164 57.1289-38.9404Q58.4961-41.0645 58.4961-43.5059Q58.4961-47.1191 56.2256-49.585Q53.9551-52.0508 50.1465-52.6855L50.1465-55.7129Q50.1465-57.7637 48.0957-57.7637Q46.0449-57.7637 46.0449-55.7129L46.0449-52.8809L43.6523-52.8809L43.6523-55.7129Q43.6523-57.7637 41.6016-57.7637Q39.5508-57.7637 39.5508-55.7129L39.5508-52.8809L38.3789-52.8809Q36.9141-52.8809 35.9619-51.9043Q35.0098-50.9277 35.0098-49.4141ZM40.5762-21.4355L40.5762-32.7148L46.6309-32.7148Q50.6836-32.7148 52.71-31.3232Q54.7363-29.9316 54.7363-27.0996Q54.7363-24.3164 52.8076-22.9248Q50.8789-21.5332 47.0703-21.4844ZM40.5762-37.6953L40.5762-47.8516L46.7285-47.8516Q49.7559-47.8516 51.3672-46.6064Q52.9785-45.3613 52.9785-43.0176Q52.9785-40.3809 51.0742-39.0137Q49.1699-37.6465 45.4102-37.6465Z"/>
  </g>
  <g id="Light-S" transform="matrix(1 0 0 1 1107.6 696)">
   <path d="M45.5078 3.41797Q53.4831 3.41797 60.4736 0.406901Q67.4642-2.60417 72.8109-7.96712Q78.1576-13.3301 81.193-20.3206Q84.2285-27.3112 84.2285-35.2539Q84.2285-43.1966 81.193-50.1872Q78.1576-57.1777 72.7946-62.5407Q67.4316-67.9036 60.4411-70.9147Q53.4505-73.9258 45.4753-73.9258Q37.5488-73.9258 30.5501-70.9147Q23.5514-67.9036 18.2292-62.5407Q12.9069-57.1777 9.87142-50.1872Q6.83594-43.1966 6.83594-35.2539Q6.83594-27.3112 9.87142-20.3206Q12.9069-13.3301 18.2454-7.96712Q23.584-2.60417 30.5827 0.406901Q37.5814 3.41797 45.5078 3.41797ZM45.5078-2.27865Q38.6719-2.27865 32.6986-4.82585Q26.7253-7.37305 22.2087-11.9059Q17.6921-16.4388 15.1367-22.4284Q12.5814-28.418 12.5814-35.2539Q12.5814-42.0898 15.1204-48.0794Q17.6595-54.069 22.1761-58.6019Q26.6927-63.1348 32.666-65.682Q38.6393-68.2292 45.4753-68.2292Q52.3438-68.2292 58.3252-65.682Q64.3066-63.1348 68.8314-58.6019Q73.3561-54.069 75.9277-48.0794Q78.4993-42.0898 78.4993-35.2539Q78.4993-28.418 75.9521-22.4284Q73.4049-16.4388 68.8883-11.9059Q64.3717-7.37305 58.3822-4.82585Q52.3926-2.27865 45.5078-2.27865ZM35.0423-19.9219Q35.0423-18.7174 35.7829-17.985Q36.5234-17.2526 37.7279-17.2526L39.6973-17.2526L39.6973-14.1113Q39.6973-12.3698 41.4062-12.3698Q43.099-12.3698 43.099-14.1113L43.099-17.2526L45.6055-17.2526L45.6055-14.1113Q45.6055-12.3698 47.3145-12.3698Q49.0072-12.3698 49.0072-14.1113L49.0072-17.3503Q53.7598-17.7897 56.4046-20.3613Q59.0495-22.9329 59.0495-27.0996Q59.0495-30.2734 57.2917-32.5277Q55.5339-34.7819 52.6042-35.6771Q54.7201-36.7025 56.0547-38.7695Q57.3893-40.8366 57.3893-43.2617Q57.3893-46.7773 55.1025-49.1455Q52.8158-51.5137 49.0072-52.0345L49.0072-55.1595Q49.0072-56.8848 47.3145-56.8848Q45.6055-56.8848 45.6055-55.1595L45.6055-52.181L43.099-52.181L43.099-55.1595Q43.099-56.8848 41.4062-56.8848Q39.6973-56.8848 39.6973-55.1595L39.6973-52.181L37.7279-52.181Q36.556-52.181 35.7992-51.416Q35.0423-50.651 35.0423-49.4629ZM39.4368-21.2728L39.4368-33.252L46.1751-33.252Q50.3255-33.252 52.5146-31.722Q54.7038-30.1921 54.7038-27.2298Q54.7038-24.3652 52.6123-22.8516Q50.5208-21.3379 46.6146-21.3053ZM39.4368-37.2396L39.4368-48.1771L46.2728-48.1771Q49.4141-48.1771 51.1882-46.8018Q52.9622-45.4264 52.9622-42.9525Q52.9622-40.2018 50.9684-38.7044Q48.9746-37.207 45.3288-37.207Z"/>
  </g>
  <g id="Thin-S" transform="matrix(1 0 0 1 811.863 696)">
   <path d="M44.5391 2.44928Q52.3422 2.44928 59.1498-0.47568Q65.9573-3.40064 71.1749-8.62368Q76.3924-13.8467 79.3418-20.6543Q82.2911-27.4619 82.2911-35.2539Q82.2911-43.0459 79.3418-49.8535Q76.3924-56.6611 71.1694-61.8841Q65.9463-67.1072 59.1387-70.0321Q52.3311-72.9571 44.5281-72.9571Q36.7739-72.9571 29.9474-70.0321Q23.1209-67.1072 17.9278-61.8841Q12.7347-56.6611 9.78531-49.8535Q6.83594-43.0459 6.83594-35.2539Q6.83594-27.4619 9.78531-20.6543Q12.7347-13.8467 17.9333-8.62368Q23.1319-3.40064 29.9584-0.47568Q36.7849 2.44928 44.5391 2.44928ZM44.5391-0.965537Q37.4449-0.965537 31.224-3.62037Q25.0032-6.2752 20.2928-10.9911Q15.5825-15.7069 12.9087-21.9333Q10.235-28.1597 10.235-35.2539Q10.235-42.3482 12.9032-48.5745Q15.5714-54.8009 20.2818-59.5168Q24.9921-64.2326 31.213-66.8874Q37.4338-69.5423 44.5281-69.5423Q51.6334-69.5423 57.8731-66.8874Q64.1129-64.2326 68.8099-59.5168Q73.5068-54.8009 76.1861-48.5745Q78.8653-42.3482 78.8653-35.2539Q78.8653-28.1597 76.2105-21.9333Q73.5556-15.7069 68.8453-10.9911Q64.135-6.2752 57.9086-3.62037Q51.6822-0.965537 44.5391-0.965537ZM35.0854-20.051Q35.0854-19.2556 35.5784-18.7815Q36.0714-18.3074 36.8668-18.3074L39.891-18.3074L39.891-14.8217Q39.891-13.4892 41.1479-13.4892Q42.3671-13.4892 42.3671-14.8217L42.3671-18.3074L45.0243-18.3074L45.0243-14.8217Q45.0243-13.4892 46.2812-13.4892Q47.5003-13.4892 47.5003-14.8217L47.5003-18.3405Q52.2099-18.6508 54.8655-21.0717Q57.5211-23.4926 57.5211-27.3579Q57.5211-30.4026 55.7633-32.5384Q54.0055-34.6743 51.205-35.5264Q53.3424-36.5518 54.6339-38.5435Q55.9255-40.5352 55.9255-42.9388Q55.9255-46.3253 53.6172-48.5643Q51.3089-50.8033 47.5003-51.1735L47.5003-54.4276Q47.5003-55.7223 46.2812-55.7223Q45.0243-55.7223 45.0243-54.4276L45.0243-51.2554L42.3671-51.2554L42.3671-54.4276Q42.3671-55.7223 41.1479-55.7223Q39.891-55.7223 39.891-54.4276L39.891-51.2554L36.8668-51.2554Q36.0824-51.2554 35.5839-50.7702Q35.0854-50.2851 35.0854-49.5275ZM37.93-21.0575L37.93-33.9623L45.5724-33.9623Q49.8519-33.9623 52.2563-32.2494Q54.6607-30.5365 54.6607-27.402Q54.6607-24.4298 52.354-22.7547Q50.0473-21.0796 46.0118-21.0685ZM37.93-36.6368L37.93-48.6076L45.67-48.6076Q48.962-48.6076 50.9514-47.0601Q52.9407-45.5125 52.9407-42.8664Q52.9407-39.965 50.8285-38.2954Q48.7163-36.6258 45.2211-36.6258Z"/>
  </g>
  <g id="Ultralight-S" transform="matrix(1 0 0 1 515.649 696)">
   <path d="M44.043 1.95312Q51.7578 1.95312 58.4717-0.927734Q65.1855-3.80859 70.3369-8.95996Q75.4883-14.1113 78.3936-20.8252Q81.2988-27.5391 81.2988-35.2539Q81.2988-42.9688 78.3936-49.6826Q75.4883-56.3965 70.3369-61.5479Q65.1855-66.6992 58.4717-69.5801Q51.7578-72.4609 44.043-72.4609Q36.377-72.4609 29.6387-69.5801Q22.9004-66.6992 17.7734-61.5479Q12.6465-56.3965 9.74121-49.6826Q6.83594-42.9688 6.83594-35.2539Q6.83594-27.5391 9.74121-20.8252Q12.6465-14.1113 17.7734-8.95996Q22.9004-3.80859 29.6387-0.927734Q36.377 1.95312 44.043 1.95312ZM44.043-0.292969Q36.8164-0.292969 30.4688-3.00293Q24.1211-5.71289 19.3115-10.5225Q14.502-15.332 11.7676-21.6797Q9.0332-28.0273 9.0332-35.2539Q9.0332-42.4805 11.7676-48.8281Q14.502-55.1758 19.3115-59.9854Q24.1211-64.7949 30.4688-67.5049Q36.8164-70.2148 44.043-70.2148Q51.2695-70.2148 57.6416-67.5049Q64.0137-64.7949 68.7988-59.9854Q73.584-55.1758 76.3184-48.8281Q79.0527-42.4805 79.0527-35.2539Q79.0527-28.0273 76.3428-21.6797Q73.6328-15.332 68.8232-10.5225Q64.0137-5.71289 57.666-3.00293Q51.3184-0.292969 44.043-0.292969ZM35.1074-20.1172Q35.1074-19.5312 35.4736-19.1895Q35.8398-18.8477 36.4258-18.8477L39.9902-18.8477L39.9902-15.1855Q39.9902-14.0625 41.0156-14.0625Q41.9922-14.0625 41.9922-15.1855L41.9922-18.8477L44.7266-18.8477L44.7266-15.1855Q44.7266-14.0625 45.752-14.0625Q46.7285-14.0625 46.7285-15.1855L46.7285-18.8477Q51.416-19.0918 54.0771-21.4355Q56.7383-23.7793 56.7383-27.4902Q56.7383-30.4688 54.9805-32.5439Q53.2227-34.6191 50.4883-35.4492Q52.6367-36.4746 53.9062-38.4277Q55.1758-40.3809 55.1758-42.7734Q55.1758-46.0938 52.8564-48.2666Q50.5371-50.4395 46.7285-50.7324L46.7285-54.0527Q46.7285-55.127 45.752-55.127Q44.7266-55.127 44.7266-54.0527L44.7266-50.7812L41.9922-50.7812L41.9922-54.0527Q41.9922-55.127 41.0156-55.127Q39.9902-55.127 39.9902-54.0527L39.9902-50.7812L36.4258-50.7812Q35.8398-50.7812 35.4736-50.4395Q35.1074-50.0977 35.1074-49.5605ZM37.1582-20.9473L37.1582-34.3262L45.2637-34.3262Q49.6094-34.3262 52.124-32.5195Q54.6387-30.7129 54.6387-27.4902Q54.6387-24.4629 52.2217-22.7051Q49.8047-20.9473 45.7031-20.9473ZM37.1582-36.3281L37.1582-48.8281L45.3613-48.8281Q48.7305-48.8281 50.8301-47.1924Q52.9297-45.5566 52.9297-42.8223Q52.9297-39.8438 50.7568-38.0859Q48.584-36.3281 45.166-36.3281Z"/>
  </g>
 </g>
</svg>
