<svg id="visual" viewBox="0 0 900 1600" width="900" height="1600" xmlns="http://www.w3.org/2000/svg" xmlns:xlink="http://www.w3.org/1999/xlink" version="1.1"><rect x="0" y="0" width="900" height="1600" fill="#001220"></rect><defs><linearGradient id="grad1_0" x1="0%" y1="0%" x2="100%" y2="100%"><stop offset="30%" stop-color="#001220" stop-opacity="1"></stop><stop offset="70%" stop-color="#001220" stop-opacity="1"></stop></linearGradient></defs><defs><linearGradient id="grad2_0" x1="0%" y1="0%" x2="100%" y2="100%"><stop offset="30%" stop-color="#001220" stop-opacity="1"></stop><stop offset="70%" stop-color="#001220" stop-opacity="1"></stop></linearGradient></defs><g transform="translate(900, 0)"><path d="M0 765C-98.4 753.7 -196.8 742.5 -292.8 706.8C-388.7 671.1 -482.2 610.9 -528.9 528.9C-575.6 447 -575.4 343.2 -607 251.4C-638.5 159.6 -701.8 79.8 -765 0L0 0Z" fill="#FBAE3C"></path></g><g transform="translate(0, 1600)"><path d="M0 -765C95 -748.1 190.1 -731.1 289.7 -699.4C389.3 -667.6 493.5 -621.1 540.9 -540.9C588.4 -460.8 579.1 -347.2 607 -251.4C634.9 -155.7 699.9 -77.8 765 0L0 0Z" fill="#FBAE3C"></path></g></svg>