<?xml version="1.0" encoding="UTF-8"?>
<!--Generator: Apple Native CoreSVG 175-->
<!DOCTYPE svg
PUBLIC "-//W3C//DTD SVG 1.1//EN"
       "http://www.w3.org/Graphics/SVG/1.1/DTD/svg11.dtd">
<svg version="1.1" xmlns="http://www.w3.org/2000/svg" xmlns:xlink="http://www.w3.org/1999/xlink" width="3300" height="2200">
 <!--glyph: "uni100579.medium", point size: 100.0, font version: "17.3d3e1", template writer version: "65.1"-->
 <g id="Notes">
  <rect height="2200" id="artboard" style="fill:white;opacity:1" width="3300" x="0" y="0"/>
  <line style="fill:none;stroke:black;opacity:1;stroke-width:0.5;" x1="263" x2="3036" y1="292" y2="292"/>
  <text style="stroke:none;fill:black;font-family:sans-serif;font-size:13;font-weight:bold;" transform="matrix(1 0 0 1 263 322)">Weight/Scale Variations</text>
  <text style="stroke:none;fill:black;font-family:sans-serif;font-size:13;text-anchor:middle;" transform="matrix(1 0 0 1 559.711 322)">Ultralight</text>
  <text style="stroke:none;fill:black;font-family:sans-serif;font-size:13;text-anchor:middle;" transform="matrix(1 0 0 1 856.422 322)">Thin</text>
  <text style="stroke:none;fill:black;font-family:sans-serif;font-size:13;text-anchor:middle;" transform="matrix(1 0 0 1 1153.13 322)">Light</text>
  <text style="stroke:none;fill:black;font-family:sans-serif;font-size:13;text-anchor:middle;" transform="matrix(1 0 0 1 1449.84 322)">Regular</text>
  <text style="stroke:none;fill:black;font-family:sans-serif;font-size:13;text-anchor:middle;" transform="matrix(1 0 0 1 1746.56 322)">Medium</text>
  <text style="stroke:none;fill:black;font-family:sans-serif;font-size:13;text-anchor:middle;" transform="matrix(1 0 0 1 2043.27 322)">Semibold</text>
  <text style="stroke:none;fill:black;font-family:sans-serif;font-size:13;text-anchor:middle;" transform="matrix(1 0 0 1 2339.98 322)">Bold</text>
  <text style="stroke:none;fill:black;font-family:sans-serif;font-size:13;text-anchor:middle;" transform="matrix(1 0 0 1 2636.69 322)">Heavy</text>
  <text style="stroke:none;fill:black;font-family:sans-serif;font-size:13;text-anchor:middle;" transform="matrix(1 0 0 1 2933.4 322)">Black</text>
  <line style="fill:none;stroke:black;opacity:1;stroke-width:0.5;" x1="263" x2="3036" y1="1903" y2="1903"/>
  <g transform="matrix(1 0 0 1 263 1933)">
   <path d="M9.24805 0.830078Q10.8691 0.830078 12.2949 0.214844Q13.7207-0.400391 14.8096-1.49414Q15.8984-2.58789 16.5186-4.01367Q17.1387-5.43945 17.1387-7.05078Q17.1387-8.66211 16.5186-10.0879Q15.8984-11.5137 14.8047-12.6074Q13.7109-13.7012 12.2852-14.3164Q10.8594-14.9316 9.23828-14.9316Q7.62695-14.9316 6.20117-14.3164Q4.77539-13.7012 3.69141-12.6074Q2.60742-11.5137 1.9873-10.0879Q1.36719-8.66211 1.36719-7.05078Q1.36719-5.43945 1.9873-4.01367Q2.60742-2.58789 3.69629-1.49414Q4.78516-0.400391 6.21094 0.214844Q7.63672 0.830078 9.24805 0.830078ZM9.24805-0.654297Q7.91992-0.654297 6.7627-1.14746Q5.60547-1.64062 4.73145-2.51953Q3.85742-3.39844 3.36426-4.56055Q2.87109-5.72266 2.87109-7.05078Q2.87109-8.37891 3.35938-9.54102Q3.84766-10.7031 4.72168-11.582Q5.5957-12.4609 6.75293-12.9541Q7.91016-13.4473 9.23828-13.4473Q10.5762-13.4473 11.7334-12.9541Q12.8906-12.4609 13.7695-11.582Q14.6484-10.7031 15.1465-9.54102Q15.6445-8.37891 15.6445-7.05078Q15.6445-5.72266 15.1514-4.56055Q14.6582-3.39844 13.7842-2.51953Q12.9102-1.64062 11.748-1.14746Q10.5859-0.654297 9.24805-0.654297ZM5.6543-7.05078Q5.6543-6.72852 5.85938-6.52832Q6.06445-6.32812 6.40625-6.32812L8.51562-6.32812L8.51562-4.20898Q8.51562-3.88672 8.71094-3.67676Q8.90625-3.4668 9.23828-3.4668Q9.56055-3.4668 9.77051-3.67676Q9.98047-3.88672 9.98047-4.20898L9.98047-6.32812L12.0898-6.32812Q12.4219-6.32812 12.627-6.52832Q12.832-6.72852 12.832-7.05078Q12.832-7.38281 12.627-7.58789Q12.4219-7.79297 12.0898-7.79297L9.98047-7.79297L9.98047-9.90234Q9.98047-10.2344 9.77051-10.4443Q9.56055-10.6543 9.23828-10.6543Q8.90625-10.6543 8.71094-10.4443Q8.51562-10.2344 8.51562-9.90234L8.51562-7.79297L6.40625-7.79297Q6.06445-7.79297 5.85938-7.58789Q5.6543-7.38281 5.6543-7.05078Z"/>
  </g>
  <g transform="matrix(1 0 0 1 281.867 1933)">
   <path d="M11.709 2.91016Q13.75 2.91016 15.5518 2.12891Q17.3535 1.34766 18.7305-0.0292969Q20.1074-1.40625 20.8887-3.20801Q21.6699-5.00977 21.6699-7.05078Q21.6699-9.0918 20.8887-10.8936Q20.1074-12.6953 18.7305-14.0723Q17.3535-15.4492 15.5469-16.2305Q13.7402-17.0117 11.6992-17.0117Q9.6582-17.0117 7.85645-16.2305Q6.05469-15.4492 4.68262-14.0723Q3.31055-12.6953 2.5293-10.8936Q1.74805-9.0918 1.74805-7.05078Q1.74805-5.00977 2.5293-3.20801Q3.31055-1.40625 4.6875-0.0292969Q6.06445 1.34766 7.86621 2.12891Q9.66797 2.91016 11.709 2.91016ZM11.709 1.25Q9.98047 1.25 8.47656 0.605469Q6.97266-0.0390625 5.83496-1.17676Q4.69727-2.31445 4.05762-3.81836Q3.41797-5.32227 3.41797-7.05078Q3.41797-8.7793 4.05762-10.2832Q4.69727-11.7871 5.83008-12.9297Q6.96289-14.0723 8.4668-14.7119Q9.9707-15.3516 11.6992-15.3516Q13.4277-15.3516 14.9316-14.7119Q16.4355-14.0723 17.5781-12.9297Q18.7207-11.7871 19.3652-10.2832Q20.0098-8.7793 20.0098-7.05078Q20.0098-5.32227 19.3701-3.81836Q18.7305-2.31445 17.5928-1.17676Q16.4551-0.0390625 14.9463 0.605469Q13.4375 1.25 11.709 1.25ZM7.17773-7.05078Q7.17773-6.69922 7.41211-6.47461Q7.64648-6.25 8.01758-6.25L10.8887-6.25L10.8887-3.36914Q10.8887-2.99805 11.1133-2.76855Q11.3379-2.53906 11.6895-2.53906Q12.0605-2.53906 12.29-2.76855Q12.5195-2.99805 12.5195-3.36914L12.5195-6.25L15.4004-6.25Q15.7715-6.25 16.001-6.47461Q16.2305-6.69922 16.2305-7.05078Q16.2305-7.42188 16.001-7.65137Q15.7715-7.88086 15.4004-7.88086L12.5195-7.88086L12.5195-10.752Q12.5195-11.1328 12.29-11.3623Q12.0605-11.5918 11.6895-11.5918Q11.3379-11.5918 11.1133-11.3574Q10.8887-11.123 10.8887-10.752L10.8887-7.88086L8.01758-7.88086Q7.63672-7.88086 7.40723-7.65137Q7.17773-7.42188 7.17773-7.05078Z"/>
  </g>
  <g transform="matrix(1 0 0 1 305.646 1933)">
   <path d="M14.9707 5.66406Q17.0605 5.66406 18.96 5.01465Q20.8594 4.36523 22.4512 3.19336Q24.043 2.02148 25.2197 0.429688Q26.3965-1.16211 27.0459-3.06641Q27.6953-4.9707 27.6953-7.05078Q27.6953-9.14062 27.0459-11.04Q26.3965-12.9395 25.2197-14.5312Q24.043-16.123 22.4512-17.2998Q20.8594-18.4766 18.9551-19.126Q17.0508-19.7754 14.9609-19.7754Q12.8711-19.7754 10.9717-19.126Q9.07227-18.4766 7.48535-17.2998Q5.89844-16.123 4.72168-14.5312Q3.54492-12.9395 2.90039-11.04Q2.25586-9.14062 2.25586-7.05078Q2.25586-4.9707 2.90527-3.06641Q3.55469-1.16211 4.72656 0.429688Q5.89844 2.02148 7.49023 3.19336Q9.08203 4.36523 10.9814 5.01465Q12.8809 5.66406 14.9707 5.66406ZM14.9707 3.84766Q13.1641 3.84766 11.5283 3.2959Q9.89258 2.74414 8.53516 1.74805Q7.17773 0.751953 6.17676-0.610352Q5.17578-1.97266 4.62891-3.6084Q4.08203-5.24414 4.08203-7.05078Q4.08203-8.86719 4.62891-10.5029Q5.17578-12.1387 6.17188-13.501Q7.16797-14.8633 8.52539-15.8594Q9.88281-16.8555 11.5186-17.4023Q13.1543-17.9492 14.9609-17.9492Q16.7773-17.9492 18.4131-17.4023Q20.0488-16.8555 21.4111-15.8594Q22.7734-14.8633 23.7695-13.501Q24.7656-12.1387 25.3174-10.5029Q25.8691-8.86719 25.8691-7.05078Q25.8789-5.24414 25.332-3.6084Q24.7852-1.97266 23.7842-0.610352Q22.7832 0.751953 21.4209 1.74805Q20.0586 2.74414 18.4229 3.2959Q16.7871 3.84766 14.9707 3.84766ZM9.19922-7.05078Q9.19922-6.66992 9.45801-6.4209Q9.7168-6.17188 10.1172-6.17188L14.0625-6.17188L14.0625-2.2168Q14.0625-1.81641 14.3115-1.55762Q14.5605-1.29883 14.9512-1.29883Q15.3516-1.29883 15.6104-1.55273Q15.8691-1.80664 15.8691-2.2168L15.8691-6.17188L19.8242-6.17188Q20.2246-6.17188 20.4785-6.4209Q20.7324-6.66992 20.7324-7.05078Q20.7324-7.46094 20.4785-7.71484Q20.2246-7.96875 19.8242-7.96875L15.8691-7.96875L15.8691-11.9141Q15.8691-12.3242 15.6104-12.583Q15.3516-12.8418 14.9512-12.8418Q14.5605-12.8418 14.3115-12.583Q14.0625-12.3242 14.0625-11.9141L14.0625-7.96875L10.1172-7.96875Q9.70703-7.96875 9.45312-7.71484Q9.19922-7.46094 9.19922-7.05078Z"/>
  </g>
  <text style="stroke:none;fill:black;font-family:sans-serif;font-size:13;font-weight:bold;" transform="matrix(1 0 0 1 263 1953)">Design Variations</text>
  <text style="stroke:none;fill:black;font-family:sans-serif;font-size:13;" transform="matrix(1 0 0 1 263 1971)">Symbols are supported in up to nine weights and three scales.</text>
  <text style="stroke:none;fill:black;font-family:sans-serif;font-size:13;" transform="matrix(1 0 0 1 263 1989)">For optimal layout with text and other symbols, vertically align</text>
  <text style="stroke:none;fill:black;font-family:sans-serif;font-size:13;" transform="matrix(1 0 0 1 263 2007)">symbols with the adjacent text.</text>
  <line style="fill:none;stroke:#00AEEF;stroke-width:0.5;opacity:1.0;" x1="776" x2="776" y1="1919" y2="1933"/>
  <g transform="matrix(1 0 0 1 776 1933)">
   <path d="M3.31055 0.15625Q3.70117 0.15625 3.91602-0.00976562Q4.13086-0.175781 4.26758-0.585938L5.52734-4.0332L11.2891-4.0332L12.5488-0.585938Q12.6855-0.175781 12.9004-0.00976562Q13.1152 0.15625 13.4961 0.15625Q13.8867 0.15625 14.1162-0.0585938Q14.3457-0.273438 14.3457-0.644531Q14.3457-0.869141 14.2383-1.17188L9.6582-13.3691Q9.48242-13.8184 9.17969-14.043Q8.87695-14.2676 8.4082-14.2676Q7.5-14.2676 7.17773-13.3789L2.59766-1.16211Q2.49023-0.859375 2.49023-0.634766Q2.49023-0.263672 2.70996-0.0537109Q2.92969 0.15625 3.31055 0.15625ZM6.00586-5.51758L8.37891-12.0898L8.42773-12.0898L10.8008-5.51758Z"/>
  </g>
  <line style="fill:none;stroke:#00AEEF;stroke-width:0.5;opacity:1.0;" x1="793.197" x2="793.197" y1="1919" y2="1933"/>
  <text style="stroke:none;fill:black;font-family:sans-serif;font-size:13;font-weight:bold;" transform="matrix(1 0 0 1 776 1953)">Margins</text>
  <text style="stroke:none;fill:black;font-family:sans-serif;font-size:13;" transform="matrix(1 0 0 1 776 1971)">Leading and trailing margins on the left and right side of each symbol</text>
  <text style="stroke:none;fill:black;font-family:sans-serif;font-size:13;" transform="matrix(1 0 0 1 776 1989)">can be adjusted by modifying the x-location of the margin guidelines.</text>
  <text style="stroke:none;fill:black;font-family:sans-serif;font-size:13;" transform="matrix(1 0 0 1 776 2007)">Modifications are automatically applied proportionally to all</text>
  <text style="stroke:none;fill:black;font-family:sans-serif;font-size:13;" transform="matrix(1 0 0 1 776 2025)">scales and weights.</text>
  <g transform="matrix(1 0 0 1 1289 1933)">
   <path d="M2.8418 1.86523L4.54102 3.57422Q5.18555 4.22852 5.90332 4.17969Q6.62109 4.13086 7.31445 3.35938L18.0078-8.42773L17.041-9.4043L6.42578 2.27539Q6.16211 2.57812 5.89355 2.61719Q5.625 2.65625 5.27344 2.30469L4.10156 1.14258Q3.75 0.791016 3.79395 0.522461Q3.83789 0.253906 4.14062-0.0195312L15.6152-10.8203L14.6387-11.7871L3.04688-0.898438Q2.30469-0.214844 2.25098 0.498047Q2.19727 1.21094 2.8418 1.86523ZM9.25781-16.3281Q8.94531-16.0254 8.90625-15.6348Q8.86719-15.2441 9.04297-14.9512Q9.21875-14.6777 9.55566-14.541Q9.89258-14.4043 10.3809-14.5215Q11.4746-14.7754 12.5977-14.7314Q13.7207-14.6875 14.7949-13.9844L14.209-12.5293Q13.9551-11.9043 14.0674-11.4404Q14.1797-10.9766 14.5801-10.5664L16.875-8.25195Q17.2363-7.88086 17.5781-7.82227Q17.9199-7.76367 18.3398-7.8418L19.4043-8.03711L20.0684-7.36328L20.0293-6.80664Q20-6.43555 20.1221-6.12305Q20.2441-5.81055 20.6055-5.44922L21.3672-4.70703Q21.7285-4.3457 22.1533-4.33105Q22.5781-4.31641 22.9297-4.66797L25.8398-7.58789Q26.1914-7.93945 26.1816-8.35449Q26.1719-8.76953 25.8105-9.13086L25.0391-9.89258Q24.6875-10.2539 24.3799-10.3857Q24.0723-10.5176 23.7109-10.4883L23.1348-10.4395L22.4902-11.0742L22.7344-12.1973Q22.832-12.6172 22.6953-12.9834Q22.5586-13.3496 22.1191-13.7891L19.9219-15.9766Q18.6719-17.2168 17.2607-17.8369Q15.8496-18.457 14.4189-18.4814Q12.9883-18.5059 11.665-17.959Q10.3418-17.4121 9.25781-16.3281ZM10.752-15.957Q11.6602-16.6211 12.7002-16.9043Q13.7402-17.1875 14.8047-17.085Q15.8691-16.9824 16.8701-16.5137Q17.8711-16.0449 18.7012-15.2051L21.1328-12.793Q21.3086-12.6172 21.3525-12.4512Q21.3965-12.2852 21.3379-12.0312L21.0156-10.5469L22.5195-9.0625L23.5059-9.12109Q23.6914-9.13086 23.7891-9.09668Q23.8867-9.0625 24.0332-8.91602L24.6094-8.33984L22.168-5.89844L21.5918-6.47461Q21.4453-6.62109 21.4062-6.71875Q21.3672-6.81641 21.377-7.01172L21.4453-7.98828L19.9512-9.47266L18.4277-9.21875Q18.1836-9.16992 18.042-9.2041Q17.9004-9.23828 17.7148-9.41406L15.7129-11.416Q15.5176-11.5918 15.4932-11.7529Q15.4688-11.9141 15.5859-12.1875L16.4648-14.2773Q15.293-15.3711 13.8281-15.791Q12.3633-16.2109 10.8398-15.7617Q10.7227-15.7324 10.6885-15.8057Q10.6543-15.8789 10.752-15.957Z"/>
  </g>
  <text style="stroke:none;fill:black;font-family:sans-serif;font-size:13;font-weight:bold;" transform="matrix(1 0 0 1 1289 1953)">Exporting</text>
  <text style="stroke:none;fill:black;font-family:sans-serif;font-size:13;" transform="matrix(1 0 0 1 1289 1971)">Symbols should be outlined when exporting to ensure the</text>
  <text style="stroke:none;fill:black;font-family:sans-serif;font-size:13;" transform="matrix(1 0 0 1 1289 1989)">design is preserved when submitting to Xcode.</text>
  <text id="template-version" style="stroke:none;fill:black;font-family:sans-serif;font-size:13;text-anchor:end;" transform="matrix(1 0 0 1 3036 1933)">Template v.3.0</text>
  <text style="stroke:none;fill:black;font-family:sans-serif;font-size:13;text-anchor:end;" transform="matrix(1 0 0 1 3036 1951)">Requires Xcode 13 or greater</text>
  <text id="descriptive-name" style="stroke:none;fill:black;font-family:sans-serif;font-size:13;text-anchor:end;" transform="matrix(1 0 0 1 3036 1969)">Generated from doc.text.magnifyingglass</text>
  <text style="stroke:none;fill:black;font-family:sans-serif;font-size:13;text-anchor:end;" transform="matrix(1 0 0 1 3036 1987)">Typeset at 100 points</text>
  <text style="stroke:none;fill:black;font-family:sans-serif;font-size:13;" transform="matrix(1 0 0 1 263 726)">Small</text>
  <text style="stroke:none;fill:black;font-family:sans-serif;font-size:13;" transform="matrix(1 0 0 1 263 1156)">Medium</text>
  <text style="stroke:none;fill:black;font-family:sans-serif;font-size:13;" transform="matrix(1 0 0 1 263 1586)">Large</text>
 </g>
 <g id="Guides">
  <g id="H-reference" style="fill:#27AAE1;stroke:none;" transform="matrix(1 0 0 1 339 696)">
   <path d="M0.993347 0L3.6377 0L29.3282-67.1326L30.0301-67.1326L30.0301-70.459L28.1227-70.459ZM11.6882-24.4797L46.9818-24.4797L46.2311-26.7288L12.4382-26.7288ZM55.1193 0L57.7637 0L30.6381-70.459L29.4327-70.459L29.4327-67.1326Z"/>
  </g>
  <line id="Baseline-S" style="fill:none;stroke:#27AAE1;opacity:1;stroke-width:0.5;" x1="263" x2="3036" y1="696" y2="696"/>
  <line id="Capline-S" style="fill:none;stroke:#27AAE1;opacity:1;stroke-width:0.5;" x1="263" x2="3036" y1="625.541" y2="625.541"/>
  <g id="H-reference" style="fill:#27AAE1;stroke:none;" transform="matrix(1 0 0 1 339 1126)">
   <path d="M0.993347 0L3.6377 0L29.3282-67.1326L30.0301-67.1326L30.0301-70.459L28.1227-70.459ZM11.6882-24.4797L46.9818-24.4797L46.2311-26.7288L12.4382-26.7288ZM55.1193 0L57.7637 0L30.6381-70.459L29.4327-70.459L29.4327-67.1326Z"/>
  </g>
  <line id="Baseline-M" style="fill:none;stroke:#27AAE1;opacity:1;stroke-width:0.5;" x1="263" x2="3036" y1="1126" y2="1126"/>
  <line id="Capline-M" style="fill:none;stroke:#27AAE1;opacity:1;stroke-width:0.5;" x1="263" x2="3036" y1="1055.54" y2="1055.54"/>
  <g id="H-reference" style="fill:#27AAE1;stroke:none;" transform="matrix(1 0 0 1 339 1556)">
   <path d="M0.993347 0L3.6377 0L29.3282-67.1326L30.0301-67.1326L30.0301-70.459L28.1227-70.459ZM11.6882-24.4797L46.9818-24.4797L46.2311-26.7288L12.4382-26.7288ZM55.1193 0L57.7637 0L30.6381-70.459L29.4327-70.459L29.4327-67.1326Z"/>
  </g>
  <line id="Baseline-L" style="fill:none;stroke:#27AAE1;opacity:1;stroke-width:0.5;" x1="263" x2="3036" y1="1556" y2="1556"/>
  <line id="Capline-L" style="fill:none;stroke:#27AAE1;opacity:1;stroke-width:0.5;" x1="263" x2="3036" y1="1485.54" y2="1485.54"/>
  <line id="left-margin-Regular-M" style="fill:none;stroke:#00AEEF;stroke-width:0.5;opacity:1.0;" x1="1396.32" x2="1396.32" y1="1030.79" y2="1150.12"/>
  <line id="right-margin-Regular-M" style="fill:none;stroke:#00AEEF;stroke-width:0.5;opacity:1.0;" x1="1503.37" x2="1503.37" y1="1030.79" y2="1150.12"/>
 </g>
 <g id="Symbols">
  <g id="Black-L" transform="matrix(1 0 0 1 2859.72 1556)">
   <path d="M39.7724 32.8001L78.7085 32.8001Q74.8688 28.7772 72.3817 23.6553Q69.8947 18.5335 69.1523 12.8191L42.628 12.8191Q39.2031 12.8191 37.634 11.1826Q36.065 9.54617 36.065 6.33932L36.065-81.4991Q36.065-84.7607 37.6236-86.3906Q39.1823-88.0204 42.628-88.0204L104.738-88.0204Q108.18-88.0204 109.731-86.3924Q111.282-84.7643 111.282-81.4991L111.282-29.3894Q116.995-28.7042 122.117-26.2276Q127.24-23.7509 131.282-19.9124L131.282-84.2298Q131.282-95.5974 125.091-101.799Q118.9-108.001 107.573-108.001L39.7724-108.001Q28.4476-108.001 22.2658-101.789Q16.084-95.5766 16.084-84.2298L16.084 9.02842Q16.084 20.396 22.2652 26.598Q28.4464 32.8001 39.7724 32.8001ZM53.527-62.5072L93.9184-62.5072Q95.8097-62.5072 97.0734-63.8106Q98.3372-65.1139 98.3372-67.0041Q98.3372-68.8358 97.0734-70.0897Q95.8097-71.3437 93.9184-71.3437L53.527-71.3437Q51.5576-71.3437 50.2933-70.0897Q49.029-68.8358 49.029-67.0041Q49.029-65.1139 50.2933-63.8106Q51.5576-62.5072 53.527-62.5072ZM53.527-42.4948L93.9184-42.4948Q95.8097-42.4948 97.0734-43.7982Q98.3372-45.1016 98.3372-46.9917Q98.3372-48.8026 97.0734-50.0663Q95.8097-51.3301 93.9184-51.3301L53.527-51.3301Q51.5576-51.3301 50.2933-50.0663Q49.029-48.8026 49.029-46.9917Q49.029-45.1016 50.2933-43.7982Q51.5576-42.4948 53.527-42.4948ZM105.216 32.8001Q112.435 32.8001 118.358 29.2699Q124.281 25.7397 127.811 19.7879Q131.341 13.836 131.341 6.67446Q131.341-0.485932 127.811-6.39038Q124.281-12.2948 118.358-15.8438Q112.435-19.3928 105.216-19.3928Q98.1129-19.3928 92.1897-15.8334Q86.2665-12.274 82.6973-6.36957Q79.1281-0.465125 79.1281 6.67446Q79.1281 13.836 82.6973 19.7879Q86.2665 25.7397 92.1897 29.2699Q98.1129 32.8001 105.216 32.8001ZM105.216 21.1746Q101.249 21.1746 97.9446 19.2315Q94.6398 17.2883 92.6675 13.994Q90.6951 10.6996 90.6951 6.67446Q90.6951 2.6701 92.6675-0.594444Q94.6398-3.85899 97.9446-5.80275Q101.249-7.74651 105.216-7.74651Q109.22-7.74651 112.514-5.80275Q115.808-3.85899 117.741-0.594444Q119.673 2.6701 119.673 6.67446Q119.673 10.6996 117.741 13.994Q115.808 17.2883 112.514 19.2315Q109.22 21.1746 105.216 21.1746ZM133.971 43.5353Q137.179 43.5353 139.366 41.3278Q141.553 39.1202 141.553 35.7722Q141.553 32.527 139.288 30.2621L124.183 15.1559L112.967 26.0601L128.172 41.1871Q130.638 43.5353 133.971 43.5353Z"/>
  </g>
  <g id="Heavy-L" transform="matrix(1 0 0 1 2564.15 1556)">
   <path d="M38.7107 32.1047L76.872 32.1047Q73.3776 28.5605 71.007 24.0839Q68.6364 19.6073 67.7176 14.6043L41.0161 14.6043Q37.2144 14.6043 35.3994 12.7497Q33.5844 10.8951 33.5844 7.29336L33.5844-82.4255Q33.5844-86.0551 35.3843-87.926Q37.1843-89.7968 41.0161-89.7968L104.058-89.7968Q107.844-89.7968 109.655-87.9344Q111.465-86.0719 111.465-82.4255L111.465-29.2182Q116.463-28.3384 120.942-25.9828Q125.421-23.6273 128.99-20.1385L128.99-84.5498Q128.99-95.523 123.121-101.41Q117.252-107.297 106.333-107.297L38.7107-107.297Q27.8035-107.297 21.9437-101.395Q16.084-95.4928 16.084-84.5498L16.084 9.35722Q16.084 20.3305 21.941 26.2176Q27.7979 32.1047 38.7107 32.1047ZM51.4506-64.25L93.6983-64.25Q95.514-64.25 96.7267-65.5001Q97.9395-66.7502 97.9395-68.5604Q97.9395-70.3258 96.7267-71.5262Q95.514-72.7267 93.6983-72.7267L51.4506-72.7267Q49.5658-72.7267 48.3503-71.5262Q47.1348-70.3258 47.1348-68.5604Q47.1348-66.7502 48.3503-65.5001Q49.5658-64.25 51.4506-64.25ZM51.4506-43.7701L93.6983-43.7701Q95.514-43.7701 96.7267-45.0202Q97.9395-46.2703 97.9395-48.0804Q97.9395-49.8156 96.7267-51.0283Q95.514-52.241 93.6983-52.241L51.4506-52.241Q49.5658-52.241 48.3503-51.0283Q47.1348-49.8156 47.1348-48.0804Q47.1348-46.2703 48.3503-45.0202Q49.5658-43.7701 51.4506-43.7701ZM102.51 32.1047Q109.834 32.1047 115.85 28.5175Q121.866 24.9303 125.45 18.8948Q129.035 12.8592 129.035 5.57433Q129.035-1.70502 125.45-7.71385Q121.866-13.7227 115.85-17.3171Q109.834-20.9115 102.51-20.9115Q95.2697-20.9115 89.2537-17.302Q83.2377-13.6925 79.6159-7.68371Q75.9941-1.67488 75.9941 5.57433Q75.9941 12.8592 79.6159 18.8948Q83.2377 24.9303 89.2537 28.5175Q95.2697 32.1047 102.51 32.1047ZM102.51 21.2307Q98.2174 21.2307 94.6488 19.1246Q91.0802 17.0185 88.9518 13.465Q86.8234 9.91157 86.8234 5.57433Q86.8234 1.26723 88.9518-2.26115Q91.0802-5.78953 94.6488-7.89841Q98.2174-10.0073 102.51-10.0073Q106.817-10.0073 110.368-7.89841Q113.918-5.78953 116.01-2.26115Q118.101 1.26723 118.101 5.57433Q118.101 9.91157 116.01 13.465Q113.918 17.0185 110.368 19.1246Q106.817 21.2307 102.51 21.2307ZM132.494 43.0257Q135.431 43.0257 137.425 41.0015Q139.419 38.9774 139.419 35.8871Q139.419 32.9419 137.294 30.8171L121.62 15.1376L111.263 25.0704L127.042 40.7801Q129.383 43.0257 132.494 43.0257Z"/>
  </g>
  <g id="Bold-L" transform="matrix(1 0 0 1 2268.83 1556)">
   <path d="M37.3893 31.2813L75.1416 31.2813Q72.0922 28.3289 69.8974 24.6477Q67.7026 20.9665 66.6132 16.8395L39.063 16.8395Q34.7703 16.8395 32.648 14.7048Q30.5258 12.5701 30.5258 8.45426L30.5258-83.5556Q30.5258-87.661 32.6291-89.8389Q34.7324-92.0169 39.063-92.0169L103.228-92.0169Q107.474-92.0169 109.607-89.8587Q111.741-87.7006 111.741-83.5556L111.741-28.3548Q115.854-27.2814 119.542-25.1055Q123.23-22.9296 126.207-19.8935L126.207-85.0014Q126.207-95.4532 120.73-100.956Q115.253-106.459 104.864-106.459L37.3893-106.459Q27.0268-106.459 21.5554-100.937Q16.084-95.4151 16.084-85.0014L16.084 9.82406Q16.084 20.2759 21.5488 25.7786Q27.0136 31.2813 37.3893 31.2813ZM48.9138-66.4539L93.4441-66.4539Q95.1378-66.4539 96.2667-67.6163Q97.3955-68.7787 97.3955-70.4593Q97.3955-72.1104 96.2667-73.2269Q95.1378-74.3434 93.4441-74.3434L48.9138-74.3434Q47.1663-74.3434 46.0309-73.2269Q44.8955-72.1104 44.8955-70.4593Q44.8955-68.7787 46.0309-67.6163Q47.1663-66.4539 48.9138-66.4539ZM48.9138-45.4348L93.4441-45.4348Q95.1378-45.4348 96.2667-46.5972Q97.3955-47.7596 97.3955-49.4402Q97.3955-51.0532 96.2667-52.1821Q95.1378-53.3109 93.4441-53.3109L48.9138-53.3109Q47.1663-53.3109 46.0309-52.1821Q44.8955-51.0532 44.8955-49.4402Q44.8955-47.7596 46.0309-46.5972Q47.1663-45.4348 48.9138-45.4348ZM99.4801 31.2813Q106.86 31.2813 112.932 27.6585Q119.004 24.0356 122.62 17.956Q126.236 11.8763 126.236 4.51231Q126.236-2.83854 122.62-8.91463Q119.004-14.9907 112.932-18.6092Q106.86-22.2277 99.4801-22.2277Q92.1454-22.2277 86.0737-18.5903Q80.0021-14.9528 76.3523-8.87675Q72.7025-2.80066 72.7025 4.51231Q72.7025 11.8763 76.3523 17.956Q80.0021 24.0356 86.0737 27.6585Q92.1454 31.2813 99.4801 31.2813ZM99.4801 21.4861Q94.8176 21.4861 90.9486 19.1951Q87.0795 16.9041 84.7739 13.054Q82.4682 9.20401 82.4682 4.51231Q82.4682-0.141503 84.7739-3.97037Q87.0795-7.79924 90.9486-10.0968Q94.8176-12.3944 99.4801-12.3944Q104.134-12.3944 107.977-10.0968Q111.821-7.79924 114.093-3.97037Q116.365-0.141503 116.365 4.51231Q116.365 9.20401 114.093 13.054Q111.821 16.9041 107.977 19.1951Q104.134 21.4861 99.4801 21.4861ZM130.725 42.3806Q133.309 42.3806 135.049 40.6018Q136.79 38.8231 136.79 36.0852Q136.79 33.5238 134.857 31.5906L118.603 15.3232L109.411 23.9901L125.77 40.2954Q127.927 42.3806 130.725 42.3806Z"/>
  </g>
  <g id="Semibold-L" transform="matrix(1 0 0 1 1973.08 1556)">
   <path d="M36.4783 30.7137L73.9487 30.7137Q71.2061 28.1692 69.1325 25.0364Q67.0588 21.9035 65.8519 18.3805L37.7166 18.3805Q33.0853 18.3805 30.7512 16.0526Q28.4171 13.7248 28.4171 9.25458L28.4171-84.3346Q28.4171-88.7681 30.7296-91.1577Q33.0421-93.5473 37.7166-93.5473L102.655-93.5473Q107.219-93.5473 109.574-91.1854Q111.93-88.8234 111.93-84.3346L111.93-27.7596Q115.434-26.5527 118.576-24.5006Q121.719-22.4486 124.288-19.7246L124.288-85.3127Q124.288-95.4051 119.081-100.643Q113.874-105.88 103.85-105.88L36.4783-105.88Q26.4913-105.88 21.2876-100.621Q16.084-95.3616 16.084-85.3127L16.084 10.1459Q16.084 20.2383 21.2785 25.476Q26.4729 30.7137 36.4783 30.7137ZM47.1649-67.9732L93.2689-67.9732Q94.8784-67.9732 95.9495-69.0751Q97.0205-70.1771 97.0205-71.7683Q97.0205-73.3407 95.9495-74.3993Q94.8784-75.4579 93.2689-75.4579L47.1649-75.4579Q45.5122-75.4579 44.432-74.3993Q43.3517-73.3407 43.3517-71.7683Q43.3517-70.1771 44.432-69.0751Q45.5122-67.9732 47.1649-67.9732ZM47.1649-46.5825L93.2689-46.5825Q94.8784-46.5825 95.9495-47.6844Q97.0205-48.7863 97.0205-50.3776Q97.0205-51.9064 95.9495-52.9775Q94.8784-54.0485 93.2689-54.0485L47.1649-54.0485Q45.5122-54.0485 44.432-52.9775Q43.3517-51.9064 43.3517-50.3776Q43.3517-48.7863 44.432-47.6844Q45.5122-46.5825 47.1649-46.5825ZM97.3914 30.7137Q104.81 30.7137 110.92 27.0663Q117.03 23.4188 120.668 17.3087Q124.307 11.1986 124.307 3.78016Q124.307-3.61999 120.668-9.74244Q117.03-15.8649 110.92-19.5Q104.81-23.1351 97.3914-23.1351Q89.9915-23.1351 83.8815-19.4784Q77.7715-15.8217 74.1024-9.69922Q70.4332-3.57677 70.4332 3.78016Q70.4332 11.1986 74.1024 17.3087Q77.7715 23.4188 83.8815 27.0663Q89.9915 30.7137 97.3914 30.7137ZM97.3914 21.6622Q92.4739 21.6622 88.3977 19.2437Q84.3214 16.8252 81.8936 12.7707Q79.4658 8.71622 79.4658 3.78016Q79.4658-1.11267 81.8936-5.14869Q84.3214-9.18471 88.3977-11.6124Q92.4739-14.0401 97.3914-14.0401Q102.284-14.0401 106.33-11.6124Q110.375-9.18471 112.772-5.14869Q115.169-1.11267 115.169 3.78016Q115.169 8.71622 112.772 12.7707Q110.375 16.8252 106.33 19.2437Q102.284 21.6622 97.3914 21.6622ZM129.506 41.9359Q131.846 41.9359 133.412 40.3262Q134.978 38.7166 134.978 36.2218Q134.978 33.925 133.177 32.1238L116.523 15.4512L108.134 23.2454L124.893 39.9612Q126.924 41.9359 129.506 41.9359Z"/>
  </g>
  <g id="Medium-L" transform="matrix(1 0 0 1 1677.1 1556)">
   <path d="M35.7875 30.2833L73.0441 30.2833Q70.5342 28.0481 68.5524 25.3311Q66.5707 22.614 65.2746 19.5489L36.6956 19.5489Q31.8077 19.5489 29.313 17.0746Q26.8183 14.6003 26.8183 9.86141L26.8183-84.9254Q26.8183-89.6076 29.2894-92.1577Q31.7604-94.7078 36.6956-94.7078L102.221-94.7078Q107.025-94.7078 109.55-92.1913Q112.074-89.6748 112.074-84.9254L112.074-27.3083Q115.116-26.0001 117.845-24.042Q120.573-22.0838 122.833-19.5966L122.833-85.5488Q122.833-95.3686 117.831-100.405Q112.829-105.442 103.082-105.442L35.7875-105.442Q26.0852-105.442 21.0846-100.382Q16.084-95.321 16.084-85.5488L16.084 10.3899Q16.084 20.2098 21.0735 25.2465Q26.063 30.2833 35.7875 30.2833ZM45.8388-69.1252L93.136-69.1252Q94.6818-69.1252 95.709-70.1813Q96.7362-71.2374 96.7362-72.7609Q96.7362-74.2736 95.709-75.2883Q94.6818-76.303 93.136-76.303L45.8388-76.303Q44.2579-76.303 43.2195-75.2883Q42.1812-74.2736 42.1812-72.7609Q42.1812-71.2374 43.2195-70.1813Q44.2579-69.1252 45.8388-69.1252ZM45.8388-47.4527L93.136-47.4527Q94.6818-47.4527 95.709-48.5088Q96.7362-49.5649 96.7362-51.0884Q96.7362-52.5534 95.709-53.5806Q94.6818-54.6078 93.136-54.6078L45.8388-54.6078Q44.2579-54.6078 43.2195-53.5806Q42.1812-52.5534 42.1812-51.0884Q42.1812-49.5649 43.2195-48.5088Q44.2579-47.4527 45.8388-47.4527ZM95.8076 30.2833Q103.256 30.2833 109.395 26.6172Q115.534 22.9512 119.189 16.818Q122.844 10.6848 122.844 3.22502Q122.844-4.21251 119.189-10.3701Q115.534-16.5277 109.395-20.1754Q103.256-23.8231 95.8076-23.8231Q88.3583-23.8231 82.2192-20.1518Q76.0802-16.4805 72.3964-10.3229Q68.7126-4.16525 68.7126 3.22502Q68.7126 10.6848 72.3964 16.818Q76.0802 22.9512 82.2192 26.6172Q88.3583 30.2833 95.8076 30.2833ZM95.8076 21.7957Q90.6967 21.7957 86.4634 19.2805Q82.2301 16.7653 79.7097 12.5558Q77.1892 8.34636 77.1892 3.22502Q77.1892-1.84905 79.7097-6.04215Q82.2301-10.2352 86.4634-12.7616Q90.6967-15.2879 95.8076-15.2879Q100.882-15.2879 105.08-12.7616Q109.278-10.2352 111.77-6.04215Q114.261-1.84905 114.261 3.22502Q114.261 8.34636 111.77 12.5558Q109.278 16.7653 105.08 19.2805Q100.882 21.7957 95.8076 21.7957ZM128.581 41.5987Q130.736 41.5987 132.17 40.1173Q133.604 38.6359 133.604 36.3253Q133.604 34.2291 131.903 32.5281L114.946 15.5482L107.166 22.6806L124.229 39.7078Q126.163 41.5987 128.581 41.5987Z"/>
  </g>
  <g id="Regular-L" transform="matrix(1 0 0 1 1381.33 1556)">
   <path d="M34.8865 29.7219L71.8643 29.7219Q69.6578 27.8901 67.7959 25.7154Q65.934 23.5408 64.5216 21.073L35.364 21.073Q30.1412 21.073 27.437 18.4077Q24.7329 15.7423 24.7329 10.6529L24.7329-85.6959Q24.7329-90.7025 27.4108-93.462Q30.0887-96.2214 35.364-96.2214L101.655-96.2214Q106.773-96.2214 109.517-93.5033Q112.262-90.7852 112.262-85.6959L112.262-26.7197Q114.701-25.2794 116.89-23.4438Q119.078-21.6081 120.935-19.4295L120.935-85.8567Q120.935-95.321 116.201-100.096Q111.466-104.87 102.08-104.87L34.8865-104.87Q25.5556-104.87 20.8198-100.069Q16.084-95.268 16.084-85.8567L16.084 10.7082Q16.084 20.1725 20.8061 24.9472Q25.5282 29.7219 34.8865 29.7219ZM44.1091-70.6278L92.9627-70.6278Q94.4253-70.6278 95.3953-71.6241Q96.3653-72.6204 96.3653-74.0556Q96.3653-75.4903 95.3953-76.4478Q94.4253-77.4053 92.9627-77.4053L44.1091-77.4053Q42.6219-77.4053 41.6381-76.4478Q40.6544-75.4903 40.6544-74.0556Q40.6544-72.6204 41.6381-71.6241Q42.6219-70.6278 44.1091-70.6278ZM44.1091-48.5877L92.9627-48.5877Q94.4253-48.5877 95.3953-49.584Q96.3653-50.5803 96.3653-52.0155Q96.3653-53.3972 95.3953-54.3672Q94.4253-55.3373 92.9627-55.3373L44.1091-55.3373Q42.6219-55.3373 41.6381-54.3672Q40.6544-53.3972 40.6544-52.0155Q40.6544-50.5803 41.6381-49.584Q42.6219-48.5877 44.1091-48.5877ZM93.7417 29.7219Q101.228 29.7219 107.405 26.0315Q113.582 22.3411 117.259 16.1779Q120.935 10.0146 120.935 2.50092Q120.935-4.98537 117.259-11.1888Q113.582-17.3923 107.405-21.0564Q101.228-24.7205 93.7417-24.7205Q86.228-24.7205 80.0511-21.0301Q73.8741-17.3398 70.1712-11.1363Q66.4683-4.93283 66.4683 2.50092Q66.4683 10.0146 70.1712 16.1779Q73.8741 22.3411 80.0511 26.0315Q86.228 29.7219 93.7417 29.7219ZM93.7417 21.9699Q88.3787 21.9699 83.9406 19.3286Q79.5024 16.6873 76.8611 12.2756Q74.2198 7.86393 74.2198 2.50092Q74.2198-2.80955 76.8611-7.20752Q79.5024-11.6055 83.9406-14.2605Q88.3787-16.9155 93.7417-16.9155Q99.0522-16.9155 103.45-14.2605Q107.848-11.6055 110.463-7.20752Q113.078-2.80955 113.078 2.50092Q113.078 7.86393 110.463 12.2756Q107.848 16.6873 103.45 19.3286Q99.0522 21.9699 93.7417 21.9699ZM127.374 41.1588Q129.289 41.1588 130.551 39.8447Q131.812 38.5307 131.812 36.4604Q131.812 34.6259 130.242 33.0554L112.889 15.6748L105.903 21.9441L123.361 39.3773Q125.171 41.1588 127.374 41.1588Z"/>
  </g>
  <g id="Light-L" transform="matrix(1 0 0 1 1085.41 1556)">
   <path d="M33.9323 29.3974L74.1737 29.3974Q72.3869 27.9664 70.8495 26.3167Q69.3121 24.6669 68.0905 22.7715L34.2953 22.7715Q28.5761 22.7715 25.643 19.8485Q22.7099 16.9255 22.7099 11.3209L22.7099-86.3638Q22.7099-91.8287 25.6263-94.8552Q28.5428-97.8818 34.2953-97.8818L101.159-97.8818Q106.811-97.8818 109.784-94.9251Q112.758-91.9685 112.758-86.3638L112.758-21.9294Q114.606-20.6607 116.279-19.1399Q117.952-17.6192 119.37-15.8796L119.37-86.5246Q119.37-95.4166 114.865-99.9621Q110.359-104.508 101.489-104.508L33.9323-104.508Q25.1548-104.508 20.6194-99.9451Q16.084-95.3825 16.084-86.5246L16.084 11.4143Q16.084 20.3063 20.5962 24.8518Q25.1085 29.3974 33.9323 29.3974ZM42.5822-72.4408L92.9053-72.4408Q94.1008-72.4408 94.88-73.2367Q95.6592-74.0326 95.6592-75.1818Q95.6592-76.3301 94.88-77.1159Q94.1008-77.9016 92.9053-77.9016L42.5822-77.9016Q41.4005-77.9016 40.5981-77.1159Q39.7957-76.3301 39.7957-75.1818Q39.7957-74.0326 40.5981-73.2367Q41.4005-72.4408 42.5822-72.4408ZM42.5822-50.2862L92.9053-50.2862Q94.1008-50.2862 94.88-51.0821Q95.6592-51.878 95.6592-53.0272Q95.6592-54.1415 94.88-54.9207Q94.1008-55.6999 92.9053-55.6999L42.5822-55.6999Q41.4005-55.6999 40.5981-54.9207Q39.7957-54.1415 39.7957-53.0272Q39.7957-51.878 40.5981-51.0821Q41.4005-50.2862 42.5822-50.2862ZM93.7225 29.3974Q100.771 29.3974 106.604 25.9074Q112.437 22.4174 115.904 16.6072Q119.37 10.797 119.37 3.70338Q119.37-3.34393 115.904-9.19436Q112.437-15.0448 106.604-18.5181Q100.771-21.9914 93.7225-21.9914Q86.6289-21.9914 80.7955-18.5014Q74.9621-15.0115 71.4787-9.16105Q67.9952-3.31063 67.9952 3.70338Q67.9952 10.797 71.4787 16.6072Q74.9621 22.4174 80.7955 25.9074Q86.6289 29.3974 93.7225 29.3974ZM93.7225 23.3439Q88.3213 23.3439 83.845 20.6835Q79.3687 18.0231 76.7083 13.5638Q74.0479 9.10455 74.0479 3.70338Q74.0479-1.66449 76.7083-6.10062Q79.3687-10.5367 83.845-13.2203Q88.3213-15.9038 93.7225-15.9038Q99.0904-15.9038 103.527-13.2203Q107.963-10.5367 110.606-6.10062Q113.25-1.66449 113.25 3.70338Q113.25 9.10455 110.606 13.5638Q107.963 18.0231 103.527 20.6835Q99.0904 23.3439 93.7225 23.3439ZM126.535 40.6243Q128.106 40.6243 129.1 39.5966Q130.094 38.5688 130.094 36.9568Q130.094 35.4657 128.772 34.1434L111.82 17.1443L106.285 22.1349L123.304 39.1673Q124.808 40.6243 126.535 40.6243Z"/>
  </g>
  <g id="Thin-L" transform="matrix(1 0 0 1 789.73 1556)">
   <path d="M32.6702 28.9682L77.228 28.9682Q75.9964 28.0674 74.8881 27.1118Q73.7799 26.1563 72.8107 25.0179L32.8818 25.0179Q26.5061 25.0179 23.2702 21.7542Q20.0343 18.4904 20.0343 12.2042L20.0343-87.2472Q20.0343-93.3181 23.2662-96.6979Q26.4982-100.078 32.8818-100.078L100.502-100.078Q106.861-100.078 110.138-96.8056Q113.415-93.5334 113.415-87.2472L113.415-15.5939Q114.479-14.5521 115.471-13.4478Q116.463-12.3434 117.3-11.1844L117.3-87.408Q117.3-95.5429 113.098-99.7855Q108.896-104.028 100.706-104.028L32.6702-104.028Q24.6247-104.028 20.3543-99.781Q16.084-95.5339 16.084-87.408L16.084 12.3482Q16.084 20.4831 20.3187 24.7256Q24.5534 28.9682 32.6702 28.9682ZM40.5626-74.8386L92.8294-74.8386Q93.6716-74.8386 94.1985-75.3695Q94.7254-75.9003 94.7254-76.6712Q94.7254-77.4408 94.1985-77.9995Q93.6716-78.5581 92.8294-78.5581L40.5626-78.5581Q39.7851-78.5581 39.2226-77.9995Q38.66-77.4408 38.66-76.6712Q38.66-75.9003 39.2226-75.3695Q39.7851-74.8386 40.5626-74.8386ZM40.5626-52.5327L92.8294-52.5327Q93.6716-52.5327 94.1985-53.0635Q94.7254-53.5943 94.7254-54.3652Q94.7254-55.1258 94.1985-55.6527Q93.6716-56.1796 92.8294-56.1796L40.5626-56.1796Q39.7851-56.1796 39.2226-55.6527Q38.66-55.1258 38.66-54.3652Q38.66-53.5943 39.2226-53.0635Q39.7851-52.5327 40.5626-52.5327ZM93.6971 28.9682Q100.165 28.9682 105.544 25.7433Q110.923 22.5184 114.112 17.1751Q117.3 11.8318 117.3 5.29373Q117.3-1.173 114.112-6.5565Q110.923-11.94 105.544-15.161Q100.165-18.3819 93.6971-18.3819Q87.159-18.3819 81.78-15.157Q76.4011-11.9321 73.2079-6.54864Q70.0147-1.16514 70.0147 5.29373Q70.0147 11.8318 73.2079 17.1751Q76.4011 22.5184 81.78 25.7433Q87.159 28.9682 93.6971 28.9682ZM93.6971 25.1611Q88.2454 25.1611 83.7186 22.4755Q79.1918 19.7899 76.5062 15.2676Q73.8206 10.7454 73.8206 5.29373Q73.8206-0.150054 76.5062-4.63665Q79.1918-9.12325 83.7186-11.8445Q88.2454-14.5658 93.6971-14.5658Q99.1408-14.5658 103.627-11.8445Q108.114-9.12325 110.796-4.63665Q113.477-0.150054 113.477 5.29373Q113.477 10.7454 110.796 15.2676Q108.114 19.7899 103.627 22.4755Q99.1408 25.1611 93.6971 25.1611ZM125.424 39.9173Q126.541 39.9173 127.182 39.2683Q127.822 38.6193 127.822 37.6133Q127.822 36.5764 126.828 35.5824L110.407 19.0879L106.789 22.3872L123.228 38.8895Q124.328 39.9173 125.424 39.9173Z"/>
  </g>
  <g id="Ultralight-L" transform="matrix(1 0 0 1 493.549 1556)">
   <path d="M32.0237 28.7484L78.7924 28.7484Q77.8451 28.1191 76.9567 27.5191Q76.0683 26.9192 75.2283 26.1685L32.1578 26.1685Q25.4458 26.1685 22.0548 22.7303Q18.6638 19.292 18.6638 12.6567L18.6638-87.6996Q18.6638-94.081 22.0574-97.6417Q25.451-101.203 32.1578-101.203L100.166-101.203Q106.887-101.203 110.319-97.7687Q113.751-94.3349 113.751-87.6996L113.751-12.3488Q114.415-11.4233 115.057-10.5323Q115.7-9.64124 116.24-8.7796L116.24-87.8605Q116.24-95.6077 112.193-99.695Q108.146-103.782 100.305-103.782L32.0237-103.782Q24.3532-103.782 20.2186-99.6969Q16.084-95.6114 16.084-87.8605L16.084 12.8265Q16.084 20.5737 20.1765 24.661Q24.269 28.7484 32.0237 28.7484ZM39.5283-76.0668L92.7905-76.0668Q93.4518-76.0668 93.8494-76.4619Q94.2471-76.8569 94.2471-77.434Q94.2471-78.0097 93.8494-78.4521Q93.4518-78.8944 92.7905-78.8944L39.5283-78.8944Q38.9578-78.8944 38.518-78.4521Q38.0783-78.0097 38.0783-77.434Q38.0783-76.8569 38.518-76.4619Q38.9578-76.0668 39.5283-76.0668ZM39.5283-53.6833L92.7905-53.6833Q93.4518-53.6833 93.8494-54.0783Q94.2471-54.4734 94.2471-55.0505Q94.2471-55.6299 93.8494-56.0276Q93.4518-56.4253 92.7905-56.4253L39.5283-56.4253Q38.9578-56.4253 38.518-56.0276Q38.0783-55.6299 38.0783-55.0505Q38.0783-54.4734 38.518-54.0783Q38.9578-53.6833 39.5283-53.6833ZM93.684 28.7484Q99.8548 28.7484 105.001 25.6592Q110.147 22.5701 113.194 17.4659Q116.24 12.3618 116.24 6.1083Q116.24-0.0610571 113.194-5.2054Q110.147-10.3497 105.001-13.4415Q99.8548-16.5332 93.684-16.5332Q87.4305-16.5332 82.2843-13.4441Q77.1381-10.3549 74.0936-5.21058Q71.0491-0.0662351 71.0491 6.1083Q71.0491 12.3618 74.0936 17.4659Q77.1381 22.5701 82.2843 25.6592Q87.4305 28.7484 93.684 28.7484ZM93.684 26.0919Q88.2065 26.0919 83.6539 23.3934Q79.1012 20.6948 76.4027 16.1403Q73.7042 11.5858 73.7042 6.1083Q73.7042 0.625633 76.4027-3.88681Q79.1012-8.39926 83.6539-11.1399Q88.2065-13.8805 93.684-13.8805Q99.1667-13.8805 103.679-11.1399Q108.192-8.39926 110.893-3.88681Q113.594 0.625633 113.594 6.1083Q113.594 11.5858 110.893 16.1403Q108.192 20.6948 103.679 23.3934Q99.1667 26.0919 93.684 26.0919ZM124.855 39.5552Q125.74 39.5552 126.199 39.1002Q126.659 38.6451 126.659 37.9495Q126.659 37.1453 125.833 36.3194L109.683 20.0834L107.048 22.5164L123.189 38.7472Q124.083 39.5552 124.855 39.5552Z"/>
  </g>
  <g id="Black-M" transform="matrix(1 0 0 1 2875.44 1126)">
   <path d="M31.5964 18.0295L62.8699 18.0295Q59.6553 14.5557 57.6724 10.1042Q55.6894 5.6526 55.2917 0.691573L34.2662 0.691573Q31.8694 0.691573 30.8341-0.423681Q29.7989-1.53894 29.7989-3.75382L29.7989-70.3707Q29.7989-72.6436 30.8314-73.7353Q31.8639-74.8271 34.2662-74.8271L81.6622-74.8271Q84.1052-74.8271 85.1145-73.7349Q86.1238-72.6427 86.1238-70.3707L86.1238-30.203Q91.0851-29.8627 95.5365-27.8825Q99.9879-25.9024 103.467-22.6874L103.467-73.0076Q103.467-82.0759 98.4255-87.1205Q93.3835-92.165 84.3265-92.165L31.5964-92.165Q22.5388-92.165 17.4999-87.1177Q12.4609-82.0704 12.4609-73.0076L12.4609-1.12795Q12.4609 7.94037 17.5 12.9849Q22.5391 18.0295 31.5964 18.0295ZM43.0472-55.1105L72.9438-55.1105Q74.4379-55.1105 75.435-56.1389Q76.4321-57.1673 76.4321-58.6617Q76.4321-60.0989 75.435-61.0931Q74.4379-62.0873 72.9438-62.0873L43.0472-62.0873Q41.4903-62.0873 40.4933-61.0931Q39.4963-60.0989 39.4963-58.6617Q39.4963-57.1673 40.4933-56.1389Q41.4903-55.1105 43.0472-55.1105ZM43.0472-39.9924L72.9438-39.9924Q74.4379-39.9924 75.435-41.0208Q76.4321-42.0492 76.4321-43.5436Q76.4321-44.9753 75.435-45.9724Q74.4379-46.9695 72.9438-46.9695L43.0472-46.9695Q41.4903-46.9695 40.4933-45.9724Q39.4963-44.9753 39.4963-43.5436Q39.4963-42.0492 40.4933-41.0208Q41.4903-39.9924 43.0472-39.9924ZM83.8384 18.0295Q89.2813 18.0295 93.744 15.3707Q98.2066 12.7119 100.866 8.22049Q103.525 3.72912 103.525-1.65634Q103.525-7.04209 100.866-11.479Q98.2066-15.9158 93.744-18.6005Q89.2813-21.2851 83.8384-21.2851Q78.5101-21.2851 74.0474-18.5977Q69.5847-15.9103 66.8944-11.4735Q64.2042-7.03659 64.2042-1.65634Q64.2042 3.72912 66.8944 8.22049Q69.5847 12.7119 74.0474 15.3707Q78.5101 18.0295 83.8384 18.0295ZM83.8384 8.60713Q81.0401 8.60713 78.7014 7.23912Q76.3626 5.87111 74.966 3.53509Q73.5695 1.19908 73.5695-1.65634Q73.5695-4.50627 74.966-6.81388Q76.3626-9.12148 78.7014-10.4894Q81.0401-11.8572 83.8384-11.8572Q86.6884-11.8572 89.0245-10.4894Q91.3607-9.12148 92.7259-6.81388Q94.0912-4.50627 94.0912-1.65634Q94.0912 1.19908 92.7259 3.53509Q91.3607 5.87111 89.0245 7.23912Q86.6884 8.60713 83.8384 8.60713ZM104.948 26.1585Q107.621 26.1585 109.445 24.3294Q111.268 22.5002 111.268 19.747Q111.268 17.0216 109.427 15.18L98.2676 4.02101L89.036 13.1305L100.263 24.2949Q102.241 26.1585 104.948 26.1585Z"/>
  </g>
  <g id="Heavy-M" transform="matrix(1 0 0 1 2579.77 1126)">
   <path d="M30.6466 17.3797L60.8616 17.3797Q57.9458 14.3369 56.0468 10.4677Q54.1477 6.59848 53.56 2.28007L32.7891 2.28007Q30.0697 2.28007 28.8151 0.97534Q27.5605-0.32939 27.5605-2.8828L27.5605-71.2148Q27.5605-73.805 28.8069-75.1078Q30.0533-76.4105 32.7891-76.4105L81.0432-76.4105Q83.7734-76.4105 85.0155-75.1112Q86.2576-73.8118 86.2576-71.2148L86.2576-30.4776Q90.5737-29.9312 94.4441-28.0403Q98.3144-26.1495 101.371-23.2359L101.371-73.2588Q101.371-81.9944 96.6228-86.7522Q91.8743-91.5101 83.1692-91.5101L30.6466-91.5101Q21.9461-91.5101 17.2035-86.744Q12.4609-81.9779 12.4609-73.2588L12.4609-0.871662Q12.4609 7.86396 17.2024 12.6218Q21.9439 17.3797 30.6466 17.3797ZM41.1583-56.647L72.734-56.647Q74.1788-56.647 75.1436-57.6418Q76.1084-58.6366 76.1084-60.0791Q76.1084-61.478 75.1436-62.4358Q74.1788-63.3935 72.734-63.3935L41.1583-63.3935Q39.6558-63.3935 38.6898-62.4358Q37.7239-61.478 37.7239-60.0791Q37.7239-58.6366 38.6898-57.6418Q39.6558-56.647 41.1583-56.647ZM41.1583-41.0824L72.734-41.0824Q74.1788-41.0824 75.1436-42.0772Q76.1084-43.072 76.1084-44.5145Q76.1084-45.897 75.1436-46.8618Q74.1788-47.8266 72.734-47.8266L41.1583-47.8266Q39.6558-47.8266 38.6898-46.8618Q37.7239-45.897 37.7239-44.5145Q37.7239-43.072 38.6898-42.0772Q39.6558-41.0824 41.1583-41.0824ZM81.1948 17.3797Q86.781 17.3797 91.3661 14.6466Q95.9512 11.9136 98.6831 7.30783Q101.415 2.70206 101.415-2.84272Q101.415-8.38525 98.6831-12.9567Q95.9512-17.5282 91.3661-20.2749Q86.781-23.0215 81.1948-23.0215Q75.6936-23.0215 71.1086-20.2667Q66.5235-17.5118 63.7616-12.9404Q60.9996-8.36886 60.9996-2.84272Q60.9996 2.70206 63.7616 7.30783Q66.5235 11.9136 71.1086 14.6466Q75.6936 17.3797 81.1948 17.3797ZM81.1948 8.53518Q78.0815 8.53518 75.4883 7.00966Q72.8951 5.48413 71.3478 2.89919Q69.8005 0.314256 69.8005-2.84272Q69.8005-5.98331 71.3478-8.54531Q72.8951-11.1073 75.4883-12.634Q78.0815-14.1606 81.1948-14.1606Q84.3354-14.1606 86.9192-12.634Q89.503-11.1073 91.0204-8.54531Q92.5377-5.98331 92.5377-2.84272Q92.5377 0.314256 91.0204 2.89919Q89.503 5.48413 86.9192 7.00966Q84.3354 8.53518 81.1948 8.53518ZM103.582 25.7096Q106.021 25.7096 107.681 24.0334Q109.341 22.3571 109.341 19.8135Q109.341 17.3497 107.613 15.6222L95.8607 3.86754L87.3354 12.1454L99.1642 23.9165Q101.047 25.7096 103.582 25.7096Z"/>
  </g>
  <g id="Bold-M" transform="matrix(1 0 0 1 2284.23 1126)">
   <path d="M29.5842 16.6527L58.6151 16.6527Q56.0335 14.0921 54.2283 10.8743Q52.4231 7.65658 51.6228 4.05703L31.1366 4.05703Q28.0565 4.05703 26.5566 2.54035Q25.0566 1.02366 25.0566-1.90844L25.0566-72.159Q25.0566-75.1043 26.5423-76.643Q28.0279-78.1817 31.1366-78.1817L80.3508-78.1817Q83.4023-78.1817 84.9048-76.6507Q86.4074-75.1197 86.4074-72.159L86.4074-30.7847Q90.0017-30.0077 93.222-28.2168Q96.4423-26.426 99.0265-23.8495L99.0265-73.5397Q99.0265-81.9032 94.6063-86.3403Q90.186-90.7774 81.8747-90.7774L29.5842-90.7774Q21.2831-90.7774 16.872-86.326Q12.4609-81.8745 12.4609-73.5397L12.4609-0.584964Q12.4609 7.77848 16.8695 12.2156Q21.278 16.6527 29.5842 16.6527ZM39.0453-58.3657L72.4993-58.3657Q73.889-58.3657 74.8177-59.323Q75.7464-60.2802 75.7464-61.6648Q75.7464-63.0208 74.8177-63.9377Q73.889-64.8547 72.4993-64.8547L39.0453-64.8547Q37.6036-64.8547 36.6724-63.9377Q35.7412-63.0208 35.7412-61.6648Q35.7412-60.2802 36.6724-59.323Q37.6036-58.3657 39.0453-58.3657ZM39.0453-42.3016L72.4993-42.3016Q73.889-42.3016 74.8177-43.2588Q75.7464-44.2161 75.7464-45.6007Q75.7464-46.928 74.8177-47.8567Q73.889-48.7853 72.4993-48.7853L39.0453-48.7853Q37.6036-48.7853 36.6724-47.8567Q35.7412-46.928 35.7412-45.6007Q35.7412-44.2161 36.6724-43.2588Q37.6036-42.3016 39.0453-42.3016ZM78.2375 16.6527Q83.9841 16.6527 88.7061 13.8367Q93.4281 11.0206 96.2416 6.28689Q99.0551 1.55314 99.0551-4.16986Q99.0551-9.88778 96.2416-14.6099Q93.4281-19.3319 88.7061-22.148Q83.9841-24.964 78.2375-24.964Q72.5431-24.964 67.8211-22.1337Q63.0991-19.3033 60.257-14.5813Q57.4149-9.8592 57.4149-4.16986Q57.4149 1.55314 60.257 6.28689Q63.0991 11.0206 67.8211 13.8367Q72.5431 16.6527 78.2375 16.6527ZM78.2375 8.4547Q74.7718 8.4547 71.894 6.75297Q69.0163 5.05124 67.3003 2.18785Q65.5843-0.675548 65.5843-4.16986Q65.5843-7.6356 67.3003-10.4822Q69.0163-13.3287 71.894-15.033Q74.7718-16.7373 78.2375-16.7373Q81.7033-16.7373 84.5641-15.033Q87.425-13.3287 89.1124-10.4822Q90.7998-7.6356 90.7998-4.16986Q90.7998-0.675548 89.1124 2.18785Q87.425 5.05124 84.5641 6.75297Q81.7033 8.4547 78.2375 8.4547ZM102.054 25.2074Q104.231 25.2074 105.707 23.7022Q107.184 22.197 107.184 19.8879Q107.184 17.7167 105.584 16.1169L93.1682 3.69587L85.433 11.0435L97.9347 23.4931Q99.7113 25.2074 102.054 25.2074Z"/>
  </g>
  <g id="Semibold-M" transform="matrix(1 0 0 1 1988.33 1126)">
   <path d="M28.8517 16.1516L57.0664 16.1516Q54.7151 13.9233 52.9747 11.1547Q51.2342 8.38603 50.2873 5.28206L29.9974 5.28206Q26.6685 5.28206 24.9995 3.61925Q23.3305 1.95645 23.3305-1.23673L23.3305-72.8099Q23.3305-76 24.981-77.7014Q26.6316-79.4028 29.9974-79.4028L79.8735-79.4028Q83.1464-79.4028 84.8285-77.712Q86.5106-76.0213 86.5106-72.8099L86.5106-30.9964Q89.6073-30.0605 92.3795-28.3385Q95.1518-26.6165 97.41-24.2725L97.41-73.7334Q97.41-81.8403 93.216-86.0563Q89.0221-90.2724 80.9823-90.2724L28.8517-90.2724Q20.8261-90.2724 16.6435-86.0378Q12.4609-81.8032 12.4609-73.7334L12.4609-0.387316Q12.4609 7.71956 16.64 11.9356Q20.819 16.1516 28.8517 16.1516ZM37.5886-59.5506L72.3375-59.5506Q73.6892-59.5506 74.593-60.482Q75.4968-61.4133 75.4968-62.758Q75.4968-64.0844 74.593-64.9732Q73.6892-65.862 72.3375-65.862L37.5886-65.862Q36.1889-65.862 35.2816-64.9732Q34.3743-64.0844 34.3743-62.758Q34.3743-61.4133 35.2816-60.482Q36.1889-59.5506 37.5886-59.5506ZM37.5886-43.1421L72.3375-43.1421Q73.6892-43.1421 74.593-44.0735Q75.4968-45.0048 75.4968-46.3495Q75.4968-47.6388 74.593-48.5425Q73.6892-49.4463 72.3375-49.4463L37.5886-49.4463Q36.1889-49.4463 35.2816-48.5425Q34.3743-47.6388 34.3743-46.3495Q34.3743-45.0048 35.2816-44.0735Q36.1889-43.1421 37.5886-43.1421ZM76.1988 16.1516Q82.0559 16.1516 86.8723 13.2783Q91.6887 10.405 94.5584 5.58305Q97.4281 0.761088 97.4281-5.08478Q97.4281-10.9236 94.5584-15.7495Q91.6887-20.5754 86.8723-23.4393Q82.0559-26.3031 76.1988-26.3031Q70.3711-26.3031 65.5547-23.4208Q60.7383-20.5384 57.8409-15.7125Q54.9436-10.8866 54.9436-5.08478Q54.9436 0.761088 57.8409 5.58305Q60.7383 10.405 65.5547 13.2783Q70.3711 16.1516 76.1988 16.1516ZM76.1988 8.39922Q72.4901 8.39922 69.4162 6.57602Q66.3423 4.75281 64.51 1.69745Q62.6777-1.35791 62.6777-5.08478Q62.6777-8.77467 64.51-11.8174Q66.3423-14.8602 69.4162-16.6869Q72.4901-18.5136 76.1988-18.5136Q79.8887-18.5136 82.9405-16.6869Q85.9924-14.8602 87.7971-11.8174Q89.6018-8.77467 89.6018-5.08478Q89.6018-1.35791 87.7971 1.69745Q85.9924 4.75281 82.9405 6.57602Q79.8887 8.39922 76.1988 8.39922ZM101.001 24.8612Q102.997 24.8612 104.347 23.474Q105.697 22.0867 105.697 19.9392Q105.697 17.9697 104.185 16.4579L91.312 3.57752L84.1216 10.2839L97.087 23.2012Q98.7905 24.8612 101.001 24.8612Z"/>
  </g>
  <g id="Medium-M" transform="matrix(1 0 0 1 1692.23 1126)">
   <path d="M28.2963 15.7716L55.892 15.7716Q53.7155 13.7953 52.0241 11.3672Q50.3327 8.93913 49.2747 6.21093L29.1337 6.21093Q25.6162 6.21093 23.8189 4.43733Q22.0216 2.66372 22.0216-0.727405L22.0216-73.3035Q22.0216-76.6792 23.7972-78.5039Q25.5728-80.3287 29.1337-80.3287L79.5115-80.3287Q82.9525-80.3287 84.7707-78.5168Q86.5889-76.7049 86.5889-73.3035L86.5889-31.1569Q89.3083-30.1006 91.7407-28.4308Q94.1732-26.7611 96.1843-24.5932L96.1843-73.8803Q96.1843-81.7926 92.1619-85.841Q88.1396-89.8894 80.3056-89.8894L28.2963-89.8894Q20.4795-89.8894 16.4702-85.8193Q12.4609-81.7491 12.4609-73.8803L12.4609-0.237451Q12.4609 7.67488 16.4659 11.7232Q20.471 15.7716 28.2963 15.7716ZM36.484-60.4491L72.2148-60.4491Q73.5377-60.4491 74.4226-61.3608Q75.3075-62.2725 75.3075-63.5868Q75.3075-64.8908 74.4226-65.7583Q73.5377-66.6257 72.2148-66.6257L36.484-66.6257Q35.1162-66.6257 34.227-65.7583Q33.3379-64.8908 33.3379-63.5868Q33.3379-62.2725 34.227-61.3608Q35.1162-60.4491 36.484-60.4491ZM36.484-43.7795L72.2148-43.7795Q73.5377-43.7795 74.4226-44.6912Q75.3075-45.6029 75.3075-46.9173Q75.3075-48.1777 74.4226-49.0626Q73.5377-49.9475 72.2148-49.9475L36.484-49.9475Q35.1162-49.9475 34.227-49.0626Q33.3379-48.1777 33.3379-46.9173Q33.3379-45.6029 34.227-44.6912Q35.1162-43.7795 36.484-43.7795ZM74.653 15.7716Q80.5939 15.7716 85.4819 12.8549Q90.3699 9.93824 93.2822 5.04938Q96.1946 0.160519 96.1946-5.77851Q96.1946-11.709 93.2822-16.6136Q90.3699-21.5182 85.4819-24.4184Q80.5939-27.3185 74.653-27.3185Q68.7242-27.3185 63.8362-24.3967Q58.9482-21.4749 56.009-16.5703Q53.0697-11.6657 53.0697-5.77851Q53.0697 0.160519 56.009 5.04938Q58.9482 9.93824 63.8362 12.8549Q68.7242 15.7716 74.653 15.7716ZM74.653 8.35715Q70.76 8.35715 67.5374 6.44184Q64.3147 4.52653 62.3942 1.32561Q60.4738-1.87531 60.4738-5.77851Q60.4738-9.63836 62.3942-12.8299Q64.3147-16.0214 67.5374-17.941Q70.76-19.8605 74.653-19.8605Q78.5128-19.8605 81.7095-17.941Q84.9061-16.0214 86.7997-12.8299Q88.6934-9.63836 88.6934-5.77851Q88.6934-1.87531 86.7997 1.32561Q84.9061 4.52653 81.7095 6.44184Q78.5128 8.35715 74.653 8.35715ZM100.203 24.5987Q102.061 24.5987 103.315 23.3009Q104.57 22.003 104.57 19.9781Q104.57 18.1616 103.125 16.7165L89.9045 3.48778L83.1272 9.70786L96.4443 22.9799Q98.0924 24.5987 100.203 24.5987Z"/>
  </g>
  <g id="Regular-M" transform="matrix(1 0 0 1 1396.32 1126)">
   <path d="M27.5719 15.276L54.3603 15.276Q52.4117 13.6284 50.7842 11.6445Q49.1568 9.66056 47.9539 7.4225L28.007 7.4225Q24.2435 7.4225 22.279 5.50438Q20.3144 3.58626 20.3144-0.0630704L20.3144-73.9473Q20.3144-77.5651 22.2531-79.5507Q24.1919-81.5364 28.007-81.5364L79.0395-81.5364Q82.6994-81.5364 84.6952-79.5665Q86.691-77.5966 86.691-73.9473L86.691-31.3663Q88.9183-30.1528 90.9075-28.5511Q92.8968-26.9495 94.5855-25.0116L94.5855-74.0719Q94.5855-81.7305 90.787-85.5602Q86.9885-89.3898 79.4229-89.3898L27.5719-89.3898Q20.0274-89.3898 16.2442-85.5342Q12.4609-81.6786 12.4609-74.0719L12.4609-0.0419753Q12.4609 7.6166 16.239 11.4463Q20.017 15.276 27.5719 15.276ZM35.0433-61.6209L72.0548-61.6209Q73.3401-61.6209 74.2004-62.507Q75.0606-63.3931 75.0606-64.668Q75.0606-65.9427 74.2004-66.7823Q73.3401-67.622 72.0548-67.622L35.0433-67.622Q33.717-67.622 32.8515-66.7823Q31.986-65.9427 31.986-64.668Q31.986-63.3931 32.8515-62.507Q33.717-61.6209 35.0433-61.6209ZM35.0433-44.6108L72.0548-44.6108Q73.3401-44.6108 74.2004-45.4969Q75.0606-46.3829 75.0606-47.6578Q75.0606-48.8807 74.2004-49.7409Q73.3401-50.6012 72.0548-50.6012L35.0433-50.6012Q33.717-50.6012 32.8515-49.7409Q31.986-48.8807 31.986-47.6578Q31.986-46.3829 32.8515-45.4969Q33.717-44.6108 35.0433-44.6108ZM72.6366 15.276Q78.6869 15.276 83.6682 12.3027Q88.6496 9.3294 91.6176 4.35328Q94.5855-0.622832 94.5855-6.68338Q94.5855-12.7335 91.6176-17.7407Q88.6496-22.748 83.6682-25.6955Q78.6869-28.6429 72.6366-28.6429Q66.5761-28.6429 61.5947-25.6696Q56.6134-22.6963 53.6195-17.6891Q50.6256-12.6818 50.6256-6.68338Q50.6256-0.622832 53.6195 4.35328Q56.6134 9.3294 61.5947 12.3027Q66.5761 15.276 72.6366 15.276ZM72.6366 8.30228Q68.5034 8.30228 65.0867 6.26683Q61.67 4.23138 59.6346 0.840601Q57.5991-2.55018 57.5991-6.68338Q57.5991-10.7649 59.6346-14.1505Q61.67-17.536 65.0867-19.5767Q68.5034-21.6174 72.6366-21.6174Q76.7182-21.6174 80.1037-19.5767Q83.4893-17.536 85.4989-14.1505Q87.5085-10.7649 87.5085-6.68338Q87.5085-2.55018 85.4989 0.840601Q83.4893 4.23138 80.1037 6.26683Q76.7182 8.30228 72.6366 8.30228ZM99.1609 24.2563Q100.84 24.2563 101.97 23.0751Q103.099 21.8938 103.099 20.0288Q103.099 18.4118 101.741 17.0537L88.0687 3.37073L81.8301 8.95655L95.606 22.6912Q97.1817 24.2563 99.1609 24.2563Z"/>
  </g>
  <g id="Light-M" transform="matrix(1 0 0 1 1100.31 1126)">
   <path d="M26.7163 14.985L56.4308 14.985Q54.8585 13.6968 53.522 12.1835Q52.1854 10.6702 51.1536 8.9453L27.0488 8.9453Q22.8403 8.9453 20.6705 6.79619Q18.5007 4.64707 18.5007 0.53576L18.5007-74.5461Q18.5007-78.5747 20.6533-80.7998Q22.8059-83.025 27.0488-83.025L78.5944-83.025Q82.7336-83.025 84.9348-80.8412Q87.136-78.6574 87.136-74.5461L87.136-27.0716Q88.8326-26.0118 90.3599-24.6925Q91.8871-23.3732 93.1823-21.8288L93.1823-74.6707Q93.1823-81.8161 89.5892-85.4404Q85.9961-89.0647 78.8925-89.0647L26.7163-89.0647Q19.6681-89.0647 16.0645-85.423Q12.4609-81.7812 12.4609-74.6707L12.4609 0.591065Q12.4609 7.73648 16.0508 11.3608Q19.6407 14.985 26.7163 14.985ZM33.6743-63.2464L72.0033-63.2464Q73.0492-63.2464 73.7384-63.9528Q74.4276-64.6592 74.4276-65.6776Q74.4276-66.6956 73.7384-67.3813Q73.0492-68.067 72.0033-68.067L33.6743-68.067Q32.6219-68.067 31.919-67.3813Q31.2161-66.6956 31.2161-65.6776Q31.2161-64.6592 31.919-63.9528Q32.6219-63.2464 33.6743-63.2464ZM33.6743-46.1336L72.0033-46.1336Q73.0492-46.1336 73.7384-46.84Q74.4276-47.5464 74.4276-48.5648Q74.4276-49.5479 73.7384-50.2371Q73.0492-50.9263 72.0033-50.9263L33.6743-50.9263Q32.6219-50.9263 31.919-50.2371Q31.2161-49.5479 31.2161-48.5648Q31.2161-47.5464 31.919-46.84Q32.6219-46.1336 33.6743-46.1336ZM72.6194 14.985Q78.2764 14.985 82.9497 12.1914Q87.623 9.39782 90.4026 4.73822Q93.1823 0.0786301 93.1823-5.60531Q93.1823-11.2618 90.4026-15.9526Q87.623-20.6433 82.9497-23.4197Q78.2764-26.1961 72.6194-26.1961Q66.9354-26.1961 62.2621-23.4025Q57.5888-20.6089 54.7917-15.9182Q51.9946-11.2274 51.9946-5.60531Q51.9946 0.0786301 54.7917 4.73822Q57.5888 9.39782 62.2621 12.1914Q66.9354 14.985 72.6194 14.985ZM72.6194 9.53415Q68.452 9.53415 65.0011 7.48159Q61.5501 5.42904 59.4976 1.99557Q57.445-1.4379 57.445-5.60531Q57.445-9.73831 59.4976-13.1581Q61.5501-16.5778 65.0011-18.6441Q68.452-20.7104 72.6194-20.7104Q76.7524-20.7104 80.1721-18.6441Q83.5919-16.5778 85.6272-13.1581Q87.6626-9.73831 87.6626-5.60531Q87.6626-1.4379 85.6272 1.99557Q83.5919 5.42904 80.1721 7.48159Q76.7524 9.53415 72.6194 9.53415ZM98.408 23.7771Q99.7794 23.7771 100.669 22.8526Q101.559 21.9281 101.559 20.4738Q101.559 19.1648 100.424 18.0292L87.1105 4.68827L82.1722 9.1276L95.5545 22.5029Q96.8566 23.7771 98.408 23.7771Z"/>
  </g>
  <g id="Thin-M" transform="matrix(1 0 0 1 804.528 1126)">
   <path d="M25.5848 14.6003L59.1691 14.6003Q58.0945 13.7873 57.1428 12.8964Q56.1911 12.0055 55.3854 10.9593L25.7815 10.9593Q20.9845 10.9593 18.5432 8.50471Q16.1019 6.05009 16.1019 1.32776L16.1019-75.3381Q16.1019-79.91 18.5374-82.4519Q20.9729-84.9937 25.7815-84.9937L78.0058-84.9937Q82.7789-84.9937 85.2517-82.5271Q87.7246-80.0604 87.7246-75.3381L87.7246-21.3915Q88.7193-20.5351 89.6355-19.5892Q90.5518-18.6433 91.3265-17.6194L91.3265-75.4627Q91.3265-81.9294 88.005-85.2821Q84.6835-88.6347 78.191-88.6347L25.5848-88.6347Q19.1928-88.6347 15.8269-85.2758Q12.4609-81.917 12.4609-75.4627L12.4609 1.42831Q12.4609 7.89503 15.8019 11.2476Q19.1429 14.6003 25.5848 14.6003ZM31.8637-65.3961L71.9353-65.3961Q72.6644-65.3961 73.1274-65.8649Q73.5903-66.3337 73.5903-67.013Q73.5903-67.6914 73.1274-68.1735Q72.6644-68.6556 71.9353-68.6556L31.8637-68.6556Q31.1737-68.6556 30.6858-68.1735Q30.1979-67.6914 30.1979-67.013Q30.1979-66.3337 30.6858-65.8649Q31.1737-65.3961 31.8637-65.3961ZM31.8637-48.1476L71.9353-48.1476Q72.6644-48.1476 73.1274-48.6164Q73.5903-49.0851 73.5903-49.7644Q73.5903-50.4304 73.1274-50.8934Q72.6644-51.3564 71.9353-51.3564L31.8637-51.3564Q31.1737-51.3564 30.6858-50.8934Q30.1979-50.4304 30.1979-49.7644Q30.1979-49.0851 30.6858-48.6164Q31.1737-48.1476 31.8637-48.1476ZM72.5966 14.6003Q77.7334 14.6003 81.9993 12.0443Q86.2652 9.48831 88.7958 5.24734Q91.3265 1.00637 91.3265-4.17948Q91.3265-9.31549 88.7958-13.5876Q86.2652-17.8597 81.9993-20.4099Q77.7334-22.9601 72.5966-22.9601Q67.4107-22.9601 63.1448-20.4041Q58.8789-17.8481 56.3421-13.576Q53.8052-9.30388 53.8052-4.17948Q53.8052 1.00637 56.3421 5.24734Q58.8789 9.48831 63.1448 12.0443Q67.4107 14.6003 72.5966 14.6003ZM72.5966 11.1634Q68.3839 11.1634 64.8877 9.08822Q61.3916 7.01304 59.3164 3.52311Q57.2412 0.0331768 57.2412-4.17948Q57.2412-8.38054 59.3164-11.8455Q61.3916-15.3106 64.8877-17.4107Q68.3839-19.5108 72.5966-19.5108Q76.7976-19.5108 80.2626-17.4107Q83.7276-15.3106 85.797-11.8455Q87.8664-8.38054 87.8664-4.17948Q87.8664 0.0331768 85.797 3.52311Q83.7276 7.01304 80.2626 9.08822Q76.7976 11.1634 72.5966 11.1634ZM97.4122 23.1433Q98.3764 23.1433 98.9493 22.5583Q99.5223 21.9733 99.5223 21.0624Q99.5223 20.1606 98.681 19.3192L85.8433 6.43083L82.6247 9.35383L95.4864 22.2539Q96.4266 23.1433 97.4122 23.1433Z"/>
  </g>
  <g id="Ultralight-M" transform="matrix(1 0 0 1 508.292 1126)">
   <path d="M25.0052 14.4032L60.5717 14.4032Q59.752 13.8337 58.9974 13.2616Q58.2427 12.6895 57.553 11.9909L25.1325 11.9909Q20.0339 11.9909 17.4535 9.37981Q14.8732 6.76871 14.8732 1.73342L14.8732-75.7438Q14.8732-80.594 17.4536-83.2981Q20.034-86.0021 25.1325-86.0021L77.7044-86.0021Q82.802-86.0021 85.4141-83.3906Q88.0261-80.7791 88.0261-75.7438L88.0261-18.4821Q88.6613-17.73 89.2645-16.9753Q89.8678-16.2206 90.3759-15.4633L90.3759-75.8684Q90.3759-81.9875 87.1936-85.2009Q84.0113-88.4144 77.8317-88.4144L25.0052-88.4144Q18.9494-88.4144 15.7052-85.2005Q12.4609-81.9865 12.4609-75.8684L12.4609 1.85715Q12.4609 7.97624 15.6745 11.1897Q18.888 14.4032 25.0052 14.4032ZM30.9363-66.4972L71.9004-66.4972Q72.4673-66.4972 72.8144-66.8443Q73.1615-67.1913 73.1615-67.6969Q73.1615-68.2015 72.8144-68.5793Q72.4673-68.9571 71.9004-68.9571L30.9363-68.9571Q30.4319-68.9571 30.0541-68.5793Q29.6764-68.2015 29.6764-67.6969Q29.6764-67.1913 30.0541-66.8443Q30.4319-66.4972 30.9363-66.4972ZM30.9363-49.1792L71.9004-49.1792Q72.4673-49.1792 72.8144-49.5262Q73.1615-49.8733 73.1615-50.3789Q73.1615-50.8824 72.8144-51.2295Q72.4673-51.5766 71.9004-51.5766L30.9363-51.5766Q30.4319-51.5766 30.0541-51.2295Q29.6764-50.8824 29.6764-50.3789Q29.6764-49.8733 30.0541-49.5262Q30.4319-49.1792 30.9363-49.1792ZM72.5849 14.4032Q77.4553 14.4032 81.5125 11.9689Q85.5698 9.53466 87.9728 5.50811Q90.3759 1.48155 90.3759-3.44918Q90.3759-8.31857 87.9728-12.3763Q85.5698-16.434 81.5125-18.8683Q77.4553-21.3026 72.5849-21.3026Q67.6541-21.3026 63.5969-18.8683Q59.5397-16.4341 57.1362-12.3764Q54.7326-8.31865 54.7326-3.44918Q54.7326 1.48155 57.1362 5.50811Q59.5397 9.53466 63.5969 11.9689Q67.6541 14.4032 72.5849 14.4032ZM72.5849 11.9979Q68.349 11.9979 64.8297 9.91112Q61.3104 7.82436 59.2236 4.30551Q57.1368 0.786655 57.1368-3.44918Q57.1368-7.6851 59.2236-11.1733Q61.3104-14.6615 64.8297-16.7789Q68.349-18.8963 72.5849-18.8963Q76.8208-18.8963 80.309-16.7789Q83.7972-14.6615 85.884-11.1733Q87.9708-7.6851 87.9708-3.44918Q87.9708 0.786655 85.884 4.30551Q83.7972 7.82436 80.309 9.91112Q76.8208 11.9979 72.5849 11.9979ZM96.9022 22.8186Q97.6578 22.8186 98.0684 22.4076Q98.479 21.9965 98.479 21.3639Q98.479 20.6706 97.7885 19.98L85.1942 7.32335L82.8564 9.46971L95.4516 22.1263Q96.2063 22.8186 96.9022 22.8186Z"/>
  </g>
  <g id="Black-S" transform="matrix(1 0 0 1 2887.7 696)">
   <path d="M25 6.68945L50 6.68945Q47.4121 3.85742 45.8496 0.219727Q44.2871-3.41797 44.043-7.4707L27.2461-7.4707Q25.4395-7.4707 24.6826-8.30078Q23.9258-9.13086 23.9258-10.791L23.9258-62.5488Q23.9258-64.2578 24.6826-65.0635Q25.4395-65.8691 27.2461-65.8691L64.1602-65.8691Q66.0156-65.8691 66.748-65.0635Q67.4805-64.2578 67.4805-62.5488L67.4805-30.957Q71.5332-30.7617 75.1709-29.1992Q78.8086-27.6367 81.6406-25.0488L81.6406-64.7949Q81.6406-71.9727 77.6123-76.001Q73.584-80.0293 66.4062-80.0293L25-80.0293Q17.8223-80.0293 13.7939-76.001Q9.76562-71.9727 9.76562-64.7949L9.76562-8.54492Q9.76562-1.36719 13.7939 2.66113Q17.8223 6.68945 25 6.68945ZM34.2285-50.4395L57.2266-50.4395Q58.3984-50.4395 59.1797-51.2451Q59.9609-52.0508 59.9609-53.2227Q59.9609-54.3457 59.1797-55.127Q58.3984-55.9082 57.2266-55.9082L34.2285-55.9082Q33.0078-55.9082 32.2266-55.127Q31.4453-54.3457 31.4453-53.2227Q31.4453-52.0508 32.2266-51.2451Q33.0078-50.4395 34.2285-50.4395ZM34.2285-38.7207L57.2266-38.7207Q58.3984-38.7207 59.1797-39.5264Q59.9609-40.332 59.9609-41.5039Q59.9609-42.627 59.1797-43.4082Q58.3984-44.1895 57.2266-44.1895L34.2285-44.1895Q33.0078-44.1895 32.2266-43.4082Q31.4453-42.627 31.4453-41.5039Q31.4453-40.332 32.2266-39.5264Q33.0078-38.7207 34.2285-38.7207ZM66.5039 6.68945Q70.7031 6.68945 74.1455 4.63867Q77.5879 2.58789 79.6387-0.878906Q81.6895-4.3457 81.6895-8.49609Q81.6895-12.6465 79.6387-16.0645Q77.5879-19.4824 74.1455-21.5576Q70.7031-23.6328 66.5039-23.6328Q62.4023-23.6328 58.96-21.5576Q55.5176-19.4824 53.4424-16.0645Q51.3672-12.6465 51.3672-8.49609Q51.3672-4.3457 53.4424-0.878906Q55.5176 2.58789 58.96 4.63867Q62.4023 6.68945 66.5039 6.68945ZM66.5039-0.78125Q64.4043-0.78125 62.6465-1.80664Q60.8887-2.83203 59.8389-4.58984Q58.7891-6.34766 58.7891-8.49609Q58.7891-10.6445 59.8389-12.3779Q60.8887-14.1113 62.6465-15.1367Q64.4043-16.1621 66.5039-16.1621Q68.6523-16.1621 70.4102-15.1367Q72.168-14.1113 73.1934-12.3779Q74.2188-10.6445 74.2188-8.49609Q74.2188-6.34766 73.1934-4.58984Q72.168-2.83203 70.4102-1.80664Q68.6523-0.78125 66.5039-0.78125ZM82.6172 12.9883Q84.7656 12.9883 86.2305 11.5234Q87.6953 10.0586 87.6953 7.86133Q87.6953 5.66406 86.2305 4.19922L77.6855-4.3457L70.3125 2.97852L78.9062 11.5234Q80.4688 12.9883 82.6172 12.9883Z"/>
  </g>
  <g id="Heavy-S" transform="matrix(1 0 0 1 2591.79 696)">
   <path d="M24.297 6.17085L48.0178 6.17085Q45.6373 3.66151 44.1094 0.46174Q42.5815-2.73803 42.153-6.30673L26.1052-6.30673Q24.0796-6.30673 23.1614-7.26934Q22.2432-8.23195 22.2432-10.1226L22.2432-63.1942Q22.2432-65.1221 23.1556-66.0776Q24.068-67.0331 26.1052-67.0331L63.6877-67.0331Q65.7275-67.0331 66.6328-66.0776Q67.5381-65.1221 67.5381-63.1942L67.5381-31.7407Q71.1068-31.3495 74.3066-29.8273Q77.5063-28.3051 80.0272-25.9247L80.0272-64.9332Q80.0272-71.892 76.2236-75.7013Q72.42-79.5107 65.4843-79.5107L24.297-79.5107Q17.3613-79.5107 13.5635-75.6956Q9.76562-71.8805 9.76562-64.9332L9.76562-8.40663Q9.76562-1.44786 13.5635 2.3615Q17.3613 6.17085 24.297 6.17085ZM32.788-51.5458L57.0537-51.5458Q58.214-51.5458 58.9895-52.3457Q59.765-53.1456 59.765-54.306Q59.765-55.429 58.9895-56.1987Q58.214-56.9685 57.0537-56.9685L32.788-56.9685Q31.5788-56.9685 30.8033-56.1987Q30.0278-55.429 30.0278-54.306Q30.0278-53.1456 30.8033-52.3457Q31.5788-51.5458 32.788-51.5458ZM32.788-39.4583L57.0537-39.4583Q58.214-39.4583 58.9895-40.2582Q59.765-41.0581 59.765-42.2184Q59.765-43.3299 58.9895-44.1054Q58.214-44.8809 57.0537-44.8809L32.788-44.8809Q31.5788-44.8809 30.8033-44.1054Q30.0278-43.3299 30.0278-42.2184Q30.0278-41.0581 30.8033-40.2582Q31.5788-39.4583 32.788-39.4583ZM64.2451 6.17085Q68.6172 6.17085 72.2036 4.03364Q75.7901 1.89642 77.9273-1.70867Q80.0645-5.31376 80.0645-9.64854Q80.0645-13.9833 77.9273-17.5569Q75.7901-21.1304 72.2036-23.2805Q68.6172-25.4306 64.2451-25.4306Q59.9476-25.4306 56.3612-23.2748Q52.7748-21.1189 50.6131-17.5453Q48.4515-13.9718 48.4515-9.64854Q48.4515-5.31376 50.6131-1.70867Q52.7748 1.89642 56.3612 4.03364Q59.9476 6.17085 64.2451 6.17085ZM64.2451-1.00021Q61.8804-1.00021 59.9094-2.15814Q57.9384-3.31606 56.7618-5.28131Q55.5853-7.24656 55.5853-9.64854Q55.5853-12.039 56.7618-13.9856Q57.9384-15.9322 59.9094-17.0901Q61.8804-18.248 64.2451-18.248Q66.6356-18.248 68.6008-17.0901Q70.5661-15.9322 71.7182-13.9856Q72.8704-12.039 72.8704-9.64854Q72.8704-7.24656 71.7182-5.28131Q70.5661-3.31606 68.6008-2.15814Q66.6356-1.00021 64.2451-1.00021ZM81.5454 12.6656Q83.5325 12.6656 84.8879 11.2987Q86.2432 9.93182 86.2432 7.86133Q86.2432 5.84845 84.8475 4.45276L75.7494-4.64534L68.8143 2.11418L77.9728 11.2238Q79.4892 12.6656 81.5454 12.6656Z"/>
  </g>
  <g id="Bold-S" transform="matrix(1 0 0 1 2295.98 696)">
   <path d="M23.5107 5.59082L45.8008 5.59082Q43.6523 3.44238 42.1631 0.732422Q40.6738-1.97754 40.0391-5.00488L24.8291-5.00488Q22.5586-5.00488 21.46-6.11572Q20.3613-7.22656 20.3613-9.375L20.3613-63.916Q20.3613-66.0889 21.4478-67.2119Q22.5342-68.335 24.8291-68.335L63.1592-68.335Q65.4053-68.335 66.5039-67.2119Q67.6025-66.0889 67.6025-63.916L67.6025-32.6172Q70.6299-32.0068 73.3398-30.5298Q76.0498-29.0527 78.2227-26.9043L78.2227-65.0879Q78.2227-71.8018 74.6704-75.3662Q71.1182-78.9307 64.4531-78.9307L23.5107-78.9307Q16.8457-78.9307 13.3057-75.354Q9.76562-71.7773 9.76562-65.0879L9.76562-8.25195Q9.76562-1.53809 13.3057 2.02637Q16.8457 5.59082 23.5107 5.59082ZM31.1768-52.7832L56.8604-52.7832Q58.0078-52.7832 58.7769-53.5767Q59.5459-54.3701 59.5459-55.5176Q59.5459-56.6406 58.7769-57.3975Q58.0078-58.1543 56.8604-58.1543L31.1768-58.1543Q29.9805-58.1543 29.2114-57.3975Q28.4424-56.6406 28.4424-55.5176Q28.4424-54.3701 29.2114-53.5767Q29.9805-52.7832 31.1768-52.7832ZM31.1768-40.2832L56.8604-40.2832Q58.0078-40.2832 58.7769-41.0767Q59.5459-41.8701 59.5459-43.0176Q59.5459-44.1162 58.7769-44.8853Q58.0078-45.6543 56.8604-45.6543L31.1768-45.6543Q29.9805-45.6543 29.2114-44.8853Q28.4424-44.1162 28.4424-43.0176Q28.4424-41.8701 29.2114-41.0767Q29.9805-40.2832 31.1768-40.2832ZM61.7188 5.59082Q66.2842 5.59082 70.0317 3.35693Q73.7793 1.12305 76.0132-2.63672Q78.2471-6.39648 78.2471-10.9375Q78.2471-15.4785 76.0132-19.2261Q73.7793-22.9736 70.0317-25.2075Q66.2842-27.4414 61.7188-27.4414Q57.2021-27.4414 53.4546-25.1953Q49.707-22.9492 47.4487-19.2017Q45.1904-15.4541 45.1904-10.9375Q45.1904-6.39648 47.4487-2.63672Q49.707 1.12305 53.4546 3.35693Q57.2021 5.59082 61.7188 5.59082ZM61.7188-1.24512Q59.0576-1.24512 56.8481-2.55127Q54.6387-3.85742 53.3203-6.05469Q52.002-8.25195 52.002-10.9375Q52.002-13.5986 53.3203-15.7837Q54.6387-17.9688 56.8481-19.2749Q59.0576-20.5811 61.7188-20.5811Q64.3799-20.5811 66.5771-19.2749Q68.7744-17.9688 70.0684-15.7837Q71.3623-13.5986 71.3623-10.9375Q71.3623-8.25195 70.0684-6.05469Q68.7744-3.85742 66.5771-2.55127Q64.3799-1.24512 61.7188-1.24512ZM80.3467 12.3047Q82.1533 12.3047 83.3862 11.0474Q84.6191 9.79004 84.6191 7.86133Q84.6191 6.05469 83.3008 4.73633L73.584-4.98047L67.1387 1.14746L76.9287 10.8887Q78.3936 12.3047 80.3467 12.3047Z"/>
  </g>
  <g id="Semibold-S" transform="matrix(1 0 0 1 1999.89 696)">
   <path d="M22.9687 5.19092L44.2723 5.19092Q42.2838 3.29131 40.8212 0.919043Q39.3586-1.45322 38.5816-4.10732L23.9493-4.10732Q21.51-4.10732 20.2869-5.32036Q19.0639-6.5334 19.0639-8.85957L19.0639-64.4137Q19.0639-66.7554 20.2703-67.9939Q21.4767-69.2325 23.9493-69.2325L62.7948-69.2325Q65.1831-69.2325 66.415-67.9939Q67.647-66.7554 67.647-64.4137L67.647-33.2215Q70.3011-32.4601 72.6733-31.0141Q75.0456-29.5682 76.9785-27.5797L76.9785-65.1945Q76.9785-71.7396 73.5996-75.1352Q70.2206-78.5308 63.7422-78.5308L22.9687-78.5308Q16.4902-78.5308 13.1279-75.1185Q9.76562-71.7062 9.76562-65.1945L9.76562-8.14531Q9.76562-1.60029 13.1279 1.79531Q16.4902 5.19092 22.9687 5.19092ZM30.0659-53.6363L56.7271-53.6363Q57.8656-53.6363 58.6302-54.4253Q59.3948-55.2144 59.3948-56.3529Q59.3948-57.476 58.6302-58.2239Q57.8656-58.9719 56.7271-58.9719L30.0659-58.9719Q28.8785-58.9719 28.1139-58.2239Q27.3493-57.476 27.3493-56.3529Q27.3493-55.2144 28.1139-54.4253Q28.8785-53.6363 30.0659-53.6363ZM30.0659-40.852L56.7271-40.852Q57.8656-40.852 58.6302-41.641Q59.3948-42.43 59.3948-43.5686Q59.3948-44.6583 58.6302-45.4229Q57.8656-46.1875 56.7271-46.1875L30.0659-46.1875Q28.8785-46.1875 28.1139-45.4229Q27.3493-44.6583 27.3493-43.5686Q27.3493-42.43 28.1139-41.641Q28.8785-40.852 30.0659-40.852ZM59.977 5.19092Q64.6757 5.19092 68.5343 2.89038Q72.393 0.589844 74.6935-3.27656Q76.994-7.14297 76.994-11.8262Q76.994-16.5094 74.6935-20.3769Q72.393-24.2444 68.5343-26.5361Q64.6757-28.8277 59.977-28.8277Q55.3093-28.8277 51.4506-26.5194Q47.592-24.2111 45.267-20.3436Q42.9421-16.4761 42.9421-11.8262Q42.9421-7.14297 45.267-3.27656Q47.592 0.589844 51.4506 2.89038Q55.3093 5.19092 59.977 5.19092ZM59.977-1.41396Q57.1114-1.41396 54.7375-2.82231Q52.3637-4.23066 50.9476-6.58789Q49.5314-8.94512 49.5314-11.8262Q49.5314-14.6739 50.9476-17.0234Q52.3637-19.3729 54.7375-20.7812Q57.1114-22.1896 59.977-22.1896Q62.8247-22.1896 65.1819-20.7812Q67.5392-19.3729 68.9309-17.0234Q70.3226-14.6739 70.3226-11.8262Q70.3226-8.94512 68.9309-6.58789Q67.5392-4.23066 65.1819-2.82231Q62.8247-1.41396 59.977-1.41396ZM79.5202 12.0559Q81.2024 12.0559 82.3509 10.8741Q83.4994 9.69229 83.4994 7.86133Q83.4994 6.19688 82.2344 4.93184L72.091-5.21152L65.9834 0.480957L76.2089 10.6576Q77.6382 12.0559 79.5202 12.0559Z"/>
  </g>
  <g id="Medium-S" transform="matrix(1 0 0 1 1703.66 696)">
   <path d="M22.5576 4.8877L43.1133 4.8877Q41.2461 3.17676 39.8037 1.06055Q38.3613-1.05566 37.4766-3.42676L23.2822-3.42676Q20.7148-3.42676 19.3975-4.71729Q18.0801-6.00781 18.0801-8.46875L18.0801-64.791Q18.0801-67.2607 19.3774-68.5869Q20.6748-69.9131 23.2822-69.9131L62.5186-69.9131Q65.0146-69.9131 66.3477-68.5869Q67.6807-67.2607 67.6807-64.791L67.6807-33.6797Q70.0518-32.8037 72.168-31.3813Q74.2842-29.959 76.0352-28.0918L76.0352-65.2754Q76.0352-71.6924 72.7876-74.96Q69.54-78.2275 63.2031-78.2275L22.5576-78.2275Q16.2207-78.2275 12.9932-74.9399Q9.76562-71.6523 9.76562-65.2754L9.76562-8.06445Q9.76562-1.64746 12.9932 1.62012Q16.2207 4.8877 22.5576 4.8877ZM29.2236-54.2832L56.626-54.2832Q57.7578-54.2832 58.519-55.0688Q59.2803-55.8545 59.2803-56.9863Q59.2803-58.1094 58.519-58.8506Q57.7578-59.5918 56.626-59.5918L29.2236-59.5918Q28.043-59.5918 27.2817-58.8506Q26.5205-58.1094 26.5205-56.9863Q26.5205-55.8545 27.2817-55.0688Q28.043-54.2832 29.2236-54.2832ZM29.2236-41.2832L56.626-41.2832Q57.7578-41.2832 58.519-42.0688Q59.2803-42.8545 59.2803-43.9863Q59.2803-45.0693 58.519-45.8306Q57.7578-46.5918 56.626-46.5918L29.2236-46.5918Q28.043-46.5918 27.2817-45.8306Q26.5205-45.0693 26.5205-43.9863Q26.5205-42.8545 27.2817-42.0688Q28.043-41.2832 29.2236-41.2832ZM58.6562 4.8877Q63.4561 4.8877 67.3989 2.53662Q71.3418 0.185547 73.6929-3.76172Q76.0439-7.70898 76.0439-12.5Q76.0439-17.291 73.6929-21.2495Q71.3418-25.208 67.3989-27.5435Q63.4561-29.8789 58.6562-29.8789Q53.874-29.8789 49.9312-27.5234Q45.9883-25.168 43.6128-21.2095Q41.2373-17.251 41.2373-12.5Q41.2373-7.70898 43.6128-3.76172Q45.9883 0.185547 49.9312 2.53662Q53.874 4.8877 58.6562 4.8877ZM58.6562-1.54199Q55.6357-1.54199 53.1372-3.02783Q50.6387-4.51367 49.1484-6.99219Q47.6582-9.4707 47.6582-12.5Q47.6582-15.4893 49.1484-17.9634Q50.6387-20.4375 53.1372-21.9233Q55.6357-23.4092 58.6562-23.4092Q61.6455-23.4092 64.124-21.9233Q66.6025-20.4375 68.0684-17.9634Q69.5342-15.4893 69.5342-12.5Q69.5342-9.4707 68.0684-6.99219Q66.6025-4.51367 64.124-3.02783Q61.6455-1.54199 58.6562-1.54199ZM78.8936 11.8672Q80.4814 11.8672 81.5659 10.7427Q82.6504 9.61816 82.6504 7.86133Q82.6504 6.30469 81.4258 5.08008L70.959-5.38672L65.1074-0.0244141L75.6631 10.4824Q77.0654 11.8672 78.8936 11.8672Z"/>
  </g>
  <g id="Regular-S" transform="matrix(1 0 0 1 1407.56 696)">
   <path d="M22.0215 4.49219L41.6016 4.49219Q39.8926 3.02734 38.4766 1.24512Q37.0605-0.537109 36.0352-2.53906L22.4121-2.53906Q19.6777-2.53906 18.2373-3.93066Q16.7969-5.32227 16.7969-7.95898L16.7969-65.2832Q16.7969-67.9199 18.2129-69.3604Q19.6289-70.8008 22.4121-70.8008L62.1582-70.8008Q64.7949-70.8008 66.2598-69.3604Q67.7246-67.9199 67.7246-65.2832L67.7246-34.2773Q69.7266-33.252 71.5088-31.8604Q73.291-30.4688 74.8047-28.7598L74.8047-65.3809Q74.8047-71.6309 71.7285-74.7314Q68.6523-77.832 62.5-77.832L22.0215-77.832Q15.8691-77.832 12.8174-74.707Q9.76562-71.582 9.76562-65.3809L9.76562-7.95898Q9.76562-1.70898 12.8174 1.3916Q15.8691 4.49219 22.0215 4.49219ZM28.125-55.127L56.4941-55.127Q57.6172-55.127 58.374-55.9082Q59.1309-56.6895 59.1309-57.8125Q59.1309-58.9355 58.374-59.668Q57.6172-60.4004 56.4941-60.4004L28.125-60.4004Q26.9531-60.4004 26.1963-59.668Q25.4395-58.9355 25.4395-57.8125Q25.4395-56.6895 26.1963-55.9082Q26.9531-55.127 28.125-55.127ZM28.125-41.8457L56.4941-41.8457Q57.6172-41.8457 58.374-42.627Q59.1309-43.4082 59.1309-44.5312Q59.1309-45.6055 58.374-46.3623Q57.6172-47.1191 56.4941-47.1191L28.125-47.1191Q26.9531-47.1191 26.1963-46.3623Q25.4395-45.6055 25.4395-44.5312Q25.4395-43.4082 26.1963-42.627Q26.9531-41.8457 28.125-41.8457ZM56.9336 4.49219Q61.8652 4.49219 65.918 2.0752Q69.9707-0.341797 72.3877-4.39453Q74.8047-8.44727 74.8047-13.3789Q74.8047-18.3105 72.3877-22.3877Q69.9707-26.4648 65.918-28.8574Q61.8652-31.25 56.9336-31.25Q52.002-31.25 47.9492-28.833Q43.8965-26.416 41.4551-22.3389Q39.0137-18.2617 39.0137-13.3789Q39.0137-8.44727 41.4551-4.39453Q43.8965-0.341797 47.9492 2.0752Q52.002 4.49219 56.9336 4.49219ZM56.9336-1.70898Q53.7109-1.70898 51.0498-3.2959Q48.3887-4.88281 46.8018-7.51953Q45.2148-10.1562 45.2148-13.3789Q45.2148-16.5527 46.8018-19.1895Q48.3887-21.8262 51.0498-23.4131Q53.7109-25 56.9336-25Q60.1074-25 62.7441-23.4131Q65.3809-21.8262 66.9434-19.1895Q68.5059-16.5527 68.5059-13.3789Q68.5059-10.1562 66.9434-7.51953Q65.3809-4.88281 62.7441-3.2959Q60.1074-1.70898 56.9336-1.70898ZM78.0762 11.6211Q79.541 11.6211 80.542 10.5713Q81.543 9.52148 81.543 7.86133Q81.543 6.44531 80.3711 5.27344L69.4824-5.61523L63.9648-0.683594L74.9512 10.2539Q76.3184 11.6211 78.0762 11.6211Z"/>
  </g>
  <g id="Light-S" transform="matrix(1 0 0 1 1111.47 696)">
   <path d="M21.2646 4.23482L43.4331 4.23482Q42.057 3.08787 40.8984 1.72195Q39.7397 0.356038 38.8657-1.19197L21.5645-1.19197Q18.4364-1.19197 16.8144-2.78791Q15.1924-4.38385 15.1924-7.42925L15.1924-65.8129Q15.1924-68.8131 16.7976-70.4653Q18.4029-72.1176 21.5645-72.1176L61.7645-72.1176Q64.8252-72.1176 66.4717-70.488Q68.1183-68.8583 68.1183-65.8129L68.1183-30.4782Q69.6508-29.5888 71.0243-28.447Q72.3979-27.3051 73.5634-25.9443L73.5634-65.9106Q73.5634-71.7066 70.6689-74.6255Q67.7745-77.5444 62.0308-77.5444L21.2646-77.5444Q15.5512-77.5444 12.6584-74.6086Q9.76562-71.6728 9.76562-65.9106L9.76562-7.39899Q9.76562-1.60294 12.6509 1.31594Q15.5362 4.23482 21.2646 4.23482ZM26.914-56.5648L56.4486-56.5648Q57.3598-56.5648 57.9653-57.1871Q58.5709-57.8094 58.5709-58.7056Q58.5709-59.6016 57.9653-60.1978Q57.3598-60.7941 56.4486-60.7941L26.914-60.7941Q25.9844-60.7941 25.3714-60.1978Q24.7584-59.6016 24.7584-58.7056Q24.7584-57.8094 25.3714-57.1871Q25.9844-56.5648 26.914-56.5648ZM26.914-43.1928L56.4486-43.1928Q57.3598-43.1928 57.9653-43.8151Q58.5709-44.4374 58.5709-45.3336Q58.5709-46.1957 57.9653-46.8012Q57.3598-47.4068 56.4486-47.4068L26.914-47.4068Q25.9844-47.4068 25.3714-46.8012Q24.7584-46.1957 24.7584-45.3336Q24.7584-44.4374 25.3714-43.8151Q25.9844-43.1928 26.914-43.1928ZM56.9183 4.23482Q61.5021 4.23482 65.2823 1.97678Q69.0626-0.28127 71.313-4.05401Q73.5634-7.82674 73.5634-12.4252Q73.5634-17.0087 71.313-20.8059Q69.0626-24.603 65.2823-26.8443Q61.5021-29.0855 56.9183-29.0855Q52.3198-29.0855 48.5396-26.8275Q44.7594-24.5694 42.492-20.7723Q40.2247-16.9751 40.2247-12.4252Q40.2247-7.82674 42.492-4.05401Q44.7594-0.28127 48.5396 1.97678Q52.3198 4.23482 56.9183 4.23482ZM56.9183-0.619253Q53.6654-0.619253 50.974-2.2213Q48.2826-3.82334 46.6806-6.49783Q45.0785-9.17231 45.0785-12.4252Q45.0785-15.6446 46.6806-18.3116Q48.2826-20.9785 50.974-22.5881Q53.6654-24.1976 56.9183-24.1976Q60.1377-24.1976 62.8047-22.5881Q65.4716-20.9785 67.0569-18.3116Q68.6422-15.6446 68.6422-12.4252Q68.6422-9.17231 67.0569-6.49783Q65.4716-3.82334 62.8047-2.2213Q60.1377-0.619253 56.9183-0.619253ZM77.4101 11.1972Q78.6026 11.1972 79.3916 10.3745Q80.1806 9.55175 80.1806 8.255Q80.1806 7.11136 79.2056 6.13632L68.6348-4.44972L64.2675-0.532277L74.9056 10.0873Q76.0307 11.1972 77.4101 11.1972Z"/>
  </g>
  <g id="Thin-S" transform="matrix(1 0 0 1 815.578 696)">
   <path d="M20.2637 3.89444L45.8555 3.89444Q44.9197 3.16792 44.1014 2.35261Q43.2832 1.5373 42.6092 0.589678L20.4434 0.589678Q16.7947 0.589678 14.9325-1.27652Q13.0704-3.14272 13.0704-6.72863L13.0704-66.5136Q13.0704-69.9943 14.9259-71.9268Q16.7813-73.8592 20.4434-73.8592L61.2439-73.8592Q64.8652-73.8592 66.7521-71.9794Q68.639-70.0995 68.639-66.5136L68.639-25.4534Q69.5505-24.744 70.3836-23.9325Q71.2166-23.1209 71.9217-22.2205L71.9217-66.6112Q71.9217-71.8069 69.2675-74.4854Q66.6134-77.164 61.4102-77.164L20.2637-77.164Q15.1308-77.164 12.4482-74.4784Q9.76562-71.7929 9.76562-66.6112L9.76562-6.65834Q9.76562-1.46268 12.4308 1.21588Q15.096 3.89444 20.2637 3.89444ZM25.3123-58.4666L56.3884-58.4666Q57.0194-58.4666 57.4248-58.8786Q57.8302-59.2907 57.8302-59.8869Q57.8302-60.4825 57.4248-60.8986Q57.0194-61.3147 56.3884-61.3147L25.3123-61.3147Q24.7033-61.3147 24.2805-60.8986Q23.8577-60.4825 23.8577-59.8869Q23.8577-59.2907 24.2805-58.8786Q24.7033-58.4666 25.3123-58.4666ZM25.3123-44.9744L56.3884-44.9744Q57.0194-44.9744 57.4248-45.3865Q57.8302-45.7986 57.8302-46.3948Q57.8302-46.9764 57.4248-47.3818Q57.0194-47.7872 56.3884-47.7872L25.3123-47.7872Q24.7033-47.7872 24.2805-47.3818Q23.8577-46.9764 23.8577-46.3948Q23.8577-45.7986 24.2805-45.3865Q24.7033-44.9744 25.3123-44.9744ZM56.8982 3.89444Q61.0218 3.89444 64.4416 1.84661Q67.8614-0.201219 69.8916-3.60363Q71.9217-7.00605 71.9217-11.1639Q71.9217-15.2869 69.8916-18.7138Q67.8614-22.1406 64.4416-24.1817Q61.0218-26.2229 56.8982-26.2229Q52.7403-26.2229 49.3204-24.175Q45.9006-22.1272 43.8635-18.7004Q41.8264-15.2736 41.8264-11.1639Q41.8264-7.00605 43.8635-3.60363Q45.9006-0.201219 49.3204 1.84661Q52.7403 3.89444 56.8982 3.89444ZM56.8982 0.822006Q53.6052 0.822006 50.8738-0.800053Q48.1424-2.42211 46.5203-5.14654Q44.8982-7.87098 44.8982-11.1639Q44.8982-14.4435 46.5203-17.1505Q48.1424-19.8575 50.8738-21.497Q53.6052-23.1365 56.8982-23.1365Q60.1777-23.1365 62.8847-21.497Q65.5917-19.8575 67.2071-17.1505Q68.8225-14.4435 68.8225-11.1639Q68.8225-7.87098 67.2071-5.14654Q65.5917-2.42211 62.8847-0.800053Q60.1777 0.822006 56.8982 0.822006ZM76.5292 10.6365Q77.3615 10.6365 77.8701 10.1141Q78.3788 9.59177 78.3788 8.77567Q78.3788 7.99226 77.6641 7.27756L67.5137-2.90823L64.6677-0.332149L74.8454 9.86702Q75.6503 10.6365 76.5292 10.6365Z"/>
  </g>
  <g id="Ultralight-S" transform="matrix(1 0 0 1 519.288 696)">
   <path d="M19.751 3.72009L47.0963 3.72009Q46.386 3.20892 45.742 2.67563Q45.0981 2.14233 44.5267 1.50223L19.8692 1.50223Q15.9538 1.50223 13.9687-0.502396Q11.9835-2.50702 11.9835-6.36978L11.9835-66.8724Q11.9835-70.5994 13.9671-72.6753Q15.9508-74.7513 19.8692-74.7513L60.9772-74.7513Q64.8857-74.7513 66.8957-72.7432Q68.9056-70.7352 68.9056-66.8724L68.9056-22.8798Q69.4992-22.2626 70.0554-21.6202Q70.6116-20.9778 71.0808-20.3133L71.0808-66.9701Q71.0808-71.8582 68.5497-74.4137Q66.0187-76.9691 61.0924-76.9691L19.751-76.9691Q14.9155-76.9691 12.3405-74.4118Q9.76562-71.8544 9.76562-66.9701L9.76562-6.27899Q9.76562-1.39084 12.318 1.16463Q14.8705 3.72009 19.751 3.72009ZM24.4919-59.4406L56.3576-59.4406Q56.8451-59.4406 57.148-59.745Q57.4509-60.0494 57.4509-60.4919Q57.4509-60.9337 57.148-61.2576Q56.8451-61.5814 56.3576-61.5814L24.4919-61.5814Q24.0471-61.5814 23.7217-61.2576Q23.3963-60.9337 23.3963-60.4919Q23.3963-60.0494 23.7217-59.745Q24.0471-59.4406 24.4919-59.4406ZM24.4919-45.887L56.3576-45.887Q56.8451-45.887 57.148-46.1914Q57.4509-46.4958 57.4509-46.9383Q57.4509-47.3763 57.148-47.6791Q56.8451-47.982 56.3576-47.982L24.4919-47.982Q24.0471-47.982 23.7217-47.6791Q23.3963-47.3763 23.3963-46.9383Q23.3963-46.4958 23.7217-46.1914Q24.0471-45.887 24.4919-45.887ZM56.8878 3.72009Q60.7758 3.72009 64.011 1.77994Q67.2462-0.160217 69.1635-3.37296Q71.0808-6.58569 71.0808-10.5179Q71.0808-14.4051 69.1635-17.6422Q67.2462-20.8794 64.011-22.818Q60.7758-24.7566 56.8878-24.7566Q52.9556-24.7566 49.7204-22.8165Q46.4851-20.8763 44.566-17.6392Q42.6468-14.402 42.6468-10.5179Q42.6468-6.58569 44.566-3.37296Q46.4851-0.160217 49.7204 1.77994Q52.9556 3.72009 56.8878 3.72009ZM56.8878 1.56021Q53.5744 1.56021 50.8224-0.0720978Q48.0705-1.70441 46.4382-4.45442Q44.8059-7.20444 44.8059-10.5179Q44.8059-13.8283 46.4382-16.5558Q48.0705-19.2833 50.8224-20.9381Q53.5744-22.5929 56.8878-22.5929Q60.1982-22.5929 62.9257-20.9381Q65.6532-19.2833 67.284-16.5558Q68.9148-13.8283 68.9148-10.5179Q68.9148-7.20444 67.284-4.45442Q65.6532-1.70441 62.9257-0.0720978Q60.1982 1.56021 56.8878 1.56021ZM76.078 10.3493Q76.7258 10.3493 77.0908 9.98077Q77.4559 9.61227 77.4559 9.04236Q77.4559 8.44345 76.8745 7.86209L66.9395-2.11868L64.8727-0.229645L74.8146 9.75418Q75.4555 10.3493 76.078 10.3493Z"/>
  </g>
 </g>
</svg>
