<?xml version="1.0" encoding="UTF-8"?>
<!--Generator: Apple Native CoreSVG 175-->
<!DOCTYPE svg
PUBLIC "-//W3C//DTD SVG 1.1//EN"
       "http://www.w3.org/Graphics/SVG/1.1/DTD/svg11.dtd">
<svg version="1.1" xmlns="http://www.w3.org/2000/svg" xmlns:xlink="http://www.w3.org/1999/xlink" width="3300" height="2200">
 <!--glyph: "uni100391.medium", point size: 100.0, font version: "17.3d3e1", template writer version: "65.1"-->
 <g id="Notes">
  <rect height="2200" id="artboard" style="fill:white;opacity:1" width="3300" x="0" y="0"/>
  <line style="fill:none;stroke:black;opacity:1;stroke-width:0.5;" x1="263" x2="3036" y1="292" y2="292"/>
  <text style="stroke:none;fill:black;font-family:sans-serif;font-size:13;font-weight:bold;" transform="matrix(1 0 0 1 263 322)">Weight/Scale Variations</text>
  <text style="stroke:none;fill:black;font-family:sans-serif;font-size:13;text-anchor:middle;" transform="matrix(1 0 0 1 559.711 322)">Ultralight</text>
  <text style="stroke:none;fill:black;font-family:sans-serif;font-size:13;text-anchor:middle;" transform="matrix(1 0 0 1 856.422 322)">Thin</text>
  <text style="stroke:none;fill:black;font-family:sans-serif;font-size:13;text-anchor:middle;" transform="matrix(1 0 0 1 1153.13 322)">Light</text>
  <text style="stroke:none;fill:black;font-family:sans-serif;font-size:13;text-anchor:middle;" transform="matrix(1 0 0 1 1449.84 322)">Regular</text>
  <text style="stroke:none;fill:black;font-family:sans-serif;font-size:13;text-anchor:middle;" transform="matrix(1 0 0 1 1746.56 322)">Medium</text>
  <text style="stroke:none;fill:black;font-family:sans-serif;font-size:13;text-anchor:middle;" transform="matrix(1 0 0 1 2043.27 322)">Semibold</text>
  <text style="stroke:none;fill:black;font-family:sans-serif;font-size:13;text-anchor:middle;" transform="matrix(1 0 0 1 2339.98 322)">Bold</text>
  <text style="stroke:none;fill:black;font-family:sans-serif;font-size:13;text-anchor:middle;" transform="matrix(1 0 0 1 2636.69 322)">Heavy</text>
  <text style="stroke:none;fill:black;font-family:sans-serif;font-size:13;text-anchor:middle;" transform="matrix(1 0 0 1 2933.4 322)">Black</text>
  <line style="fill:none;stroke:black;opacity:1;stroke-width:0.5;" x1="263" x2="3036" y1="1903" y2="1903"/>
  <g transform="matrix(1 0 0 1 263 1933)">
   <path d="M9.24805 0.830078Q10.8691 0.830078 12.2949 0.214844Q13.7207-0.400391 14.8096-1.49414Q15.8984-2.58789 16.5186-4.01367Q17.1387-5.43945 17.1387-7.05078Q17.1387-8.66211 16.5186-10.0879Q15.8984-11.5137 14.8047-12.6074Q13.7109-13.7012 12.2852-14.3164Q10.8594-14.9316 9.23828-14.9316Q7.62695-14.9316 6.20117-14.3164Q4.77539-13.7012 3.69141-12.6074Q2.60742-11.5137 1.9873-10.0879Q1.36719-8.66211 1.36719-7.05078Q1.36719-5.43945 1.9873-4.01367Q2.60742-2.58789 3.69629-1.49414Q4.78516-0.400391 6.21094 0.214844Q7.63672 0.830078 9.24805 0.830078ZM9.24805-0.654297Q7.91992-0.654297 6.7627-1.14746Q5.60547-1.64062 4.73145-2.51953Q3.85742-3.39844 3.36426-4.56055Q2.87109-5.72266 2.87109-7.05078Q2.87109-8.37891 3.35938-9.54102Q3.84766-10.7031 4.72168-11.582Q5.5957-12.4609 6.75293-12.9541Q7.91016-13.4473 9.23828-13.4473Q10.5762-13.4473 11.7334-12.9541Q12.8906-12.4609 13.7695-11.582Q14.6484-10.7031 15.1465-9.54102Q15.6445-8.37891 15.6445-7.05078Q15.6445-5.72266 15.1514-4.56055Q14.6582-3.39844 13.7842-2.51953Q12.9102-1.64062 11.748-1.14746Q10.5859-0.654297 9.24805-0.654297ZM5.6543-7.05078Q5.6543-6.72852 5.85938-6.52832Q6.06445-6.32812 6.40625-6.32812L8.51562-6.32812L8.51562-4.20898Q8.51562-3.88672 8.71094-3.67676Q8.90625-3.4668 9.23828-3.4668Q9.56055-3.4668 9.77051-3.67676Q9.98047-3.88672 9.98047-4.20898L9.98047-6.32812L12.0898-6.32812Q12.4219-6.32812 12.627-6.52832Q12.832-6.72852 12.832-7.05078Q12.832-7.38281 12.627-7.58789Q12.4219-7.79297 12.0898-7.79297L9.98047-7.79297L9.98047-9.90234Q9.98047-10.2344 9.77051-10.4443Q9.56055-10.6543 9.23828-10.6543Q8.90625-10.6543 8.71094-10.4443Q8.51562-10.2344 8.51562-9.90234L8.51562-7.79297L6.40625-7.79297Q6.06445-7.79297 5.85938-7.58789Q5.6543-7.38281 5.6543-7.05078Z"/>
  </g>
  <g transform="matrix(1 0 0 1 281.867 1933)">
   <path d="M11.709 2.91016Q13.75 2.91016 15.5518 2.12891Q17.3535 1.34766 18.7305-0.0292969Q20.1074-1.40625 20.8887-3.20801Q21.6699-5.00977 21.6699-7.05078Q21.6699-9.0918 20.8887-10.8936Q20.1074-12.6953 18.7305-14.0723Q17.3535-15.4492 15.5469-16.2305Q13.7402-17.0117 11.6992-17.0117Q9.6582-17.0117 7.85645-16.2305Q6.05469-15.4492 4.68262-14.0723Q3.31055-12.6953 2.5293-10.8936Q1.74805-9.0918 1.74805-7.05078Q1.74805-5.00977 2.5293-3.20801Q3.31055-1.40625 4.6875-0.0292969Q6.06445 1.34766 7.86621 2.12891Q9.66797 2.91016 11.709 2.91016ZM11.709 1.25Q9.98047 1.25 8.47656 0.605469Q6.97266-0.0390625 5.83496-1.17676Q4.69727-2.31445 4.05762-3.81836Q3.41797-5.32227 3.41797-7.05078Q3.41797-8.7793 4.05762-10.2832Q4.69727-11.7871 5.83008-12.9297Q6.96289-14.0723 8.4668-14.7119Q9.9707-15.3516 11.6992-15.3516Q13.4277-15.3516 14.9316-14.7119Q16.4355-14.0723 17.5781-12.9297Q18.7207-11.7871 19.3652-10.2832Q20.0098-8.7793 20.0098-7.05078Q20.0098-5.32227 19.3701-3.81836Q18.7305-2.31445 17.5928-1.17676Q16.4551-0.0390625 14.9463 0.605469Q13.4375 1.25 11.709 1.25ZM7.17773-7.05078Q7.17773-6.69922 7.41211-6.47461Q7.64648-6.25 8.01758-6.25L10.8887-6.25L10.8887-3.36914Q10.8887-2.99805 11.1133-2.76855Q11.3379-2.53906 11.6895-2.53906Q12.0605-2.53906 12.29-2.76855Q12.5195-2.99805 12.5195-3.36914L12.5195-6.25L15.4004-6.25Q15.7715-6.25 16.001-6.47461Q16.2305-6.69922 16.2305-7.05078Q16.2305-7.42188 16.001-7.65137Q15.7715-7.88086 15.4004-7.88086L12.5195-7.88086L12.5195-10.752Q12.5195-11.1328 12.29-11.3623Q12.0605-11.5918 11.6895-11.5918Q11.3379-11.5918 11.1133-11.3574Q10.8887-11.123 10.8887-10.752L10.8887-7.88086L8.01758-7.88086Q7.63672-7.88086 7.40723-7.65137Q7.17773-7.42188 7.17773-7.05078Z"/>
  </g>
  <g transform="matrix(1 0 0 1 305.646 1933)">
   <path d="M14.9707 5.66406Q17.0605 5.66406 18.96 5.01465Q20.8594 4.36523 22.4512 3.19336Q24.043 2.02148 25.2197 0.429688Q26.3965-1.16211 27.0459-3.06641Q27.6953-4.9707 27.6953-7.05078Q27.6953-9.14062 27.0459-11.04Q26.3965-12.9395 25.2197-14.5312Q24.043-16.123 22.4512-17.2998Q20.8594-18.4766 18.9551-19.126Q17.0508-19.7754 14.9609-19.7754Q12.8711-19.7754 10.9717-19.126Q9.07227-18.4766 7.48535-17.2998Q5.89844-16.123 4.72168-14.5312Q3.54492-12.9395 2.90039-11.04Q2.25586-9.14062 2.25586-7.05078Q2.25586-4.9707 2.90527-3.06641Q3.55469-1.16211 4.72656 0.429688Q5.89844 2.02148 7.49023 3.19336Q9.08203 4.36523 10.9814 5.01465Q12.8809 5.66406 14.9707 5.66406ZM14.9707 3.84766Q13.1641 3.84766 11.5283 3.2959Q9.89258 2.74414 8.53516 1.74805Q7.17773 0.751953 6.17676-0.610352Q5.17578-1.97266 4.62891-3.6084Q4.08203-5.24414 4.08203-7.05078Q4.08203-8.86719 4.62891-10.5029Q5.17578-12.1387 6.17188-13.501Q7.16797-14.8633 8.52539-15.8594Q9.88281-16.8555 11.5186-17.4023Q13.1543-17.9492 14.9609-17.9492Q16.7773-17.9492 18.4131-17.4023Q20.0488-16.8555 21.4111-15.8594Q22.7734-14.8633 23.7695-13.501Q24.7656-12.1387 25.3174-10.5029Q25.8691-8.86719 25.8691-7.05078Q25.8789-5.24414 25.332-3.6084Q24.7852-1.97266 23.7842-0.610352Q22.7832 0.751953 21.4209 1.74805Q20.0586 2.74414 18.4229 3.2959Q16.7871 3.84766 14.9707 3.84766ZM9.19922-7.05078Q9.19922-6.66992 9.45801-6.4209Q9.7168-6.17188 10.1172-6.17188L14.0625-6.17188L14.0625-2.2168Q14.0625-1.81641 14.3115-1.55762Q14.5605-1.29883 14.9512-1.29883Q15.3516-1.29883 15.6104-1.55273Q15.8691-1.80664 15.8691-2.2168L15.8691-6.17188L19.8242-6.17188Q20.2246-6.17188 20.4785-6.4209Q20.7324-6.66992 20.7324-7.05078Q20.7324-7.46094 20.4785-7.71484Q20.2246-7.96875 19.8242-7.96875L15.8691-7.96875L15.8691-11.9141Q15.8691-12.3242 15.6104-12.583Q15.3516-12.8418 14.9512-12.8418Q14.5605-12.8418 14.3115-12.583Q14.0625-12.3242 14.0625-11.9141L14.0625-7.96875L10.1172-7.96875Q9.70703-7.96875 9.45312-7.71484Q9.19922-7.46094 9.19922-7.05078Z"/>
  </g>
  <text style="stroke:none;fill:black;font-family:sans-serif;font-size:13;font-weight:bold;" transform="matrix(1 0 0 1 263 1953)">Design Variations</text>
  <text style="stroke:none;fill:black;font-family:sans-serif;font-size:13;" transform="matrix(1 0 0 1 263 1971)">Symbols are supported in up to nine weights and three scales.</text>
  <text style="stroke:none;fill:black;font-family:sans-serif;font-size:13;" transform="matrix(1 0 0 1 263 1989)">For optimal layout with text and other symbols, vertically align</text>
  <text style="stroke:none;fill:black;font-family:sans-serif;font-size:13;" transform="matrix(1 0 0 1 263 2007)">symbols with the adjacent text.</text>
  <line style="fill:none;stroke:#00AEEF;stroke-width:0.5;opacity:1.0;" x1="776" x2="776" y1="1919" y2="1933"/>
  <g transform="matrix(1 0 0 1 776 1933)">
   <path d="M3.31055 0.15625Q3.70117 0.15625 3.91602-0.00976562Q4.13086-0.175781 4.26758-0.585938L5.52734-4.0332L11.2891-4.0332L12.5488-0.585938Q12.6855-0.175781 12.9004-0.00976562Q13.1152 0.15625 13.4961 0.15625Q13.8867 0.15625 14.1162-0.0585938Q14.3457-0.273438 14.3457-0.644531Q14.3457-0.869141 14.2383-1.17188L9.6582-13.3691Q9.48242-13.8184 9.17969-14.043Q8.87695-14.2676 8.4082-14.2676Q7.5-14.2676 7.17773-13.3789L2.59766-1.16211Q2.49023-0.859375 2.49023-0.634766Q2.49023-0.263672 2.70996-0.0537109Q2.92969 0.15625 3.31055 0.15625ZM6.00586-5.51758L8.37891-12.0898L8.42773-12.0898L10.8008-5.51758Z"/>
  </g>
  <line style="fill:none;stroke:#00AEEF;stroke-width:0.5;opacity:1.0;" x1="793.197" x2="793.197" y1="1919" y2="1933"/>
  <text style="stroke:none;fill:black;font-family:sans-serif;font-size:13;font-weight:bold;" transform="matrix(1 0 0 1 776 1953)">Margins</text>
  <text style="stroke:none;fill:black;font-family:sans-serif;font-size:13;" transform="matrix(1 0 0 1 776 1971)">Leading and trailing margins on the left and right side of each symbol</text>
  <text style="stroke:none;fill:black;font-family:sans-serif;font-size:13;" transform="matrix(1 0 0 1 776 1989)">can be adjusted by modifying the x-location of the margin guidelines.</text>
  <text style="stroke:none;fill:black;font-family:sans-serif;font-size:13;" transform="matrix(1 0 0 1 776 2007)">Modifications are automatically applied proportionally to all</text>
  <text style="stroke:none;fill:black;font-family:sans-serif;font-size:13;" transform="matrix(1 0 0 1 776 2025)">scales and weights.</text>
  <g transform="matrix(1 0 0 1 1289 1933)">
   <path d="M2.8418 1.86523L4.54102 3.57422Q5.18555 4.22852 5.90332 4.17969Q6.62109 4.13086 7.31445 3.35938L18.0078-8.42773L17.041-9.4043L6.42578 2.27539Q6.16211 2.57812 5.89355 2.61719Q5.625 2.65625 5.27344 2.30469L4.10156 1.14258Q3.75 0.791016 3.79395 0.522461Q3.83789 0.253906 4.14062-0.0195312L15.6152-10.8203L14.6387-11.7871L3.04688-0.898438Q2.30469-0.214844 2.25098 0.498047Q2.19727 1.21094 2.8418 1.86523ZM9.25781-16.3281Q8.94531-16.0254 8.90625-15.6348Q8.86719-15.2441 9.04297-14.9512Q9.21875-14.6777 9.55566-14.541Q9.89258-14.4043 10.3809-14.5215Q11.4746-14.7754 12.5977-14.7314Q13.7207-14.6875 14.7949-13.9844L14.209-12.5293Q13.9551-11.9043 14.0674-11.4404Q14.1797-10.9766 14.5801-10.5664L16.875-8.25195Q17.2363-7.88086 17.5781-7.82227Q17.9199-7.76367 18.3398-7.8418L19.4043-8.03711L20.0684-7.36328L20.0293-6.80664Q20-6.43555 20.1221-6.12305Q20.2441-5.81055 20.6055-5.44922L21.3672-4.70703Q21.7285-4.3457 22.1533-4.33105Q22.5781-4.31641 22.9297-4.66797L25.8398-7.58789Q26.1914-7.93945 26.1816-8.35449Q26.1719-8.76953 25.8105-9.13086L25.0391-9.89258Q24.6875-10.2539 24.3799-10.3857Q24.0723-10.5176 23.7109-10.4883L23.1348-10.4395L22.4902-11.0742L22.7344-12.1973Q22.832-12.6172 22.6953-12.9834Q22.5586-13.3496 22.1191-13.7891L19.9219-15.9766Q18.6719-17.2168 17.2607-17.8369Q15.8496-18.457 14.4189-18.4814Q12.9883-18.5059 11.665-17.959Q10.3418-17.4121 9.25781-16.3281ZM10.752-15.957Q11.6602-16.6211 12.7002-16.9043Q13.7402-17.1875 14.8047-17.085Q15.8691-16.9824 16.8701-16.5137Q17.8711-16.0449 18.7012-15.2051L21.1328-12.793Q21.3086-12.6172 21.3525-12.4512Q21.3965-12.2852 21.3379-12.0312L21.0156-10.5469L22.5195-9.0625L23.5059-9.12109Q23.6914-9.13086 23.7891-9.09668Q23.8867-9.0625 24.0332-8.91602L24.6094-8.33984L22.168-5.89844L21.5918-6.47461Q21.4453-6.62109 21.4062-6.71875Q21.3672-6.81641 21.377-7.01172L21.4453-7.98828L19.9512-9.47266L18.4277-9.21875Q18.1836-9.16992 18.042-9.2041Q17.9004-9.23828 17.7148-9.41406L15.7129-11.416Q15.5176-11.5918 15.4932-11.7529Q15.4688-11.9141 15.5859-12.1875L16.4648-14.2773Q15.293-15.3711 13.8281-15.791Q12.3633-16.2109 10.8398-15.7617Q10.7227-15.7324 10.6885-15.8057Q10.6543-15.8789 10.752-15.957Z"/>
  </g>
  <text style="stroke:none;fill:black;font-family:sans-serif;font-size:13;font-weight:bold;" transform="matrix(1 0 0 1 1289 1953)">Exporting</text>
  <text style="stroke:none;fill:black;font-family:sans-serif;font-size:13;" transform="matrix(1 0 0 1 1289 1971)">Symbols should be outlined when exporting to ensure the</text>
  <text style="stroke:none;fill:black;font-family:sans-serif;font-size:13;" transform="matrix(1 0 0 1 1289 1989)">design is preserved when submitting to Xcode.</text>
  <text id="template-version" style="stroke:none;fill:black;font-family:sans-serif;font-size:13;text-anchor:end;" transform="matrix(1 0 0 1 3036 1933)">Template v.3.0</text>
  <text style="stroke:none;fill:black;font-family:sans-serif;font-size:13;text-anchor:end;" transform="matrix(1 0 0 1 3036 1951)">Requires Xcode 13 or greater</text>
  <text id="descriptive-name" style="stroke:none;fill:black;font-family:sans-serif;font-size:13;text-anchor:end;" transform="matrix(1 0 0 1 3036 1969)">Generated from paintbrush</text>
  <text style="stroke:none;fill:black;font-family:sans-serif;font-size:13;text-anchor:end;" transform="matrix(1 0 0 1 3036 1987)">Typeset at 100 points</text>
  <text style="stroke:none;fill:black;font-family:sans-serif;font-size:13;" transform="matrix(1 0 0 1 263 726)">Small</text>
  <text style="stroke:none;fill:black;font-family:sans-serif;font-size:13;" transform="matrix(1 0 0 1 263 1156)">Medium</text>
  <text style="stroke:none;fill:black;font-family:sans-serif;font-size:13;" transform="matrix(1 0 0 1 263 1586)">Large</text>
 </g>
 <g id="Guides">
  <g id="H-reference" style="fill:#27AAE1;stroke:none;" transform="matrix(1 0 0 1 339 696)">
   <path d="M0.993347 0L3.6377 0L29.3282-67.1326L30.0301-67.1326L30.0301-70.459L28.1227-70.459ZM11.6882-24.4797L46.9818-24.4797L46.2311-26.7288L12.4382-26.7288ZM55.1193 0L57.7637 0L30.6381-70.459L29.4327-70.459L29.4327-67.1326Z"/>
  </g>
  <line id="Baseline-S" style="fill:none;stroke:#27AAE1;opacity:1;stroke-width:0.5;" x1="263" x2="3036" y1="696" y2="696"/>
  <line id="Capline-S" style="fill:none;stroke:#27AAE1;opacity:1;stroke-width:0.5;" x1="263" x2="3036" y1="625.541" y2="625.541"/>
  <g id="H-reference" style="fill:#27AAE1;stroke:none;" transform="matrix(1 0 0 1 339 1126)">
   <path d="M0.993347 0L3.6377 0L29.3282-67.1326L30.0301-67.1326L30.0301-70.459L28.1227-70.459ZM11.6882-24.4797L46.9818-24.4797L46.2311-26.7288L12.4382-26.7288ZM55.1193 0L57.7637 0L30.6381-70.459L29.4327-70.459L29.4327-67.1326Z"/>
  </g>
  <line id="Baseline-M" style="fill:none;stroke:#27AAE1;opacity:1;stroke-width:0.5;" x1="263" x2="3036" y1="1126" y2="1126"/>
  <line id="Capline-M" style="fill:none;stroke:#27AAE1;opacity:1;stroke-width:0.5;" x1="263" x2="3036" y1="1055.54" y2="1055.54"/>
  <g id="H-reference" style="fill:#27AAE1;stroke:none;" transform="matrix(1 0 0 1 339 1556)">
   <path d="M0.993347 0L3.6377 0L29.3282-67.1326L30.0301-67.1326L30.0301-70.459L28.1227-70.459ZM11.6882-24.4797L46.9818-24.4797L46.2311-26.7288L12.4382-26.7288ZM55.1193 0L57.7637 0L30.6381-70.459L29.4327-70.459L29.4327-67.1326Z"/>
  </g>
  <line id="Baseline-L" style="fill:none;stroke:#27AAE1;opacity:1;stroke-width:0.5;" x1="263" x2="3036" y1="1556" y2="1556"/>
  <line id="Capline-L" style="fill:none;stroke:#27AAE1;opacity:1;stroke-width:0.5;" x1="263" x2="3036" y1="1485.54" y2="1485.54"/>
  <line id="left-margin-Regular-M" style="fill:none;stroke:#00AEEF;stroke-width:0.5;opacity:1.0;" x1="1386.73" x2="1386.73" y1="1030.79" y2="1150.12"/>
  <line id="right-margin-Regular-M" style="fill:none;stroke:#00AEEF;stroke-width:0.5;opacity:1.0;" x1="1512.96" x2="1512.96" y1="1030.79" y2="1150.12"/>
 </g>
 <g id="Symbols">
  <g id="Black-L" transform="matrix(1 0 0 1 2847.22 1556)">
   <path d="M23.8434 36.1281Q33.1125 45.3947 43.4481 45.5043Q53.7838 45.6139 62.9492 36.4849Q65.6382 33.8751 68.3036 29.929Q70.9691 25.9828 73.5615 21.6137Q76.154 17.2446 78.5642 13.1495Q80.9744 9.05426 83.0373 6.12441L94.9857 18.1521Q99.9137 23.1009 105.674 23.1295Q111.434 23.1581 116.144 18.3886L124.915 9.53996Q129.763 4.69119 129.694-0.97893Q129.625-6.64905 124.677-11.5382L71.5473-64.7266Q66.5985-69.7338 60.9186-69.7436Q55.2387-69.7534 50.3315-64.9059L41.6205-56.1937Q36.7926-51.3669 36.8498-45.7046Q36.907-40.0423 41.8558-35.0351L53.747-23.0866Q50.8964-20.9665 46.8304-18.5563Q42.7644-16.1461 38.3662-13.5537Q33.9679-10.9612 30.0509-8.29576Q26.134-5.63031 23.5241-2.99968Q14.3952 6.1669 14.4756 16.513Q14.556 26.859 23.8434 36.1281ZM56.5387-45.1342L60.7318-49.2856Q61.845-50.3988 62.9363-49.3064L109.199-3.044Q110.289-1.95394 109.177-0.839464L105.026 3.33153Q103.894 4.48644 102.722 3.35234L87.3947-12.0153Q84.8561-14.5747 81.577-14.4077Q78.2978-14.2406 75.3827-11.462Q73.5639-9.70277 71.1132-5.48898Q68.6624-1.27519 65.7125 4.0129Q62.7626 9.30099 59.3257 14.5113Q55.8888 19.7216 52.0406 23.5126Q48.4793 27.0751 44.3806 27.0447Q40.2819 27.0143 36.5782 23.3701Q32.9364 19.6688 32.906 15.5299Q32.8756 11.391 36.4173 7.85044Q40.2667 4.05946 45.4874 0.652394Q50.7081-2.75468 55.9962-5.7338Q61.2843-8.71293 65.4981-11.1631Q69.7119-13.6133 71.471-15.4321Q74.2485-18.3483 74.4161-21.6269Q74.5838-24.9054 71.9868-27.444L56.5387-42.9088Q55.4255-43.9637 56.5387-45.1342ZM44.3311 22.2812Q47.0746 22.2812 48.9732 20.3528Q50.8717 18.4244 50.8717 15.7173Q50.8717 13.0113 48.9732 11.0928Q47.0746 9.17421 44.3311 9.17421Q41.6823 9.17421 39.7241 11.0928Q37.766 13.0113 37.766 15.7173Q37.766 18.4244 39.7241 20.3528Q41.6823 22.2812 44.3311 22.2812ZM119.427 0.418777L151.694-31.7898Q158.041-38.1166 157.893-45.3623Q157.745-52.608 151.319-59.0919L101.509-108.982Q97.0113-113.537 91.4571-113.848Q85.903-114.16 81.3623-110.856Q76.8216-107.552 75.3281-101.074Q73.3104-92.2627 71.9477-86.669Q70.5849-81.0752 69.4781-77.4295Q68.3712-73.7838 67.0139-71.0061Q65.6566-68.2284 63.6413-65.2199Q61.626-62.2113 58.4067-57.7334L70.5147-45.7642Q75.8288-52.2322 78.8435-57.2726Q81.8582-62.313 83.6626-67.188Q85.4671-72.063 86.9769-77.8481Q88.4866-83.6331 90.696-91.6112Q91.0325-92.6462 91.7245-92.8799Q92.4165-93.1136 93.1935-92.3574L138.543-47.0292Q139.812-45.8184 139.821-44.8577Q139.831-43.897 138.779-42.8447L107.501-11.5075ZM108.622-39.2634Q109.909-38.0362 113.477-39.0415Q117.046-40.0467 121.549-42.4697Q126.053-44.8927 130.205-48.0291Q134.357-51.1655 136.689-54.141L122.856-67.9733Q121.972-59.5888 118.032-53.2862Q114.091-46.9837 108.783-41.6759Q107.497-40.3892 108.622-39.2634Z"/>
  </g>
  <g id="Heavy-L" transform="matrix(1 0 0 1 2551.73 1556)">
   <path d="M23.4888 35.0472Q32.4027 43.9497 42.3332 44.0525Q52.2637 44.1552 61.0558 35.372Q63.8071 32.6955 66.5289 28.6207Q69.2506 24.546 71.893 20.039Q74.5354 15.5321 76.9839 11.3789Q79.4324 7.22573 81.5538 4.35655L93.916 16.7936Q98.5219 21.4297 103.875 21.4492Q109.229 21.4686 113.635 17.0124L122.234 8.3437Q126.76 3.81261 126.7-1.44802Q126.64-6.70864 122.01-11.2944L69.8448-63.504Q65.2087-68.1846 59.9358-68.1969Q54.663-68.2092 50.0873-63.6838L41.5379-55.1288Q37.0371-50.6336 37.0761-45.3623Q37.1151-40.091 41.7511-35.4103L54.0744-23.048Q51.28-20.8877 47.1491-18.4391Q43.0183-15.9906 38.489-13.3482Q33.9597-10.7058 29.9073-7.98415Q25.8549-5.26246 23.1783-2.55565Q14.3952 6.24199 14.4756 16.1877Q14.556 26.1333 23.4888 35.0472ZM54.8523-45.4387L59.3024-49.8284Q60.7603-51.2863 62.1823-49.8585L108.32-3.72113Q109.736-2.30472 108.284-0.841187L103.9 3.57311Q102.417 5.09136 100.915 3.60325L85.6283-11.7381Q83.2993-14.0972 80.3094-13.9409Q77.3195-13.7846 74.6411-11.22Q72.8012-9.43047 70.3243-5.17967Q67.8473-0.928871 64.8772 4.40147Q61.9072 9.73181 58.4675 14.9603Q55.0279 20.1888 51.2239 23.9538Q47.4028 27.7805 43.0242 27.7526Q38.6457 27.7247 34.6826 23.8119Q30.7811 19.8602 30.7532 15.4414Q30.7252 11.0225 34.5218 7.2316Q38.3314 3.46661 43.575 0.0521093Q48.8186-3.36239 54.1489-6.35476Q59.4792-9.34713 63.73-11.8213Q67.9808-14.2955 69.7704-16.1353Q72.3294-18.8194 72.4885-21.8065Q72.6476-24.7936 70.2739-27.1225L54.8523-42.5285Q53.3944-43.9417 54.8523-45.4387ZM42.9065 22.5353Q45.7382 22.5353 47.7227 20.5256Q49.7073 18.516 49.7073 15.6931Q49.7073 12.8758 47.7227 10.8784Q45.7382 8.88101 42.9065 8.88101Q40.1282 8.88101 38.0934 10.8784Q36.0586 12.8758 36.0586 15.6931Q36.0586 18.516 38.0934 20.5256Q40.1282 22.5353 42.9065 22.5353ZM117.846-0.793997L149.507-32.4108Q155.591-38.4645 155.457-45.3887Q155.322-52.3129 149.169-58.5105L99.4735-108.281Q95.2684-112.525 90.0325-112.834Q84.7966-113.144 80.4964-110.042Q76.1962-106.941 74.7893-100.8Q72.8394-92.293 71.5065-86.7902Q70.1736-81.2874 69.0694-77.6103Q67.9653-73.9331 66.6105-71.0829Q65.2556-68.2327 63.2698-65.2035Q61.284-62.1743 58.1503-57.8176L69.008-47.0851Q74.0082-53.2751 76.8977-58.1655Q79.7872-63.0559 81.5597-67.8719Q83.3321-72.6879 84.8557-78.5146Q86.3793-84.3412 88.5941-92.4339Q89.0122-93.8353 89.9646-94.1489Q90.917-94.4626 91.9041-93.5056L137.71-47.7301Q139.224-46.2601 139.237-44.9175Q139.249-43.5749 137.929-42.2545L107.185-11.4606ZM107.33-39.5807Q108.617-38.3441 112.181-39.3494Q115.744-40.3546 120.248-42.7823Q124.751-45.2101 128.908-48.3464Q133.065-51.4828 135.397-54.4584L121.559-68.2906Q120.68-59.8968 116.739-53.5989Q112.799-47.301 107.491-41.9933Q106.204-40.7065 107.33-39.5807Z"/>
  </g>
  <g id="Bold-L" transform="matrix(1 0 0 1 2256.58 1556)">
   <path d="M23.0358 33.7176Q31.5043 42.1593 40.9241 42.2544Q50.3438 42.3494 58.6675 34.0039Q61.518 31.2206 64.3201 26.9659Q67.1222 22.7113 69.8298 18.0166Q72.5374 13.3219 75.0395 9.07707Q77.5416 4.83228 79.747 2.0176L92.706 15.0437Q96.89 19.2657 101.725 19.2737Q106.56 19.2816 110.567 15.2321L118.922 6.82351Q123.026 2.70665 122.977-2.03567Q122.929-6.77799 118.721-10.9575L67.7021-62.0052Q63.48-66.2562 58.7254-66.2686Q53.9708-66.281 49.8248-62.1775L41.5125-53.8519Q37.4337-49.7865 37.4497-45.0142Q37.4657-40.2419 41.6875-35.9907L54.6307-23.0317Q51.8831-20.8102 47.6529-18.3081Q43.4227-15.806 38.7134-13.0983Q34.004-10.3907 29.764-7.58873Q25.524-4.78674 22.7406-1.96527Q14.3952 6.37151 14.4756 15.8104Q14.556 25.2492 23.0358 33.7176ZM52.7623-45.8301L57.5723-50.5641Q59.4157-52.4074 61.2078-50.602L107.288-4.52142Q109.067-2.74262 107.237-0.885925L102.516 3.87281Q100.648 5.79215 98.7756 3.91069L83.4757-11.452Q81.4079-13.5577 78.779-13.4242Q76.1502-13.2907 73.7712-10.9949Q71.8784-9.14461 69.3521-4.82163Q66.8257-0.498649 63.8251 4.90038Q60.8245 10.2994 57.3885 15.5509Q53.9524 20.8025 50.2245 24.5143Q46.0807 28.6714 41.349 28.6435Q36.6172 28.6157 32.324 24.3649Q28.0999 20.0984 28.0719 15.3263Q28.044 10.5542 32.1632 6.44831Q35.9042 2.7365 41.1748-0.678284Q46.4454-4.09307 51.8443-7.10828Q57.2432-10.1235 61.5662-12.6433Q65.8892-15.1631 67.7395-17.0559Q70.0221-19.4481 70.1622-22.0704Q70.3023-24.6926 68.2053-26.7602L52.7623-42.1565Q50.919-43.9707 52.7623-45.8301ZM41.1095 22.7982Q44.0265 22.7982 46.0924 20.711Q48.1584 18.6237 48.1584 15.6848Q48.1584 12.7589 46.0924 10.6841Q44.0265 8.60924 41.1095 8.60924Q38.1996 8.60924 36.0912 10.6841Q33.9828 12.7589 33.9828 15.6848Q33.9828 18.6237 36.0912 20.711Q38.1996 22.7982 41.1095 22.7982ZM115.804-2.29254L146.706-33.1642Q152.452-38.8726 152.336-45.4009Q152.221-51.9293 146.421-57.7585L96.9158-107.331Q93.0646-111.198 88.2355-111.507Q83.4064-111.817 79.4208-108.965Q75.4351-106.113 74.1357-100.395Q72.2778-92.2866 70.9795-86.899Q69.6813-81.5114 68.5735-77.7884Q67.4657-74.0654 66.111-71.1194Q64.7562-68.1733 62.8088-65.121Q60.8613-62.0686 57.85-57.8878L67.111-48.7367Q71.712-54.5809 74.4441-59.2794Q77.1761-63.978 78.9101-68.7172Q80.6441-73.4565 82.1831-79.3257Q83.7221-85.1949 85.9296-93.4185Q86.4551-95.3181 87.7563-95.7278Q89.0576-96.1375 90.2984-94.9346L136.658-48.6133Q138.487-46.8132 138.499-44.9831Q138.512-43.153 136.846-41.4872L106.756-11.3545ZM105.762-40.0695Q107.049-38.8251 110.608-39.8303Q114.168-40.8356 118.672-43.2672Q123.175-45.6989 127.336-48.8352Q131.496-51.9716 133.828-54.9472L119.983-68.7794Q119.112-60.3778 115.171-54.0838Q111.23-47.7898 105.923-42.4821Q104.636-41.1953 105.762-40.0695Z"/>
  </g>
  <g id="Semibold-L" transform="matrix(1 0 0 1 1960.95 1556)">
   <path d="M22.7236 32.801Q30.8849 40.9251 39.9526 41.0148Q49.0203 41.1045 57.021 33.0608Q59.9398 30.2038 62.7973 25.8251Q65.6548 21.4465 68.4074 16.6223Q71.16 11.7982 73.699 7.49021Q76.2381 3.18224 78.5015 0.405145L91.8719 13.8373Q95.765 17.7739 100.243 17.7739Q104.721 17.7739 108.453 14.0047L116.639 5.77551Q120.451 1.94422 120.411-2.4408Q120.371-6.82581 116.453-10.7252L66.2249-60.972Q62.2883-64.9268 57.891-64.9393Q53.4937-64.9517 49.6438-61.1391L41.495-52.9716Q37.7072-49.2025 37.7073-44.7742Q37.7074-40.346 41.6437-36.3908L55.0141-23.0204Q52.2988-20.7568 48.0002-18.2177Q43.7015-15.6787 38.8681-12.9261Q34.0346-10.1735 29.6652-7.31613Q25.2959-4.45878 22.4389-1.55826Q14.3952 6.46079 14.4756 15.5502Q14.556 24.6397 22.7236 32.801ZM51.3216-46.1L56.3796-51.0713Q58.4887-53.1804 60.536-51.1145L106.577-5.07313Q108.606-3.0445 106.515-0.916768L101.562 4.07942Q99.4285 6.27527 97.3008 4.12263L81.9918-11.2548Q80.104-13.1858 77.724-13.068Q75.344-12.9501 73.1716-10.8397Q71.2422-8.94754 68.6819-4.5748Q66.1215-0.202057 63.0998 5.24433Q60.0781 10.6907 56.6445 15.9581Q53.211 21.2255 49.5356 24.9007Q45.1694 29.2855 40.1941 29.2577Q35.2188 29.23 30.698 24.7461Q26.2514 20.2626 26.2235 15.2469Q26.1956 10.2313 30.5372 5.90832Q34.2309 2.23317 39.5201-1.18181Q44.8093-4.59679 50.2555-7.62776Q55.7017-10.6587 60.0745-13.2099Q64.4472-15.7611 66.3393-17.6905Q68.4314-19.8816 68.5585-22.2522Q68.6855-24.6229 66.7791-26.5104L51.3216-41.9001Q49.2125-43.9906 51.3216-46.1ZM39.8707 22.9794Q42.8464 22.9794 44.9685 20.8387Q47.0906 18.698 47.0906 15.679Q47.0906 12.6784 44.9685 10.5501Q42.8464 8.42189 39.8707 8.42189Q36.87 8.42189 34.7109 10.5501Q32.5517 12.6784 32.5517 15.679Q32.5517 18.698 34.7109 20.8387Q36.87 22.9794 39.8707 22.9794ZM114.397-3.32563L144.774-33.6837Q150.287-39.1538 150.185-45.4094Q150.083-51.6649 144.526-57.24L95.1526-106.676Q91.5453-110.283 86.9966-110.592Q82.448-110.902 78.6792-108.222Q74.9104-105.543 73.6851-100.116Q71.8906-92.2822 70.6163-86.974Q69.3419-81.6658 68.2316-77.9112Q67.1213-74.1565 65.7666-71.1445Q64.4119-68.1324 62.4909-65.0641Q60.57-61.9958 57.643-57.9362L65.8032-49.8753Q70.1291-55.4811 72.7526-60.0474Q75.3761-64.6136 77.0836-69.3Q78.791-73.9864 80.3407-79.8849Q81.8903-85.7834 84.0928-94.0972Q84.6923-96.3403 86.234-96.8162Q87.7757-97.2922 89.1914-95.9197L135.932-49.2222Q137.979-47.1944 137.991-45.0282Q138.003-42.8621 136.1-40.9582L106.46-11.2814ZM104.68-40.4064Q105.967-39.1566 109.524-40.1619Q113.081-41.1671 117.585-43.6015Q122.088-46.0358 126.252-49.1722Q130.415-52.3086 132.747-55.2841L118.896-69.1164Q118.03-60.7095 114.09-54.4181Q110.149-48.1268 104.841-42.819Q103.555-41.5323 104.68-40.4064Z"/>
  </g>
  <g id="Medium-L" transform="matrix(1 0 0 1 1665.05 1556)">
   <path d="M22.4868 32.106Q30.4153 39.9892 39.216 40.0749Q48.0167 40.1606 55.7726 32.3457Q58.7432 29.4328 61.6427 24.9601Q64.5422 20.4874 67.3289 15.5651Q70.1156 10.6428 72.6827 6.28698Q75.2497 1.93112 77.557-0.817487L91.2394 12.9226Q94.9119 16.6428 99.1189 16.6367Q103.326 16.6307 106.85 13.0741L114.907 4.98087Q118.5 1.36611 118.465-2.74798Q118.431-6.86206 114.734-10.5491L65.1048-60.1885Q61.3846-63.9188 57.2582-63.9313Q53.1318-63.9438 49.5066-60.3517L41.4817-52.3041Q37.9145-48.7597 37.9026-44.5923Q37.8907-40.4248 41.6105-36.6942L55.3049-23.0118Q52.6141-20.7163 48.2635-18.1492Q43.9129-15.5821 38.9853-12.7954Q34.0578-10.0088 29.5903-7.10943Q25.1229-4.2101 22.2101-1.24965Q14.3952 6.52849 14.4756 15.353Q14.556 24.1775 22.4868 32.106ZM50.2291-46.3046L55.4752-51.4558Q57.7858-53.7665 60.0265-51.5031L106.038-5.49146Q108.256-3.27341 105.968-0.940154L100.839 4.23608Q98.5037 6.64159 96.1826 4.28334L80.8666-11.1053Q79.1153-12.9038 76.9241-12.7979Q74.7328-12.6919 72.7169-10.722Q70.7598-8.79812 68.1737-4.38764Q65.5875 0.0228321 62.5498 5.50513Q59.5122 10.9874 56.0805 16.2669Q52.6488 21.5463 49.0132 25.1937Q44.4783 29.7512 39.3184 29.7235Q34.1585 29.6958 29.4651 25.0352Q24.8498 20.3871 24.8219 15.1868Q24.794 9.98648 29.3043 5.49887Q32.9621 1.85152 38.2654-1.56361Q43.5687-4.97874 49.0508-8.02164Q54.5329-11.0645 58.9434-13.6396Q63.3538-16.2146 65.2777-18.1717Q67.2253-20.2102 67.3424-22.3902Q67.4595-24.5701 65.6978-26.321L50.2291-41.7057Q47.9185-44.0058 50.2291-46.3046ZM38.9314 23.1168Q41.9516 23.1168 44.1163 20.9356Q46.281 18.7543 46.281 15.6747Q46.281 12.6173 44.1163 10.4486Q41.9516 8.27982 38.9314 8.27982Q35.8619 8.27982 33.6643 10.4486Q31.4666 12.6173 31.4666 15.6747Q31.4666 18.7543 33.6643 20.9356Q35.8619 23.1168 38.9314 23.1168ZM113.33-4.10896L143.31-34.0775Q148.646-39.3671 148.554-45.4157Q148.462-51.4644 143.09-56.8469L93.8156-106.179Q90.3933-109.589 86.0573-109.899Q81.7213-110.208 78.1169-107.659Q74.5125-105.11 73.3435-99.9042Q71.597-92.2789 70.3408-87.0309Q69.0846-81.7829 67.9724-78.0043Q66.8602-74.2257 65.5055-71.1635Q64.1509-68.1013 62.25-65.0209Q60.349-61.9406 57.4861-57.9729L64.8116-50.7387Q68.9288-56.1637 71.47-60.6297Q74.0112-65.0956 75.6986-69.7419Q77.386-74.3882 78.9436-80.3089Q80.5013-86.2296 82.7-94.6119Q83.3556-97.1153 85.0797-97.6415Q86.8037-98.1677 88.352-96.6667L135.383-49.6838Q137.593-47.4835 137.606-45.0625Q137.618-42.6416 135.534-40.5571L106.235-11.226ZM103.861-40.662Q105.147-39.408 108.702-40.4133Q112.257-41.4185 116.761-43.8549Q121.264-46.2913 125.43-49.4277Q129.595-52.5641 131.927-55.5396L118.073-69.3719Q117.21-60.9609 113.27-54.6716Q109.329-48.3823 104.021-43.0745Q102.735-41.7878 103.861-40.662Z"/>
  </g>
  <g id="Regular-L" transform="matrix(1 0 0 1 1369.41 1556)">
   <path d="M22.178 31.1995Q29.8028 38.7685 38.2552 38.8489Q46.7077 38.9293 54.1442 31.4129Q57.1824 28.4272 60.1367 23.8318Q63.091 19.2364 65.9222 14.1862Q68.7533 9.13589 71.3569 4.71755Q73.9605 0.299219 76.3252-2.41222L90.4144 11.7295Q93.7992 15.1674 97.6529 15.1534Q101.507 15.1395 104.759 11.8602L112.649 3.94438Q115.954 0.612048 115.927-3.14865Q115.901-6.90935 112.491-10.3193L63.6438-59.1666Q60.206-62.604 56.4329-62.6166Q52.6599-62.6291 49.3276-59.3247L41.4643-51.4335Q38.185-48.1821 38.1574-44.3549Q38.1297-40.5277 41.5671-37.0899L55.6842-23.0007Q53.0253-20.6634 48.6069-18.0598Q44.1886-15.4562 39.1383-12.6251Q34.0881-9.79391 29.4927-6.83983Q24.8973-3.88575 21.9116-0.847117Q14.3952 6.6168 14.4756 15.0958Q14.556 23.5747 22.178 31.1995ZM48.8041-46.5715L54.2956-51.9575Q56.8691-54.5309 59.3621-52.01L105.335-6.03711Q107.8-3.57197 105.255-0.970657L99.896 4.44042Q97.2974 7.1194 94.724 4.49296L79.3989-10.9103Q77.8257-12.536 75.8806-12.4455Q73.9355-12.3551 72.1238-10.5685Q70.1306-8.60321 67.5108-4.14352Q64.891 0.316165 61.8325 5.84529Q58.774 11.3744 55.3447 16.6696Q51.9155 21.9647 48.3318 25.5758Q43.5769 30.3586 38.1762 30.3309Q32.7754 30.3033 27.857 25.4122Q23.0217 20.5495 22.9938 15.1083Q22.9659 9.66714 27.6961 4.96482Q31.3072 1.35372 36.6289-2.0616Q41.9505-5.47693 47.4794-8.53541Q53.0083-11.5939 57.468-14.2Q61.9277-16.8061 63.893-18.7993Q65.6522-20.6389 65.7563-22.5701Q65.8605-24.5012 64.2873-26.074L48.8041-41.452Q46.2307-44.0255 48.8041-46.5715ZM37.7062 23.2961Q40.7845 23.2961 43.0047 21.0619Q45.2249 18.8278 45.2249 15.669Q45.2249 12.5377 43.0047 10.3161Q40.7845 8.09453 37.7062 8.09453Q34.547 8.09453 32.2991 10.3161Q30.0513 12.5377 30.0513 15.669Q30.0513 18.8278 32.2991 21.0619Q34.547 23.2961 37.7062 23.2961ZM111.938-5.13069L141.399-34.5912Q146.506-39.6453 146.427-45.4241Q146.347-51.2028 141.216-56.3341L92.0718-105.531Q88.8907-108.685 84.832-108.994Q80.7734-109.303 77.3835-106.924Q73.9936-104.546 72.8979-99.6279Q71.2141-92.2746 69.9815-87.1051Q68.7489-81.9356 67.6342-78.1257Q66.5196-74.3158 65.165-71.1883Q63.8104-68.0608 61.9356-64.9647Q60.0608-61.8685 57.2814-58.0207L63.5182-51.8648Q67.3632-57.0541 69.7971-61.3892Q72.2309-65.7243 73.8921-70.3183Q75.5532-74.9122 77.1214-80.8619Q78.6896-86.8116 80.8833-95.2831Q81.6121-98.1263 83.574-98.718Q85.536-99.3098 87.2572-97.641L134.665-50.286Q137.09-47.8605 137.103-45.1072Q137.115-42.3539 134.796-40.034L105.943-11.1537ZM102.791-40.9952Q104.078-39.7359 107.63-40.7412Q111.183-41.7464 115.686-44.1855Q120.19-46.6246 124.358-49.761Q128.525-52.8974 130.858-55.8729L116.998-69.7051Q116.141-61.2889 112.2-55.0022Q108.26-48.7155 102.952-43.4078Q101.665-42.1211 102.791-40.9952Z"/>
  </g>
  <g id="Light-L" transform="matrix(1 0 0 1 1074.1 1556)">
   <path d="M21.7772 30.3408Q29.0585 37.5279 37.1005 37.6083Q45.1426 37.6887 52.2167 30.5349Q55.4646 27.3203 58.543 22.4673Q61.6214 17.6142 64.5194 12.3254Q67.4175 7.03655 70.0974 2.42727Q72.7773-2.18202 75.2753-4.98869L90.3188 10.0881Q93.2647 13.068 96.6699 13.0445Q100.075 13.0209 102.907 10.1424L110.416 2.64668Q113.282-0.265908 113.265-3.59725Q113.248-6.92859 110.315-9.86145L61.9453-58.2316Q58.9654-61.2108 55.6409-61.2042Q52.3165-61.1977 49.4039-58.3322L41.9415-50.8227Q39.063-47.9913 39.0162-44.6031Q38.9695-41.2149 41.9487-38.2349L57.0393-23.1915Q54.2659-20.7398 49.6566-18.0598Q45.0473-15.3799 39.7585-12.4819Q34.4696-9.58388 29.6166-6.50587Q24.7635-3.42785 21.549-0.179191Q14.3952 6.9413 14.4756 15.0004Q14.556 23.0594 21.7772 30.3408ZM47.3538-46.9342L53.3606-52.8736Q55.934-55.447 58.427-52.9069L104.992-6.34238Q107.437-3.89648 104.911-1.27592L99.0181 4.65044Q96.4576 7.29127 93.8842 4.68375L78.1394-11.0821Q76.757-12.4978 75.079-12.4837Q73.401-12.4695 71.8375-10.893Q69.6343-8.73693 66.8714-4.05775Q64.1086 0.621429 60.9929 6.30335Q57.8771 11.9853 54.4955 17.2995Q51.1138 22.6137 47.721 26.053Q42.7371 31.0839 37.0502 31.0372Q31.3633 30.9904 26.1585 25.832Q21.0942 20.7214 21.0471 14.9939Q21 9.26632 25.9976 4.31581Q29.4368 0.876584 34.7681-2.4815Q40.0994-5.83959 45.7809-8.95531Q51.4625-12.071 56.1416-14.8107Q60.8208-17.5504 62.9769-19.7536Q64.5071-21.3642 64.5444-23.0187Q64.5817-24.6731 63.1993-26.0547L47.3538-41.8336Q44.7804-44.4071 47.3538-46.9342ZM36.2559 23.1434Q39.2386 23.1434 41.3538 21.0047Q43.469 18.8659 43.469 15.8027Q43.469 12.7859 41.3538 10.6406Q39.2386 8.49535 36.2559 8.49535Q33.1919 8.49535 31.03 10.6406Q28.868 12.7859 28.868 15.8027Q28.868 18.8659 31.03 21.0047Q33.1919 23.1434 36.2559 23.1434ZM109.992-6.14236L138.861-35.011Q143.662-39.779 143.612-45.3001Q143.561-50.8213 138.773-55.6088L90.0677-104.348Q87.0777-107.291 83.3815-107.62Q79.6854-107.948 76.62-105.731Q73.5546-103.515 72.5352-98.9218Q70.9659-91.9882 69.7429-86.9142Q68.52-81.8401 67.3575-77.9538Q66.195-74.0676 64.8214-70.8353Q63.4477-67.603 61.6111-64.5068Q59.7745-61.4106 57.1858-57.8489L62.0105-53.1054Q65.5121-58.0465 67.8218-62.2099Q70.1315-66.3733 71.7736-70.891Q73.4157-75.4086 74.9839-81.3296Q76.5521-87.2506 78.6503-95.741Q79.4936-99.2143 81.8659-99.8536Q84.2383-100.493 86.0929-98.6716L133.807-50.992Q136.518-48.2803 136.511-45.0976Q136.505-41.9149 133.861-39.2705L105.408-10.7721ZM101.913-41.9495Q103.2-40.7091 106.762-41.7144Q110.324-42.7196 114.827-45.1492Q119.331-47.5789 123.489-50.7153Q127.648-53.8516 129.98-56.8272L116.101-70.6594Q115.263-62.2624 111.322-55.9661Q107.382-49.6698 102.074-44.3621Q100.787-43.0754 101.913-41.9495Z"/>
  </g>
  <g id="Thin-L" transform="matrix(1 0 0 1 779.242 1556)">
   <path d="M21.2471 29.2051Q28.0742 35.8871 35.5734 35.9675Q43.0726 36.0479 49.6675 29.3738Q53.1928 25.8564 56.4353 20.6626Q59.6778 15.4688 62.6643 9.86439Q65.6507 4.26002 68.4315-0.601815Q71.2124-5.46365 73.8869-8.39628L90.1924 7.91714Q92.5577 10.2915 95.3699 10.2552Q98.182 10.2189 100.459 7.87056L107.463 0.930379Q109.748-1.42707 109.744-4.19055Q109.74-6.95403 107.438-9.25584L59.6989-56.9949Q57.3245-59.3681 54.5934-59.3363Q51.8623-59.3046 49.5048-57.0197L42.5725-50.0148Q40.2241-47.739 40.1522-44.9314Q40.0802-42.1237 42.4534-39.7494L58.8315-23.4438Q55.9067-20.8407 51.0449-18.0598Q46.183-15.279 40.5787-12.2925Q34.9743-9.3061 29.7805-6.06417Q24.5867-2.82225 21.0693 0.704195Q14.3952 7.37048 14.4756 14.8742Q14.556 22.3779 21.2471 29.2051ZM45.4356-47.4138L52.1239-54.0852Q54.6974-56.6586 57.1904-54.0931L104.537-6.74611Q106.958-4.32566 104.457-1.67966L97.8569 4.92823Q95.3469 7.51858 92.7735 4.93608L76.4735-11.3095Q75.3435-12.4474 74.0187-12.5342Q72.694-12.6209 71.4588-11.3222Q68.9778-8.91377 66.0258-3.9443Q63.0738 1.02517 59.8824 6.90917Q56.691 12.7932 53.3723 18.1326Q50.0536 23.4721 46.9131 26.684Q41.6264 32.0432 35.561 31.9712Q29.4956 31.8993 23.912 26.3871Q18.545 20.9487 18.4724 14.8425Q18.3999 8.73621 23.7512 3.45744Q26.9631 0.245533 32.3071-3.03685Q37.6511-6.31924 43.5345-9.51066Q49.4179-12.7021 54.3874-15.6184Q59.3568-18.5347 61.7653-21.0157Q62.9927-22.3235 62.9415-23.612Q62.8904-24.9004 61.7604-26.0293L45.4356-42.3383Q42.8622-44.9117 45.4356-47.4138ZM34.3377 22.9416Q37.1941 22.9416 39.1704 20.929Q41.1467 18.9164 41.1467 15.9796Q41.1467 13.1141 39.1704 11.0698Q37.1941 9.02546 34.3377 9.02546Q31.3997 9.02546 29.3514 11.0698Q27.3031 13.1141 27.3031 15.9796Q27.3031 18.9164 29.3514 20.929Q31.3997 22.9416 34.3377 22.9416ZM107.417-7.48037L135.504-35.5661Q139.901-39.9559 139.888-45.1362Q139.875-50.3166 135.543-54.6495L87.4171-102.783Q84.6798-105.449 81.4632-105.802Q78.2465-106.156 75.6102-104.154Q72.974-102.152 72.0555-97.988Q70.6376-91.6095 69.4274-86.6616Q68.2172-81.7137 66.9915-77.7265Q65.7659-73.7394 64.367-70.3684Q62.9681-66.9973 61.1819-63.9012Q59.3958-60.805 57.0594-57.6216L60.0164-54.7462Q63.0638-59.3591 65.2094-63.2954Q67.355-67.2317 68.9719-71.6484Q70.5887-76.0651 72.1569-81.9482Q73.7251-87.8312 75.6969-96.3466Q76.6916-100.653 79.6068-101.356Q82.522-102.058 84.5531-100.035L132.671-51.9259Q135.76-48.8354 135.728-45.0849Q135.697-41.3343 132.624-38.2607L104.701-10.2675ZM100.752-43.2116Q102.039-41.9962 105.613-43.0015Q109.188-44.0067 113.692-46.4239Q118.195-48.841 122.341-51.9774Q126.486-55.1137 128.819-58.0893L114.915-71.9215Q114.102-63.55 110.161-57.2409Q106.221-50.9319 100.913-45.6242Q99.6261-44.3375 100.752-43.2116Z"/>
  </g>
  <g id="Ultralight-L" transform="matrix(1 0 0 1 483.482 1556)">
   <path d="M20.9755 28.6234Q27.57 35.0466 34.7912 35.1271Q42.0123 35.2075 48.3618 28.779Q52.0291 25.1065 55.3557 19.7382Q58.6823 14.3698 61.714 8.60387Q64.7458 2.83789 67.5783-2.1533Q70.4109-7.14448 73.1757-10.1416L90.1277 6.8052Q92.1956 8.86938 94.704 8.82658Q97.2124 8.78378 99.2051 6.70692L105.95 0.0512959Q107.938-2.02182 107.94-4.49444Q107.943-6.96707 105.964-8.94565L58.5483-56.3615Q56.4841-58.4243 54.0569-58.3796Q51.6296-58.3349 49.5565-56.3474L42.8957-49.601Q40.8189-47.6097 40.734-45.0995Q40.6491-42.5892 42.7119-40.525L59.7495-23.573Q56.7471-20.8924 51.7559-18.0598Q46.7648-15.2273 40.9988-12.1956Q35.2328-9.16382 29.8645-5.83794Q24.4961-2.51206 20.8236 1.15666Q14.3952 7.59031 14.4756 14.8096Q14.556 22.0289 20.9755 28.6234ZM44.4532-47.6595L51.4905-54.7058Q54.064-57.2792 56.557-54.7006L104.305-6.95291Q106.712-4.54549 104.224-1.88645L97.2621 5.0705Q94.7781 7.63501 92.2046 5.06533L75.6203-11.4259Q74.6195-12.4215 73.4757-12.56Q72.3319-12.6985 71.2648-11.542Q68.6415-9.00435 65.5926-3.8862Q62.5438 1.23196 59.3136 7.21946Q56.0834 13.207 52.797 18.5594Q49.5106 23.9117 46.4993 27.0072Q41.0575 32.5345 34.7982 32.4497Q28.5389 32.3648 22.7614 26.6714Q17.2393 21.0651 17.1537 14.7649Q17.0681 8.46468 22.6006 3.01779Q25.6961-0.0776877 31.0466-3.3213Q36.3971-6.56491 42.3839-9.7951Q48.3707-13.0253 53.4888-16.0321Q58.607-19.0389 61.1447-21.6621Q62.217-22.8149 62.1206-23.9159Q62.0242-25.0168 61.0234-26.0162L44.4532-42.5968Q41.8797-45.1702 44.4532-47.6595ZM33.3552 22.8382Q36.1469 22.8382 38.052 20.8902Q39.9572 18.9423 39.9572 16.0702Q39.9572 13.2823 38.052 11.2896Q36.1469 9.29699 33.3552 9.29699Q30.4817 9.29699 28.4916 11.2896Q26.5016 13.2823 26.5016 16.0702Q26.5016 18.9423 28.4916 20.8902Q30.4817 22.8382 33.3552 22.8382ZM106.098-8.1657L133.784-35.8504Q137.975-40.0464 137.981-45.0523Q137.988-50.0581 133.888-54.1581L86.0595-101.981Q83.4517-104.505 80.4806-104.871Q77.5094-105.238 75.093-103.346Q72.6766-101.454 71.8099-97.5097Q70.4695-91.4155 69.2658-86.5323Q68.0621-81.649 66.8041-77.6101Q65.546-73.5713 64.1342-70.1292Q62.7224-66.6872 60.9621-63.591Q59.2018-60.4948 56.9947-57.5051L58.995-55.5866Q61.8098-60.0314 63.8713-63.8513Q65.9329-67.6713 67.5368-72.0363Q69.1408-76.4014 70.7089-82.265Q72.2771-88.1286 74.1842-96.6568Q75.2564-101.39 78.4496-102.125Q81.6429-102.859 83.7643-100.733L132.089-52.4042Q135.372-49.1197 135.328-45.0783Q135.283-41.037 131.991-37.7435L104.339-10.009ZM100.157-43.858Q101.444-42.6555 105.025-43.6607Q108.607-44.666 113.11-47.0767Q117.614-49.4874 121.753-52.6238Q125.892-55.7602 128.224-58.7357L114.307-72.5679Q113.507-64.2095 109.566-57.8939Q105.626-51.5783 100.318-46.2706Q99.0314-44.9839 100.157-43.858Z"/>
  </g>
  <g id="Black-M" transform="matrix(1 0 0 1 2865.77 1126)">
   <path d="M18.723 20.8668Q26.1628 28.3072 34.4628 28.398Q42.7629 28.4889 50.1354 21.1682Q52.1936 19.1726 54.2271 16.1909Q56.2605 13.2092 58.2352 9.91054Q60.2098 6.61183 62.0545 3.46307Q63.8991 0.314306 65.4652-2.02061L74.4958 7.07262Q78.5311 11.1134 83.2829 11.1421Q88.0348 11.1708 91.8881 7.26067L98.7783 0.30756Q102.751-3.66514 102.691-8.35178Q102.632-13.0384 98.5905-17.0224L56.6638-59.0062Q52.623-63.1041 47.9335-63.107Q43.244-63.1099 39.2142-59.1369L32.3807-52.3038Q28.4135-48.3363 28.4709-43.6728Q28.5283-39.0094 32.5691-34.9115L41.5423-25.8809Q39.27-24.2574 36.1498-22.4128Q33.0296-20.5681 29.7023-18.5935Q26.3751-16.6188 23.4219-14.5854Q20.4688-12.5519 18.4732-10.5508Q11.1525-3.17854 11.2148 5.12423Q11.2771 13.427 18.723 20.8668ZM45.0558-42.6906L48.1532-45.7769Q48.7195-46.3433 49.2807-45.7824L85.3097-9.75345Q85.8711-9.19203 85.3044-8.62597L82.2178-5.53381Q81.6457-4.95649 81.0222-5.52832L69.0557-17.5061Q66.9347-19.6326 64.1818-19.5042Q61.429-19.3759 59.0008-17.0677Q57.5813-15.705 55.6858-12.4425Q53.7902-9.17995 51.5143-5.09866Q49.2384-1.01736 46.5846 3.00622Q43.9307 7.02979 40.9372 9.96587Q38.3703 12.5325 35.3967 12.5042Q32.423 12.476 29.7376 9.84732Q27.1083 7.16129 27.0801 4.15648Q27.0518 1.15168 29.613-1.40974Q32.6061-4.34582 36.6324-6.97128Q40.6588-9.59674 44.7401-11.9012Q48.8214-14.2056 52.0839-16.1013Q55.3464-17.997 56.7091-19.4165Q59.0176-21.8444 59.1458-24.5974Q59.274-27.3504 57.0959-29.4714L45.0558-41.5576Q44.4895-42.0668 45.0558-42.6906ZM35.3729 9.08732Q37.4098 9.08732 38.7926 7.67614Q40.1753 6.26496 40.1753 4.28002Q40.1753 2.29479 38.7926 0.886496Q37.4098-0.521798 35.3729-0.521798Q33.4451-0.521798 32.0055 0.886496Q30.5659 2.29479 30.5659 4.28002Q30.5659 6.26496 32.0055 7.67614Q33.4451 9.08732 35.3729 9.08732ZM93.6196-6.70606L119.058-32.0879Q124.161-37.1853 124.039-43.0402Q123.917-48.8952 118.751-54.1181L80.1205-92.8109Q76.4109-96.5779 71.8835-96.8243Q67.3561-97.0706 63.6755-94.3581Q59.9949-91.6457 58.7737-86.3816Q57.1677-79.3508 56.0877-74.9518Q55.0076-70.5528 54.1413-67.745Q53.2749-64.9372 52.2186-62.8333Q51.1623-60.7294 49.5808-58.4163Q47.9993-56.1032 45.4576-52.5685L55.7214-42.4241Q60.0616-47.6403 62.488-51.651Q64.9144-55.6617 66.3373-59.4789Q67.7602-63.2962 68.918-67.7385Q70.0758-72.1808 71.7699-78.2657Q71.976-78.8381 72.3439-78.9569Q72.7118-79.0757 73.1514-78.6416L107.934-43.8644Q108.745-43.1104 108.748-42.6362Q108.751-42.1619 108.122-41.5331L83.4856-16.8397ZM85.1459-38.2113Q86.1428-37.2712 88.9126-38.05Q91.6824-38.8288 95.1715-40.7007Q98.6605-42.5726 101.872-45.0025Q105.083-47.4324 106.89-49.7376L96.1741-60.454Q95.4885-53.9689 92.4355-49.0807Q89.3826-44.1925 85.2705-40.0804Q84.2736-39.0835 85.1459-38.2113Z"/>
  </g>
  <g id="Heavy-M" transform="matrix(1 0 0 1 2570.13 1126)">
   <path d="M18.4133 19.8894Q25.5376 27.0091 33.4794 27.0932Q41.4213 27.1773 48.4624 20.1612Q50.5621 18.1215 52.6391 15.038Q54.7162 11.9544 56.7335 8.54285Q58.7507 5.13133 60.6258 1.94351Q62.5009-1.2443 64.1118-3.51113L73.4589 5.89601Q77.2198 9.67332 81.6151 9.69399Q86.0104 9.71465 89.6054 6.07383L96.3636-0.742149Q100.062-4.44302 100.01-8.76896Q99.9585-13.0949 96.1835-16.8263L55.1561-57.8973Q51.3788-61.7182 47.0459-61.7253Q42.7129-61.7323 38.9684-58.0338L32.256-51.3191Q28.5716-47.637 28.6129-43.3153Q28.6543-38.9936 32.4316-35.1727L41.7374-25.8256Q39.5305-24.1733 36.3645-22.2982Q33.1985-20.4231 29.7652-18.4058Q26.3319-16.3886 23.2701-14.3115Q20.2083-12.2345 18.1686-10.1784Q11.1525-3.13507 11.2148 4.81501Q11.2771 12.7651 18.4133 19.8894ZM43.541-42.9547L46.8421-46.2231Q47.7454-47.1263 48.6299-46.2395L84.4821-10.3872Q85.3643-9.505 84.4634-8.5995L81.1973-5.31703Q80.28-4.381 79.3332-5.30064L67.4452-17.2192Q65.5115-19.1693 63.0167-19.0445Q60.5219-18.9196 58.3022-16.8012Q56.8815-15.4265 54.9735-12.148Q53.0655-8.86956 50.7752-4.76106Q48.485-0.652556 45.824 3.38705Q43.163 7.42666 40.1952 10.3532Q37.3954 13.1552 34.1746 13.1311Q30.9537 13.107 28.0413 10.2404Q25.1793 7.33253 25.1551 4.08051Q25.131 0.828488 27.9167-1.95483Q30.8868-4.88136 34.9346-7.51936Q38.9825-10.1574 43.0909-12.4695Q47.1994-14.7815 50.4779-16.6884Q53.7563-18.5953 55.1311-20.0159Q57.2472-22.238 57.3732-24.7316Q57.4992-27.2252 55.5218-29.1589L43.541-41.1506Q42.6378-42.0102 43.541-42.9547ZM34.1141 9.34984Q36.246 9.34984 37.7225 7.85038Q39.199 6.35092 39.199 4.24403Q39.199 2.13939 37.7225 0.647Q36.246-0.845393 34.1141-0.845393Q32.0508-0.845393 30.5284 0.647Q29.006 2.13939 29.006 4.24403Q29.006 6.35092 30.5284 7.85038Q32.0508 9.34984 34.1141 9.34984ZM92.2538-7.7983L117.155-32.6562Q122.029-37.5131 121.917-43.0775Q121.805-48.642 116.874-53.6167L78.3159-92.2346Q74.8744-95.7175 70.6247-95.9597Q66.3749-96.2018 62.8995-93.6728Q59.4241-91.1438 58.2805-86.1792Q56.7303-79.4067 55.6784-75.0879Q54.6266-70.769 53.7673-67.9375Q52.9081-65.106 51.856-62.941Q50.8038-60.7759 49.2476-58.4426Q47.6914-56.1093 45.2157-52.6667L54.3875-43.6009Q58.4526-48.5683 60.7681-52.4482Q63.0836-56.3281 64.4769-60.0947Q65.8703-63.8613 67.0416-68.3469Q68.2129-72.8325 69.9211-79.0277Q70.1964-79.9002 70.7811-80.0927Q71.3657-80.2853 71.9983-79.669L107.199-44.4845Q108.224-43.5035 108.231-42.6955Q108.238-41.8875 107.377-41.0266L83.2253-16.829ZM83.9638-38.4334Q84.9607-37.4824 87.725-38.2612Q90.4894-39.0401 93.9784-40.9174Q97.4675-42.7948 100.684-45.2246Q103.901-47.6545 105.708-49.9598L94.9895-60.6762Q94.3064-54.1801 91.2534-49.2974Q88.2005-44.4147 84.0884-40.3026Q83.0915-39.3057 83.9638-38.4334Z"/>
  </g>
  <g id="Bold-M" transform="matrix(1 0 0 1 2274.61 1126)">
   <path d="M18.0668 18.796Q24.8382 25.557 32.3794 25.6336Q39.9206 25.7102 46.5908 19.0348Q48.737 16.9457 50.8628 13.7482Q52.9886 10.5506 55.0536 7.01289Q57.1185 3.47518 59.0277 0.243673Q60.9369-2.98784 62.5979-5.17849L72.299 4.5798Q75.753 8.06239 79.7494 8.07408Q83.7459 8.08576 87.0519 4.74619L93.6624-1.9164Q97.054-5.31319 97.0112-9.23563Q96.9684-13.1581 93.4909-16.6069L53.4696-56.6568Q49.987-60.1679 46.0529-60.1796Q42.1188-60.1913 38.6934-56.7997L32.1165-50.2176Q28.7484-46.8547 28.7718-42.9154Q28.7952-38.976 32.2777-35.4649L41.9555-25.7637Q39.822-24.0793 36.6047-22.1701Q33.3875-20.2609 29.8355-18.196Q26.2835-16.131 23.1002-14.0052Q19.917-11.8795 17.8279-9.76173Q11.1525-3.08644 11.2148 4.4691Q11.2771 12.0246 18.0668 18.796ZM41.8464-43.2503L45.3756-46.7221Q46.6556-48.0022 47.9019-46.7507L83.5564-11.0962Q84.7975-9.8551 83.5226-8.56988L80.0559-5.07452Q78.7523-3.73723 77.4437-5.04594L65.6436-16.8983Q63.9193-18.6511 61.7133-18.5301Q59.5073-18.4092 57.5207-16.5032Q56.0987-15.1149 54.1768-11.8186Q52.2549-8.52234 49.9485-4.38341Q47.6421-0.244469 44.9732 3.81307Q42.3043 7.87061 39.365 10.7865Q36.3049 13.8518 32.8075 13.8323Q29.3101 13.8129 26.1437 10.6802Q23.0213 7.5241 23.0018 3.99552Q22.9824 0.466951 26.0191-2.56459Q28.9635-5.48043 33.0354-8.13247Q37.1072-10.7845 41.2461-13.1052Q45.385-15.4258 48.6813-17.3452Q51.9776-19.2645 53.3659-20.6865Q55.2668-22.6783 55.3903-24.8817Q55.5138-27.0852 53.761-28.8093L41.8464-40.6953Q40.5664-41.9468 41.8464-43.2503ZM32.706 9.64351Q34.9441 9.64351 36.5254 8.0453Q38.1068 6.44708 38.1068 4.20378Q38.1068 1.96556 36.5254 0.379089Q34.9441-1.20738 32.706-1.20738Q30.4911-1.20738 28.8761 0.379089Q27.2611 1.96556 27.2611 4.20378Q27.2611 6.44708 28.8761 8.0453Q30.4911 9.64351 32.706 9.64351ZM90.7261-9.02012L115.026-33.2918Q119.643-37.8798 119.543-43.1193Q119.443-48.3587 114.774-53.0558L76.2972-91.59Q73.1557-94.7551 69.2165-94.9925Q65.2773-95.23 62.0314-92.9062Q58.7855-90.5823 57.7287-85.9528Q56.2409-79.4693 55.2206-75.2401Q54.2004-71.0109 53.349-68.153Q52.4977-65.295 51.4502-63.0614Q50.4028-60.8278 48.8749-58.4719Q47.3471-56.116 44.9452-52.7766L52.8954-44.9173Q56.6528-49.6064 58.8441-53.3399Q61.0355-57.0735 62.3959-60.7834Q63.7562-64.4934 64.9426-69.0274Q66.129-73.5615 67.853-79.8802Q68.2058-81.0882 69.0328-81.3633Q69.8598-81.6383 70.7083-80.8183L106.377-45.1782Q107.641-43.9432 107.652-42.7619Q107.664-41.5806 106.544-40.46L82.9342-16.8171ZM82.6414-38.682Q83.6383-37.7187 86.3965-38.4975Q89.1548-39.2763 92.6439-41.1598Q96.1329-43.0433 99.3559-45.4732Q102.579-47.9031 104.386-50.2083L93.6642-60.9247Q92.984-54.4165 89.931-49.5398Q86.8781-44.6632 82.766-40.5511Q81.7691-39.5542 82.6414-38.682Z"/>
  </g>
  <g id="Semibold-M" transform="matrix(1 0 0 1 1978.72 1126)">
   <path d="M17.828 18.0422Q24.356 24.5559 31.621 24.6273Q38.886 24.6987 45.3005 18.2583Q47.4788 16.1351 49.6382 12.859Q51.7976 9.58286 53.8955 5.95815Q55.9933 2.33344 57.926-0.928187Q59.8586-4.18982 61.5542-6.32796L71.4994 3.67242Q74.7417 6.95182 78.4633 6.95732Q82.1848 6.96282 85.2915 3.83092L91.8002-2.72592Q94.9802-5.91308 94.9436-9.55735Q94.9069-13.2016 91.6347-16.4557L52.3069-55.8016Q49.0275-59.0991 45.3684-59.114Q41.7092-59.129 38.5039-55.949L32.0203-49.4583Q28.8703-46.3154 28.8813-42.6397Q28.8924-38.9639 32.1717-35.6663L42.1059-25.7211Q40.0229-24.0144 36.7703-22.0818Q33.5178-20.1491 29.884-18.0513Q26.2502-15.9534 22.9832-13.7941Q19.7161-11.6347 17.593-9.4745Q11.1525-3.05291 11.2148 4.23063Q11.2771 11.5142 17.828 18.0422ZM40.6782-43.454L44.3645-47.0662Q45.9043-48.606 47.4-47.1032L82.9182-11.585Q84.4067-10.0965 82.874-8.54946L79.2689-4.90734Q77.6991-3.29342 76.1411-4.87036L64.4015-16.677Q62.8217-18.2938 60.8147-18.1756Q58.8078-18.0573 56.9819-16.2977Q55.559-14.9001 53.6275-11.5915Q51.6961-8.28297 49.3785-4.12306Q47.061 0.0368634 44.3867 4.10677Q41.7123 8.17667 38.7927 11.0851Q35.5531 14.332 31.865 14.3158Q28.177 14.2996 24.8356 10.9833Q21.5336 7.65616 21.5174 3.93694Q21.5011 0.217709 24.7109-2.98496Q27.6376-5.89343 31.726-8.55514Q35.8145-11.2169 39.9743-13.5434Q44.1342-15.87 47.4428-17.798Q50.7513-19.7259 52.1489-21.1488Q53.9015-22.9818 54.0233-24.9852Q54.1451-26.9886 52.5471-28.5683L40.6782-40.3814Q39.1384-41.903 40.6782-43.454ZM31.7352 9.84596Q34.0466 9.84596 35.7002 8.17967Q37.3538 6.51337 37.3538 4.17602Q37.3538 1.84572 35.7002 0.194393Q34.0466-1.45693 31.7352-1.45693Q29.4159-1.45693 27.737 0.194393Q26.0581 1.84572 26.0581 4.17602Q26.0581 6.51337 27.737 8.17967Q29.4159 9.84596 31.7352 9.84596ZM89.6728-9.86244L113.559-33.7301Q117.998-38.1327 117.906-43.148Q117.815-48.1634 113.327-52.6691L74.9055-91.1457Q71.9708-94.0915 68.2457-94.3258Q64.5206-94.56 61.4329-92.3777Q58.3453-90.1953 57.3483-85.7967Q55.9035-79.5125 54.905-75.3451Q53.9066-71.1777 53.0607-68.3015Q52.2147-65.4252 51.1705-63.1444Q50.1263-60.8637 48.618-58.4922Q47.1096-56.1207 44.7586-52.8524L51.8667-45.8249Q55.412-50.322 57.5178-53.9547Q59.6236-57.5874 60.9612-61.2582Q62.2988-64.9291 63.4956-69.4966Q64.6924-74.0641 66.4273-80.4678Q66.8334-81.9072 67.8276-82.2392Q68.8217-82.5711 69.8191-81.6107L105.81-45.6564Q107.238-44.2464 107.253-42.8077Q107.268-41.369 105.969-40.0693L82.7335-16.8088ZM81.7298-38.8533Q82.7266-37.8816 85.4807-38.6604Q88.2348-39.4392 91.7238-41.3269Q95.2129-43.2146 98.4401-45.6445Q101.667-48.0744 103.474-50.3797L92.7506-61.0961Q92.0723-54.5794 89.0194-49.707Q85.9665-44.8345 81.8544-40.7224Q80.8575-39.7256 81.7298-38.8533Z"/>
  </g>
  <g id="Medium-M" transform="matrix(1 0 0 1 1682.63 1126)">
   <path d="M17.6469 17.4707Q23.9904 23.7969 31.046 23.8643Q38.1015 23.9318 44.3222 17.6695Q46.5248 15.5205 48.7097 12.1848Q50.8946 8.84907 53.0174 5.1584Q55.1402 1.46773 57.0906-1.81674Q59.041-5.10121 60.7628-7.19954L70.8931 2.9844Q73.9749 6.10975 77.488 6.11055Q81.0011 6.11135 83.9567 3.13692L90.3883-3.33974Q93.4078-6.36795 93.3758-9.8013Q93.3439-13.2347 90.2272-16.341L51.4254-55.1532Q48.3-58.2887 44.8493-58.3061Q41.3986-58.3235 38.3601-55.304L31.9474-48.8825Q28.9627-45.9065 28.9644-42.4306Q28.966-38.9547 32.0912-35.8191L42.2199-25.6888Q40.1752-23.9652 36.8959-22.0148Q33.6166-20.0644 29.9208-17.9416Q26.225-15.8188 22.8944-13.634Q19.5638-11.4492 17.4148-9.25671Q11.1525-3.02749 11.2148 4.04981Q11.2771 11.1271 17.6469 17.4707ZM39.7924-43.6085L43.5979-47.327Q45.3347-49.0639 47.0195-47.3704L82.4343-11.9556Q84.1104-10.2795 82.3823-8.53398L78.6722-4.78058Q76.9006-2.9569 75.1535-4.73722L63.4598-16.5092Q61.9894-18.023 60.1334-17.9067Q58.2774-17.7905 56.5734-16.1419Q55.1498-14.7372 53.211-11.4194Q51.2723-8.10147 48.9464-3.92565Q46.6205 0.250181 43.9419 4.32946Q41.2634 8.40874 38.3588 11.3116Q34.983 14.6961 31.1504 14.6823Q27.3179 14.6686 23.8437 11.2132Q20.4056 7.7563 20.3918 3.89251Q20.378 0.0287236 23.719-3.30369Q26.6322-6.20659 30.7332-8.87563Q34.8343-11.5447 39.01-13.8757Q43.1858-16.2068 46.5037-18.1413Q49.8215-20.0757 51.2262-21.4993Q52.8663-23.212 52.9868-25.0637Q53.1073-26.9154 51.6266-28.3856L39.7924-40.1434Q38.0556-41.8699 39.7924-43.6085ZM30.9991 9.99947Q33.366 9.99947 35.0745 8.28156Q36.7829 6.56364 36.7829 4.15498Q36.7829 1.75485 35.0745 0.054349Q33.366-1.64615 30.9991-1.64615Q28.6006-1.64615 26.8733 0.054349Q25.146 1.75485 25.146 4.15498Q25.146 6.56364 26.8733 8.28156Q28.6006 9.99947 30.9991 9.99947ZM88.8742-10.5011L112.446-34.0624Q116.751-38.3244 116.666-43.1698Q116.58-48.0153 112.229-52.3759L73.8503-90.8087Q71.0723-93.5884 67.5096-93.8202Q63.9469-94.052 60.9792-91.9769Q58.0115-89.9018 57.0599-85.6784Q55.6476-79.5452 54.6657-75.4247Q53.6838-71.3042 52.842-68.4141Q52.0002-65.5239 50.9585-63.2074Q49.9167-60.8908 48.4232-58.5075Q46.9296-56.1242 44.6172-52.9098L51.0868-46.513Q54.4712-50.8646 56.5121-54.4208Q58.553-57.977 59.8734-61.6183Q61.1937-65.2595 62.3984-69.8523Q63.603-74.4451 65.3463-80.9134Q65.7929-82.5283 66.9137-82.9033Q68.0345-83.2784 69.1448-82.2114L105.381-46.019Q106.934-44.4763 106.951-42.8424Q106.968-41.2085 105.533-39.7731L82.5813-16.8026ZM81.0385-38.9832Q82.0354-38.0051 84.7863-38.7839Q87.5372-39.5628 91.0262-41.4536Q94.5153-43.3445 97.7456-45.7744Q100.976-48.2043 102.783-50.5096L92.0579-61.226Q91.3811-54.7029 88.3282-49.8337Q85.2752-44.9645 81.1631-40.8523Q80.1663-39.8555 81.0385-38.9832Z"/>
  </g>
  <g id="Regular-M" transform="matrix(1 0 0 1 1386.73 1126)">
   <path d="M17.4106 16.7252Q23.5136 22.8068 30.2959 22.8691Q37.0783 22.9314 43.0461 16.9015Q45.2804 14.7188 47.4986 11.3054Q49.7167 7.89196 51.872 4.11525Q54.0273 0.338533 56.0009-2.97572Q57.9746-6.28998 59.7306-8.33638L70.1023 2.08699Q72.9748 5.01138 76.216 5.00607Q79.4571 5.00075 82.2157 2.23171L88.5465-4.14036Q91.3568-6.96124 91.331-10.1195Q91.3051-13.2777 88.3914-16.1915L50.2755-54.3074Q47.3511-57.2316 44.1723-57.2522Q40.9935-57.2728 38.1727-54.4626L31.8523-48.1315Q29.0832-45.3731 29.0727-42.1579Q29.0621-38.9427 31.9863-36.0183L42.3687-25.6466Q40.3739-23.9011 37.0597-21.9274Q33.7454-19.9538 29.9687-17.7985Q26.192-15.6432 22.7786-13.4251Q19.3651-11.2071 17.1825-8.97264Q11.1525-2.99433 11.2148 3.81396Q11.2771 10.6223 17.4106 16.7252ZM38.6371-43.81L42.5979-47.6673Q44.5917-49.6611 46.5231-47.719L81.8031-12.439Q83.7239-10.5182 81.7408-8.51378L77.8939-4.61524Q75.859-2.51797 73.8652-4.56357L62.2314-16.2904Q60.9039-17.6696 59.2447-17.5561Q57.5855-17.4425 56.0405-15.9387Q54.616-14.5248 52.6678-11.1948Q50.7196-7.86473 48.3827-3.66816Q46.0458 0.528422 43.3618 4.61993Q40.6779 8.71143 37.7928 11.607Q34.2394 15.171 30.2183 15.1605Q26.1972 15.1499 22.5499 11.513Q18.9342 7.88691 18.9236 3.83457Q18.913-0.217779 22.4253-3.71944Q25.3209-6.61505 29.4383-9.29366Q33.5557-11.9723 37.7522-14.3092Q41.9487-16.6461 45.2787-18.5891Q48.6088-20.532 50.0226-21.9566Q51.516-23.5122 51.6348-25.1661Q51.7536-26.8199 50.4261-28.1473L38.6371-39.8329Q36.6433-41.8267 38.6371-43.81ZM30.039 10.1997Q32.4784 10.1997 34.2583 8.41445Q36.0383 6.6292 36.0383 4.12753Q36.0383 1.63633 34.2583-0.128317Q32.4784-1.89296 30.039-1.89296Q27.5372-1.89296 25.7467-0.128317Q23.9562 1.63633 23.9562 4.12753Q23.9562 6.6292 25.7467 8.41445Q27.5372 10.1997 30.039 10.1997ZM87.8326-11.3342L110.994-34.4958Q115.125-38.5744 115.047-43.1983Q114.969-47.8222 110.798-51.9934L72.4739-90.3692Q69.9004-92.9322 66.5495-93.1608Q63.1985-93.3894 60.3873-91.4542Q57.5761-89.519 56.6837-85.524Q55.314-79.5879 54.3536-75.5285Q53.3932-71.4691 52.5568-68.5609Q51.7204-65.6527 50.6818-63.2895Q49.6433-60.9263 48.169-58.5275Q46.6948-56.1288 44.4327-52.9848L50.0694-47.4106Q53.244-51.5724 55.2003-55.0288Q57.1566-58.4853 58.4545-62.0879Q59.7523-65.6905 60.9672-70.3164Q62.1822-74.9422 63.9362-81.4946Q64.4356-83.3383 65.7217-83.7696Q67.0078-84.2009 68.2653-82.995L104.82-46.492Q106.536-44.7761 106.557-42.8877Q106.577-40.9992 104.965-39.3868L82.3828-16.7944ZM80.1369-39.1527Q81.1338-38.1662 83.8805-38.945Q86.6272-39.7239 90.1163-41.6189Q93.6053-43.514 96.8399-45.9439Q100.074-48.3737 101.881-50.679L91.1544-61.3954Q90.4795-54.8641 87.4265-49.999Q84.3736-45.1339 80.2615-41.0218Q79.2646-40.0249 80.1369-39.1527Z"/>
  </g>
  <g id="Light-M" transform="matrix(1 0 0 1 1091.27 1126)">
   <path d="M17.0513 15.9553Q22.8463 21.6945 29.2607 21.7568Q35.6751 21.8191 41.3181 16.1143Q43.7404 13.7264 46.0698 10.082Q48.3991 6.43758 50.6144 2.44697Q52.8297-1.54363 54.8717-5.02908Q56.9138-8.51453 58.7893-10.6463L70.0166 0.615355Q72.4956 3.12922 75.3347 3.11528Q78.1738 3.10134 80.556 0.691657L86.5445-5.30381Q88.9612-7.74838 88.944-10.5217Q88.9268-13.295 86.4408-15.781L48.7526-53.4691Q46.2388-55.9825 43.4622-55.986Q40.6856-55.9895 38.2411-53.5728L32.28-47.5839Q29.8703-45.2021 29.8427-42.3804Q29.815-39.5588 32.3284-37.0449L43.5836-25.8176Q41.4862-23.9695 38.0008-21.9274Q34.5153-19.8854 30.5247-17.6701Q26.5341-15.4549 22.8897-13.1257Q19.2453-10.7966 16.8574-8.37381Q11.1525-2.7034 11.2148 3.72843Q11.2771 10.1603 17.0513 15.9553ZM37.3368-44.1351L41.7596-48.4886Q43.7534-50.4824 45.6848-48.5231L81.4952-12.7127Q83.3988-10.8091 81.4329-8.78747L77.1068-4.42693Q75.106-2.36388 73.1123-4.39251L61.1022-16.4445Q59.9457-17.6354 58.526-17.5903Q57.1063-17.5451 55.7838-16.2296Q54.171-14.6447 52.0946-11.1179Q50.0181-7.59105 47.6299-3.25748Q45.2417 1.07608 42.6004 5.18469Q39.9592 9.2933 37.2451 12.0348Q33.4865 15.8213 29.2088 15.7936Q24.9312 15.766 21.0271 11.8893Q17.2062 8.041 17.1783 3.73193Q17.1504-0.577135 20.9025-4.30131Q23.644-7.04282 27.77-9.67012Q31.8961-12.2974 36.2294-14.6856Q40.5627-17.0739 44.0896-19.1366Q47.6164-21.1993 49.2013-22.8121Q50.4894-24.1625 50.5482-25.5683Q50.6071-26.974 49.4506-28.13L37.3368-40.175Q35.343-42.1688 37.3368-44.1351ZM28.7387 10.0629Q31.0924 10.0629 32.7782 8.36314Q34.464 6.66341 34.464 4.24742Q34.464 1.85884 32.7782 0.162617Q31.0924-1.53361 28.7387-1.53361Q26.3223-1.53361 24.6088 0.162617Q22.8954 1.85884 22.8954 4.24742Q22.8954 6.66341 24.6088 8.36314Q26.3223 10.0629 28.7387 10.0629ZM86.0873-12.2412L108.719-34.8721Q112.575-38.6943 112.523-43.0872Q112.471-47.48 108.608-51.3432L70.6771-89.3084Q68.275-91.6831 65.249-91.9288Q62.2231-92.1745 59.7028-90.3848Q57.1825-88.595 56.3585-84.891Q55.0915-79.3312 54.1397-75.3573Q53.1879-71.3835 52.3087-68.4068Q51.4295-65.4302 50.3738-62.973Q49.3181-60.5157 47.8781-58.117Q46.4381-55.7183 44.3471-52.8307L48.7177-48.5228Q51.5844-52.4621 53.4294-55.7646Q55.2744-59.0671 56.5552-62.6013Q57.8359-66.1356 59.0509-70.7357Q60.2658-75.3358 61.9342-81.9052Q62.5362-84.3137 64.1903-84.7877Q65.8443-85.2617 67.2215-83.919L104.05-47.125Q106.022-45.1524 106.026-42.879Q106.029-40.6056 104.127-38.7023L81.9036-16.4523ZM79.3498-40.0082Q80.3466-39.0388 83.102-39.8176Q85.8573-40.5964 89.3464-42.483Q92.8355-44.3695 96.0614-46.7994Q99.2873-49.2293 101.094-51.5346L90.3503-62.251Q89.6923-55.7369 86.6394-50.8632Q83.5865-45.9895 79.4744-41.8773Q78.4775-40.8805 79.3498-40.0082Z"/>
  </g>
  <g id="Thin-M" transform="matrix(1 0 0 1 796.225 1126)">
   <path d="M16.576 14.9371Q21.9638 20.2235 27.8915 20.2858Q33.8192 20.3481 39.0326 15.0733Q41.7035 12.4139 44.1801 8.46397Q46.6566 4.51404 48.9511 0.24055Q51.2457-4.03294 53.3782-7.74481Q55.5107-11.4567 57.5445-13.7014L69.9033-1.331Q71.8617 0.639915 74.1691 0.614566Q76.4765 0.589217 78.361-1.34519L83.8966-6.84257Q85.7928-8.78942 85.787-11.0536Q85.7812-13.3178 83.861-15.238L46.7386-52.3604Q44.7677-54.3304 42.5231-54.3113Q40.2784-54.2922 38.3316-52.396L32.8458-46.8596Q30.9114-44.9759 30.8611-42.6747Q30.8108-40.3736 32.7809-38.4027L45.1904-26.0439Q42.9573-24.06 39.2454-21.9274Q35.5335-19.7949 31.2601-17.5004Q26.9866-15.2058 23.0366-12.7297Q19.0867-10.2536 16.4273-7.58181Q11.1525-2.31861 11.2148 3.61532Q11.2771 9.54925 16.576 14.9371ZM35.617-44.5651L40.6509-49.5749Q42.6446-51.5687 44.5761-49.5865L81.088-13.0746Q82.9687-11.1939 81.0257-9.14944L76.0658-4.17789Q74.1103-2.16008 72.1165-4.16628L59.6087-16.6483Q58.6784-17.5902 57.5755-17.6355Q56.4725-17.6809 55.4443-16.6144Q53.5824-14.8032 51.3364-11.0162Q49.0904-7.22908 46.6343-2.71434Q44.1782 1.8004 41.5934 5.93163Q39.0087 10.0629 36.5208 12.6006Q32.4907 16.6814 27.8737 16.6311Q23.2567 16.5808 19.013 12.387Q14.9207 8.2448 14.87 3.5962Q14.8193-1.05241 18.8884-5.07088Q21.4261-7.60859 25.5636-10.168Q29.7011-12.7274 34.2154-15.1835Q38.7297-17.6396 42.5168-19.8607Q46.3038-22.0818 48.115-23.9437Q49.1316-25.0226 49.1112-26.1002Q49.0908-27.1778 48.1605-28.1072L35.617-40.6275Q33.6233-42.6212 35.617-44.5651ZM27.019 9.88187Q29.2594 9.88187 30.8206 8.29527Q32.3819 6.70866 32.3819 4.40597Q32.3819 2.15313 30.8206 0.547401Q29.2594-1.05833 27.019-1.05833Q24.7155-1.05833 23.1039 0.547401Q21.4924 2.15313 21.4924 4.40597Q21.4924 6.70866 23.1039 8.29527Q24.7155 9.88187 27.019 9.88187ZM83.7789-13.4408L105.709-35.3698Q109.203-38.8528 109.185-42.9402Q109.167-47.0276 105.711-50.4831L68.3007-87.9054Q66.1252-90.031 63.5291-90.2994Q60.933-90.5677 58.7975-88.9704Q56.662-87.373 55.9285-84.0537Q54.7972-78.9916 53.8568-75.1309Q52.9164-71.2702 51.9806-68.203Q51.0447-65.1359 49.9664-62.5543Q48.8881-59.9728 47.4933-57.574Q46.0986-55.1753 44.2337-52.6269L46.9299-49.9939Q49.3893-53.6389 51.0872-56.7378Q52.7851-59.8367 54.0433-63.2804Q55.3014-66.7241 56.5163-71.2902Q57.7313-75.8563 59.2863-82.4481Q60.0241-85.6038 62.1648-86.1343Q64.3056-86.6647 65.8409-85.141L103.032-47.9623Q105.343-45.6501 105.324-42.8676Q105.305-40.0851 103.018-37.797L81.2697-15.9998ZM78.3087-41.1397Q79.3056-40.1927 82.0724-40.9715Q84.8391-41.7503 88.3282-43.6257Q91.8172-45.5011 95.0317-47.931Q98.2462-50.3608 100.053-52.6661L89.2868-63.3825Q88.6513-56.8912 85.5984-52.0061Q82.5454-47.121 78.4333-43.0089Q77.4365-42.012 78.3087-41.1397Z"/>
  </g>
  <g id="Ultralight-M" transform="matrix(1 0 0 1 500.366 1126)">
   <path d="M16.3326 14.4155Q21.5118 19.47 27.1902 19.5323Q32.8687 19.5946 37.8619 14.5401Q40.6603 11.7416 43.2122 7.63522Q45.764 3.52881 48.0992-0.88957Q50.4343-5.30795 52.6132-9.1358Q54.7921-12.9636 56.9069-15.2662L69.8452-2.32791Q71.5371-0.635097 73.5721-0.666289Q75.6071-0.69748 77.2367-2.38845L82.5404-7.63071Q84.17-9.32264 84.17-11.3261Q84.17-13.3295 82.5396-14.9599L45.707-51.7925Q44.0142-53.4843 42.042-53.4535Q40.0699-53.4228 38.3779-51.7933L33.1356-46.4886Q31.4446-44.86 31.3828-42.8254Q31.3209-40.7909 33.0127-39.0981L46.0134-26.1597Q43.7108-24.1063 39.8829-21.9274Q36.0551-19.7485 31.6367-17.4134Q27.2183-15.0783 23.1119-12.5269Q19.0055-9.97553 16.2071-7.17615Q11.1525-2.12153 11.2148 3.55738Q11.2771 9.23629 16.3326 14.4155ZM34.7362-44.7854L40.083-50.1313Q42.0768-52.1251 44.0082-50.1313L80.8794-13.26Q82.7485-11.391 80.8171-9.33484L75.5325-4.05033Q73.6002-2.0557 71.6065-4.05041L58.8437-16.7527Q58.0293-17.567 57.0886-17.6587Q56.1478-17.7504 55.2704-16.8115Q53.2809-14.8844 50.9481-10.9641Q48.6152-7.04368 46.1244-2.43614Q43.6335 2.1714 41.0776 6.31422Q38.5218 10.457 36.1498 12.8904Q31.9807 17.1219 27.1898 17.06Q22.399 16.9981 17.9815 12.642Q13.75 8.34919 13.6876 3.52667Q13.6253-1.29585 17.8568-5.46504Q20.2902-7.89838 24.4335-10.423Q28.5768-12.9477 33.1838-15.4386Q37.7908-17.9294 41.7112-20.2316Q45.6316-22.5338 47.5586-24.5232Q48.4362-25.4631 48.3752-26.3726Q48.3141-27.2822 47.4998-28.0955L34.7362-40.8592Q32.7424-42.853 34.7362-44.7854ZM26.1382 9.78917Q28.3205 9.78917 29.818 8.2605Q31.3155 6.73183 31.3155 4.48718Q31.3155 2.30387 29.818 0.744485Q28.3205-0.814896 26.1382-0.814896Q23.8925-0.814896 22.3331 0.744485Q20.7738 2.30387 20.7738 4.48718Q20.7738 6.73183 22.3331 8.2605Q23.8925 9.78917 26.1382 9.78917ZM82.5966-14.0552L104.167-35.6248Q107.476-38.9341 107.475-42.8649Q107.475-46.7958 104.228-50.0426L67.0836-87.1868Q65.0241-89.1848 62.6482-89.4648Q60.2722-89.7447 58.3338-88.2459Q56.3954-86.7471 55.7083-83.6249Q54.6464-78.8177 53.7119-75.0149Q52.7774-71.2121 51.8125-68.0987Q50.8476-64.9852 49.7577-62.3399Q48.6678-59.6947 47.2962-57.2959Q45.9247-54.8972 44.1757-52.5225L46.0141-50.7474Q48.2651-54.2417 49.8876-57.2363Q51.5101-60.2309 52.7567-63.6282Q54.0032-67.0256 55.2181-71.5742Q56.4331-76.1229 57.9301-82.7262Q58.7374-86.2646 61.1274-86.824Q63.5174-87.3834 65.1337-85.767L102.511-48.3911Q104.996-45.905 104.965-42.8618Q104.934-39.8185 102.45-37.3333L80.9451-15.7681ZM77.7755-41.7193Q78.7724-40.7838 81.545-41.5626Q84.3176-42.3414 87.8066-44.211Q91.2957-46.0806 94.5044-48.5105Q97.713-50.9404 99.5198-53.2457L88.7421-63.9621Q88.1181-57.4825 85.0652-52.5915Q82.0122-47.7006 77.9001-43.5885Q76.9032-42.5916 77.7755-41.7193Z"/>
  </g>
  <g id="Black-S" transform="matrix(1 0 0 1 2880.15 696)">
   <path d="M14.7461 8.98438Q20.6543 14.8926 27.2461 14.9658Q33.8379 15.0391 39.6973 9.22852Q41.3086 7.66602 42.8955 5.34668Q44.4824 3.02734 46.0205 0.463867Q47.5586-2.09961 48.999-4.56543Q50.4395-7.03125 51.6602-8.88672L58.6914-1.80664Q61.9141 1.41602 65.7227 1.44043Q69.5312 1.46484 72.6074-1.66016L78.0273-7.12891Q81.2012-10.3027 81.1523-14.0625Q81.1035-17.8223 77.8809-20.9961L44.7754-54.1504Q41.5527-57.4219 37.793-57.4219Q34.0332-57.4219 30.8105-54.248L25.4395-48.877Q22.2656-45.7031 22.3145-41.9678Q22.3633-38.2324 25.5859-34.9609L32.5684-27.9297Q30.7617-26.6602 28.3203-25.2197Q25.8789-23.7793 23.291-22.2412Q20.7031-20.7031 18.4082-19.1162Q16.1133-17.5293 14.5508-15.9668Q8.74023-10.1074 8.78906-3.51562Q8.83789 3.07617 14.7461 8.98438ZM35.6934-41.0156L38.0859-43.4082Q38.4277-43.75 38.7695-43.4082L67.0898-15.0879Q67.4316-14.7461 67.0898-14.4043L64.6973-12.0117Q64.3555-11.6699 63.9648-12.0117L54.541-21.4355Q52.832-23.1445 50.6104-23.0469Q48.3887-22.9492 46.4355-21.0938Q45.3125-20.0195 43.8232-17.4561Q42.334-14.8926 40.5518-11.6943Q38.7695-8.49609 36.6943-5.34668Q34.6191-2.19727 32.2754 0.0976562Q30.3223 2.05078 28.0518 2.02637Q25.7812 2.00195 23.7305 0Q21.7285-2.05078 21.7041-4.3457Q21.6797-6.64062 23.6328-8.59375Q25.9766-10.8887 29.126-12.9395Q32.2754-14.9902 35.4736-16.7969Q38.6719-18.6035 41.2354-20.0928Q43.7988-21.582 44.873-22.7051Q46.7285-24.6582 46.8262-26.8799Q46.9238-29.1016 45.166-30.8105L35.6934-40.332Q35.3516-40.625 35.6934-41.0156ZM28.0273-0.585938Q29.5898-0.585938 30.6396-1.66016Q31.6895-2.73438 31.6895-4.24805Q31.6895-5.76172 30.6396-6.83594Q29.5898-7.91016 28.0273-7.91016Q26.5625-7.91016 25.4639-6.83594Q24.3652-5.76172 24.3652-4.24805Q24.3652-2.73438 25.4639-1.66016Q26.5625-0.585938 28.0273-0.585938ZM73.6816-12.5977L93.75-32.6172Q97.8027-36.6699 97.7051-41.333Q97.6074-45.9961 93.5059-50.1465L63.2324-80.4688Q60.2539-83.4961 56.6406-83.6914Q53.0273-83.8867 50.0977-81.7139Q47.168-79.541 46.1914-75.3418Q44.9219-69.7754 44.0674-66.3086Q43.2129-62.8418 42.5293-60.6445Q41.8457-58.4473 41.0156-56.8115Q40.1855-55.1758 38.9404-53.3691Q37.6953-51.5625 35.6934-48.7793L43.9941-40.5762Q47.4609-44.7266 49.3896-47.9004Q51.3184-51.0742 52.4414-54.0771Q53.5645-57.0801 54.4678-60.5469Q55.3711-64.0137 56.6895-68.75Q56.8359-69.1406 57.0801-69.2139Q57.3242-69.2871 57.6172-68.9941L84.7656-41.8457Q85.3516-41.3086 85.3516-41.0156Q85.3516-40.7227 84.9121-40.2832L65.4785-20.8008ZM67.041-37.5488Q67.8223-36.8164 69.9951-37.4268Q72.168-38.0371 74.9023-39.502Q77.6367-40.9668 80.1514-42.8711Q82.666-44.7754 84.082-46.582L75.6836-54.9805Q75.1465-49.9023 72.7539-46.0693Q70.3613-42.2363 67.1387-39.0137Q66.3574-38.2324 67.041-37.5488Z"/>
  </g>
  <g id="Heavy-S" transform="matrix(1 0 0 1 2584.19 696)">
   <path d="M14.5271 8.24681Q20.2048 13.9245 26.5373 13.992Q32.8698 14.0595 38.4872 8.4679Q40.11 6.89388 41.72 4.51692Q43.33 2.13996 44.8969-0.492663Q46.4638-3.12529 47.9215-5.60263Q49.3792-8.07998 50.623-9.8663L57.8155-2.62488Q60.8538 0.424912 64.4089 0.443563Q67.9639 0.462215 70.8672-2.47839L76.218-7.878Q79.2074-10.8674 79.1644-14.3679Q79.1213-17.8684 76.0715-20.8808L43.6806-53.3091Q40.6308-56.3962 37.1245-56.402Q33.6183-56.4077 30.5916-53.4183L25.2781-48.1048Q22.3002-45.1269 22.3375-41.6336Q22.3748-38.1402 25.4246-35.0531L32.5799-27.8605Q30.8424-26.5795 28.3837-25.1218Q25.925-23.6641 23.2737-22.0972Q20.6225-20.5303 18.2641-18.9203Q15.9058-17.3103 14.3318-15.7248Q8.74023-10.1074 8.78906-3.76916Q8.83789 2.5691 14.5271 8.24681ZM34.564-41.2L37.0718-43.6848Q37.7017-44.3147 38.3201-43.6963L66.4214-15.595Q67.0398-14.9766 66.4099-14.3467L63.9251-11.8504Q63.2837-11.1974 62.6165-11.8389L53.3079-21.1705Q51.7372-22.7527 49.7057-22.6493Q47.6742-22.5459 45.8708-20.8287Q44.7709-19.766 43.2874-17.214Q41.8039-14.6621 40.0159-11.4581Q38.2279-8.25408 36.1412-5.09314Q34.0544-1.9322 31.7107 0.374243Q29.5847 2.50024 27.1356 2.48158Q24.6864 2.46293 22.4743 0.288112Q20.2995-1.92401 20.2808-4.39756Q20.2622-6.87111 22.3766-8.98558Q24.7204-11.292 27.8871-13.3601Q31.0538-15.4282 34.2578-17.2348Q37.4618-19.0414 40.0138-20.5249Q42.5657-22.0084 43.6284-23.1084Q45.3456-24.9117 45.449-26.9433Q45.5524-28.9748 43.9444-30.5455L34.564-39.9402Q33.9341-40.5328 34.564-41.2ZM27.1169-0.343924Q28.7716-0.343924 29.9136-1.50458Q31.0556-2.66523 31.0556-4.29414Q31.0556-5.92306 29.9136-7.07795Q28.7716-8.23284 27.1169-8.23284Q25.5253-8.23284 24.346-7.07795Q23.1667-5.92306 23.1667-4.29414Q23.1667-2.66523 24.346-1.50458Q25.5253-0.343924 27.1169-0.343924ZM72.7366-13.4159L92.4132-33.0551Q96.3046-36.935 96.2127-41.3791Q96.1208-45.8232 92.1805-49.8008L61.9186-80.1115Q59.1476-82.9199 55.7302-83.1094Q52.3128-83.299 49.5214-81.2644Q46.73-79.2299 45.8111-75.2496Q44.5761-69.8561 43.7447-66.4469Q42.9133-63.0377 42.2412-60.8289Q41.5691-58.6201 40.7448-56.9441Q39.9205-55.268 38.6927-53.444Q37.4648-51.6201 35.4974-48.883L43.0261-41.4405Q46.297-45.4065 48.145-48.4881Q49.993-51.5698 51.093-54.5381Q52.193-57.5065 53.1079-61.0136Q54.0227-64.5207 55.3641-69.3493Q55.5567-69.9243 55.9392-70.0552Q56.3216-70.186 56.7644-69.7548L84.2355-42.2952Q84.9713-41.5967 84.977-41.0675Q84.9828-40.5383 84.382-39.9375L65.3172-20.8354ZM66.1306-37.6295Q66.9118-36.8856 69.0789-37.4959Q71.246-38.1063 73.9804-39.5769Q76.7148-41.0475 79.2352-42.9518Q81.7556-44.8561 83.1716-46.6627L74.7732-55.0611Q74.2361-49.9715 71.8435-46.1442Q69.4509-42.317 66.2282-39.0943Q65.447-38.3131 66.1306-37.6295Z"/>
  </g>
  <g id="Bold-S" transform="matrix(1 0 0 1 2288.32 696)">
   <path d="M14.2822 7.42188Q19.7021 12.8418 25.7446 12.9028Q31.7871 12.9639 37.1338 7.61719Q38.7695 6.03027 40.4053 3.58887Q42.041 1.14746 43.6401-1.5625Q45.2393-4.27246 46.7163-6.7627Q48.1934-9.25293 49.4629-10.9619L56.8359-3.54004Q59.668-0.683594 62.9395-0.671387Q66.2109-0.65918 68.9209-3.39355L74.1943-8.71582Q76.9775-11.499 76.9409-14.7095Q76.9043-17.9199 74.0479-20.752L42.4561-52.3682Q39.5996-55.249 36.377-55.2612Q33.1543-55.2734 30.3467-52.4902L25.0977-47.2412Q22.3389-44.4824 22.3633-41.2598Q22.3877-38.0371 25.2441-35.1562L32.5928-27.7832Q30.9326-26.4893 28.4546-25.0122Q25.9766-23.5352 23.2544-21.936Q20.5322-20.3369 18.103-18.7012Q15.6738-17.0654 14.0869-15.4541Q8.74023-10.1074 8.78906-4.05273Q8.83789 2.00195 14.2822 7.42188ZM33.3008-41.4062L35.9375-43.9941Q36.8896-44.9463 37.8174-44.0186L65.6738-16.1621Q66.6016-15.2344 65.6494-14.2822L63.0615-11.6699Q62.085-10.6689 61.1084-11.6455L51.9287-20.874Q50.5127-22.3145 48.6938-22.2046Q46.875-22.0947 45.2393-20.5322Q44.165-19.4824 42.688-16.9434Q41.2109-14.4043 39.4165-11.1938Q37.6221-7.9834 35.5225-4.80957Q33.4229-1.63574 31.0791 0.683594Q28.7598 3.00293 26.1108 2.99072Q23.4619 2.97852 21.0693 0.610352Q18.7012-1.78223 18.689-4.45557Q18.6768-7.12891 20.9717-9.42383Q23.3154-11.7432 26.5015-13.8306Q29.6875-15.918 32.8979-17.7246Q36.1084-19.5312 38.6475-21.0083Q41.1865-22.4854 42.2363-23.5596Q43.7988-25.1953 43.9087-27.0142Q44.0186-28.833 42.5781-30.249L33.3008-39.502Q32.3486-40.4297 33.3008-41.4062ZM26.0986-0.0732422Q27.8564-0.0732422 29.1016-1.33057Q30.3467-2.58789 30.3467-4.3457Q30.3467-6.10352 29.1016-7.34863Q27.8564-8.59375 26.0986-8.59375Q24.3652-8.59375 23.0957-7.34863Q21.8262-6.10352 21.8262-4.3457Q21.8262-2.58789 23.0957-1.33057Q24.3652-0.0732422 26.0986-0.0732422ZM71.6797-14.3311L90.918-33.5449Q94.6289-37.2314 94.5435-41.4307Q94.458-45.6299 90.6982-49.4141L60.4492-79.7119Q57.9102-82.2754 54.7119-82.4585Q51.5137-82.6416 48.877-80.7617Q46.2402-78.8818 45.3857-75.1465Q44.1895-69.9463 43.3838-66.6016Q42.5781-63.2568 41.9189-61.0352Q41.2598-58.8135 40.4419-57.0923Q39.624-55.3711 38.4155-53.5278Q37.207-51.6846 35.2783-48.999L41.9434-42.4072Q44.9951-46.167 46.7529-49.1455Q48.5107-52.124 49.585-55.0537Q50.6592-57.9834 51.5869-61.5356Q52.5146-65.0879 53.8818-70.0195Q54.126-70.8008 54.6631-70.9961Q55.2002-71.1914 55.8105-70.6055L83.6426-42.7979Q84.5459-41.9189 84.5581-41.1255Q84.5703-40.332 83.7891-39.5508L65.1367-20.874ZM65.1123-37.7197Q65.8936-36.9629 68.0542-37.5732Q70.2148-38.1836 72.9492-39.6606Q75.6836-41.1377 78.2104-43.042Q80.7373-44.9463 82.1533-46.7529L73.7549-55.1514Q73.2178-50.0488 70.8252-46.228Q68.4326-42.4072 65.21-39.1846Q64.4287-38.4033 65.1123-37.7197Z"/>
  </g>
  <g id="Semibold-S" transform="matrix(1 0 0 1 1992.18 696)">
   <path d="M14.1134 6.85313Q19.3556 12.0953 25.1981 12.1519Q31.0406 12.2085 36.2007 7.03066Q37.8453 5.43486 39.4988 2.94902Q41.1523 0.463184 42.7737-2.3001Q44.395-5.06338 45.8854-7.5625Q47.3758-10.0616 48.6631-11.7173L56.1605-4.171Q58.8504-1.44785 61.9264-1.44009Q65.0023-1.43232 67.579-4.02451L72.7991-9.29346Q75.4401-11.9345 75.408-14.945Q75.3758-17.9555 72.6526-20.6631L41.6118-51.7194Q38.8887-54.4581 35.8615-54.4748Q32.8344-54.4914 30.1778-51.8504L24.9732-46.6458Q22.3655-44.0381 22.3811-41.0021Q22.3966-37.966 25.1197-35.2273L32.6017-27.7299Q30.9948-26.4271 28.5035-24.9367Q26.0121-23.4463 23.2411-21.825Q20.47-20.2036 17.9919-18.5501Q15.5139-16.8966 13.9181-15.2675Q8.74023-10.1074 8.78906-4.24824Q8.83789 1.61094 14.1134 6.85313ZM32.4299-41.5484L35.1555-44.2074Q36.3298-45.3817 37.4708-44.2407L65.1584-16.5531Q66.2994-15.4121 65.1251-14.2378L62.4661-11.5455Q61.2585-10.3046 60.0687-11.5122L50.9778-20.6696Q49.6685-22.0123 47.9962-21.898Q46.324-21.7837 44.8038-20.3278Q43.7474-19.2869 42.2748-16.7567Q40.8021-14.2266 39.0033-11.0117Q37.2044-7.79678 35.0959-4.61406Q32.9874-1.43135 30.6437 0.896875Q28.191 3.34951 25.4043 3.34175Q22.6177 3.33398 20.1007 0.83252Q17.5992-1.68447 17.5915-4.49556Q17.5837-7.30664 20.003-9.72598Q22.3468-12.0542 25.5461-14.1549Q28.7455-16.2557 31.9604-18.0623Q35.1753-19.8689 37.7055-21.3416Q40.2356-22.8142 41.2766-23.8706Q42.7324-25.3908 42.8467-27.063Q42.961-28.7353 41.6361-30.0446L32.4299-39.1998Q31.2556-40.3586 32.4299-41.5484ZM25.3966 0.113379Q27.2255 0.113379 28.5417-1.2106Q29.8579-2.53457 29.8579-4.38125Q29.8579-6.22793 28.5417-7.53525Q27.2255-8.84258 25.3966-8.84258Q23.5654-8.84258 22.2337-7.53525Q20.902-6.22793 20.902-4.38125Q20.902-2.53457 22.2337-1.2106Q23.5654 0.113379 25.3966 0.113379ZM70.951-14.962L89.8871-33.8826Q93.4736-37.4358 93.3926-41.4662Q93.3116-45.4966 89.6763-49.1475L59.4361-79.4364Q57.057-81.8311 54.0099-82.0097Q50.9627-82.1884 48.4326-80.4151Q45.9025-78.6419 45.0925-75.0754Q43.9229-70.0085 43.135-66.7082Q42.3471-63.4079 41.6968-61.1773Q41.0465-58.9468 40.2331-57.1945Q39.4196-55.4422 38.2245-53.5856Q37.0293-51.729 35.1272-49.079L41.1969-43.0737Q44.0976-46.6913 45.7932-49.5987Q47.4888-52.5062 48.5452-55.4092Q49.6017-58.3122 50.5383-61.8956Q51.4749-65.4789 52.8599-70.4816Q53.1396-71.4051 53.7833-71.6448Q54.4271-71.8846 55.1529-71.192L83.2338-43.1444Q84.2526-42.1411 84.2693-41.1655Q84.2859-40.1898 83.3803-39.2842L65.0123-20.9007ZM64.4103-37.7819Q65.1915-37.0162 67.3477-37.6266Q69.5039-38.2369 72.2383-39.7184Q74.9727-41.1999 77.504-43.1042Q80.0353-45.0085 81.4513-46.8151L73.0528-55.2136Q72.5157-50.1021 70.1231-46.2858Q67.7306-42.4694 64.5079-39.2468Q63.7267-38.4655 64.4103-37.7819Z"/>
  </g>
  <g id="Medium-S" transform="matrix(1 0 0 1 1695.91 696)">
   <path d="M13.9854 6.42188Q19.0928 11.5293 24.7837 11.5825Q30.4746 11.6357 35.4932 6.58594Q37.1445 4.9834 38.8115 2.46387Q40.4785-0.0556641 42.1167-2.85938Q43.7549-5.66309 45.2554-8.16895Q46.7559-10.6748 48.0566-12.29L55.6484-4.64941Q58.2305-2.02734 61.1582-2.02295Q64.0859-2.01855 66.5615-4.50293L71.7412-9.73145Q74.2744-12.2646 74.2456-15.1235Q74.2168-17.9824 71.5947-20.5957L40.9717-51.2275Q38.3496-53.8584 35.4707-53.8784Q32.5918-53.8984 30.0498-51.3652L24.8789-46.1943Q22.3857-43.7012 22.3945-40.8066Q22.4033-37.9121 25.0254-35.2812L32.6084-27.6895Q31.042-26.3799 28.5405-24.8794Q26.0391-23.3789 23.231-21.7407Q20.4229-20.1025 17.9077-18.4355Q15.3926-16.7686 13.79-15.126Q8.74023-10.1074 8.78906-4.39648Q8.83789 1.31445 13.9854 6.42188ZM31.7695-41.6562L34.5625-44.3691Q35.9053-45.7119 37.208-44.4092L64.7676-16.8496Q66.0703-15.5469 64.7275-14.2041L62.0146-11.4512Q60.6318-10.0283 59.2803-11.4111L50.2568-20.5146Q49.0283-21.7832 47.4673-21.6655Q45.9062-21.5479 44.4736-20.1729Q43.4307-19.1387 41.9614-16.6152Q40.4922-14.0918 38.6899-10.8735Q36.8877-7.65527 34.7725-4.46582Q32.6572-1.27637 30.3135 1.05859Q27.7598 3.6123 24.8687 3.60791Q21.9775 3.60352 19.3662 1.00098Q16.7637-1.61035 16.7593-4.52588Q16.7549-7.44141 19.2686-9.95508Q21.6123-12.29 24.8218-14.4009Q28.0312-16.5117 31.2495-18.3184Q34.4678-20.125 36.9912-21.5942Q39.5146-23.0635 40.5488-24.1064Q41.9238-25.5391 42.0415-27.1001Q42.1592-28.6611 40.9219-29.8896L31.7695-38.9707Q30.4268-40.3047 31.7695-41.6562ZM24.8643 0.254883Q26.7471 0.254883 28.1172-1.11963Q29.4873-2.49414 29.4873-4.4082Q29.4873-6.32227 28.1172-7.67676Q26.7471-9.03125 24.8643-9.03125Q22.959-9.03125 21.5801-7.67676Q20.2012-6.32227 20.2012-4.4082Q20.2012-2.49414 21.5801-1.11963Q22.959 0.254883 24.8643 0.254883ZM70.3984-15.4404L89.1055-34.1387Q92.5977-37.5908 92.52-41.4932Q92.4424-45.3955 88.9014-48.9453L58.668-79.2275Q56.4102-81.4941 53.4775-81.6694Q50.5449-81.8447 48.0957-80.1523Q45.6465-78.46 44.8701-75.0215Q43.7207-70.0557 42.9463-66.7891Q42.1719-63.5225 41.5283-61.2852Q40.8848-59.0479 40.0747-57.272Q39.2646-55.4961 38.0796-53.6294Q36.8945-51.7627 35.0127-49.1396L40.6309-43.5791Q43.417-47.0889 45.0654-49.9424Q46.7139-52.7959 47.7568-55.6787Q48.7998-58.5615 49.7432-62.1685Q50.6865-65.7754 52.085-70.832Q52.3916-71.8633 53.1162-72.1367Q53.8408-72.4102 54.6543-71.6367L82.9238-43.4072Q84.0303-42.3096 84.0503-41.1958Q84.0703-40.082 83.0703-39.082L64.918-20.9209ZM63.8779-37.8291Q64.6592-37.0566 66.812-37.667Q68.9648-38.2773 71.6992-39.7622Q74.4336-41.2471 76.9683-43.1514Q79.5029-45.0557 80.9189-46.8623L72.5205-55.2607Q71.9834-50.1426 69.5908-46.3296Q67.1982-42.5166 63.9756-39.2939Q63.1943-38.5127 63.8779-37.8291Z"/>
  </g>
  <g id="Regular-S" transform="matrix(1 0 0 1 1399.77 696)">
   <path d="M13.8184 5.85938Q18.75 10.791 24.2432 10.8398Q29.7363 10.8887 34.5703 6.00586Q36.2305 4.39453 37.915 1.83105Q39.5996-0.732422 41.2598-3.58887Q42.9199-6.44531 44.4336-8.95996Q45.9473-11.4746 47.2656-13.0371L54.9805-5.27344Q57.4219-2.7832 60.1562-2.7832Q62.8906-2.7832 65.2344-5.12695L70.3613-10.3027Q72.7539-12.6953 72.7295-15.3564Q72.7051-18.0176 70.2148-20.5078L40.1367-50.5859Q37.6465-53.0762 34.9609-53.1006Q32.2754-53.125 29.8828-50.7324L24.7559-45.6055Q22.4121-43.2617 22.4121-40.5518Q22.4121-37.8418 24.9023-35.3516L32.6172-27.6367Q31.1035-26.3184 28.5889-24.8047Q26.0742-23.291 23.2178-21.6309Q20.3613-19.9707 17.7979-18.2861Q15.2344-16.6016 13.623-14.9414Q8.74023-10.1074 8.78906-4.58984Q8.83789 0.927734 13.8184 5.85938ZM30.9082-41.7969L33.7891-44.5801Q35.3516-46.1426 36.8652-44.6289L64.2578-17.2363Q65.7715-15.7227 64.209-14.1602L61.4258-11.3281Q59.8145-9.66797 58.252-11.2793L49.3164-20.3125Q48.1934-21.4844 46.7773-21.3623Q45.3613-21.2402 44.043-19.9707Q43.0176-18.9453 41.5527-16.4307Q40.0879-13.916 38.2812-10.6934Q36.4746-7.4707 34.3506-4.27246Q32.2266-1.07422 29.8828 1.26953Q27.1973 3.95508 24.1699 3.95508Q21.1426 3.95508 18.4082 1.2207Q15.6738-1.51367 15.6738-4.56543Q15.6738-7.61719 18.3105-10.2539Q20.6543-12.5977 23.877-14.7217Q27.0996-16.8457 30.3223-18.6523Q33.5449-20.459 36.0596-21.9238Q38.5742-23.3887 39.5996-24.4141Q40.8691-25.7324 40.9912-27.1484Q41.1133-28.5645 39.9902-29.6875L30.9082-38.6719Q29.3457-40.2344 30.9082-41.7969ZM24.1699 0.439453Q26.123 0.439453 27.5635-1.00098Q29.0039-2.44141 29.0039-4.44336Q29.0039-6.44531 27.5635-7.86133Q26.123-9.27734 24.1699-9.27734Q22.168-9.27734 20.7275-7.86133Q19.2871-6.44531 19.2871-4.44336Q19.2871-2.44141 20.7275-1.00098Q22.168 0.439453 24.1699 0.439453ZM69.6777-16.0645L88.0859-34.4727Q91.4551-37.793 91.3818-41.5283Q91.3086-45.2637 87.8906-48.6816L57.666-78.9551Q55.5664-81.0547 52.7832-81.2256Q50-81.3965 47.6562-79.8096Q45.3125-78.2227 44.5801-74.9512Q43.457-70.1172 42.7002-66.8945Q41.9434-63.6719 41.3086-61.4258Q40.6738-59.1797 39.8682-57.373Q39.0625-55.5664 37.8906-53.6865Q36.7188-51.8066 34.8633-49.2188L39.8926-44.2383Q42.5293-47.6074 44.1162-50.3906Q45.7031-53.1738 46.7285-56.0303Q47.7539-58.8867 48.7061-62.5244Q49.6582-66.1621 51.0742-71.2891Q51.416-72.4609 52.2461-72.7783Q53.0762-73.0957 54.0039-72.2168L82.5195-43.75Q83.7402-42.5293 83.7646-41.2354Q83.7891-39.9414 82.666-38.8184L64.7949-20.9473ZM63.1836-37.8906Q63.9648-37.1094 66.1133-37.7197Q68.2617-38.3301 70.9961-39.8193Q73.7305-41.3086 76.2695-43.2129Q78.8086-45.1172 80.2246-46.9238L71.8262-55.3223Q71.2891-50.1953 68.8965-46.3867Q66.5039-42.5781 63.2812-39.3555Q62.5-38.5742 63.1836-37.8906Z"/>
  </g>
  <g id="Light-S" transform="matrix(1 0 0 1 1104.17 696)">
   <path d="M13.5005 5.17832Q18.1597 9.80708 23.3274 9.85591Q28.495 9.90473 33.0416 5.30955Q34.8681 3.51664 36.6511 0.748825Q38.4341-2.01899 40.1473-5.06465Q41.8605-8.1103 43.4347-10.7764Q45.0089-13.4425 46.433-15.0805L54.9047-6.57527Q56.9979-4.44819 59.3767-4.45582Q61.7554-4.46345 63.7662-6.48931L68.5903-11.3319Q70.6347-13.3916 70.6179-15.7122Q70.6011-18.0328 68.4893-20.1447L38.7896-49.8444Q36.6625-51.9712 34.3328-51.9805Q32.003-51.9897 29.9433-49.9453L25.1343-45.121Q23.1084-43.1104 23.0933-40.7486Q23.0782-38.3868 25.205-36.2597L33.6919-27.788Q32.0875-26.3789 29.4214-24.8047Q26.7553-23.2305 23.7096-21.5173Q20.664-19.8041 17.8961-18.0213Q15.1283-16.2384 13.3354-14.4117Q8.74023-9.85006 8.78906-4.6655Q8.83789 0.519053 13.5005 5.17832ZM29.7579-42.0845L33.0475-45.3067Q34.61-46.8692 36.1237-45.3402L63.9854-17.4784Q65.4839-15.98 63.9366-14.4023L60.7295-11.1615Q59.1484-9.53166 57.5859-11.128L48.3175-20.4488Q47.3457-21.4541 46.1416-21.3926Q44.9374-21.331 43.8159-20.2281Q42.6239-19.0514 41.0456-16.3626Q39.4674-13.6739 37.6153-10.3301Q35.7633-6.98624 33.677-3.77286Q31.5908-0.559489 29.3983 1.64795Q26.5312 4.53033 23.2769 4.5152Q20.0226 4.50007 17.0611 1.5536Q14.1452-1.37736 14.1299-4.65622Q14.1146-7.93508 16.9635-10.7686Q19.1709-12.9761 22.4012-15.0547Q25.6315-17.1333 28.9752-18.9854Q32.3189-20.8374 35.0076-22.4082Q37.6963-23.9789 38.873-25.1709Q39.961-26.3077 40.03-27.5042Q40.0991-28.7008 39.1273-29.6722L29.7579-38.9745Q28.1954-40.537 29.7579-42.0845ZM23.0197 0.3184Q24.897 0.3184 26.2541-1.04637Q27.6113-2.41114 27.6113-4.33731Q27.6113-6.24847 26.2541-7.60396Q24.897-8.95945 23.0197-8.95945Q21.0932-8.95945 19.721-7.60396Q18.3487-6.24847 18.3487-4.33731Q18.3487-2.41114 19.721-1.04637Q21.0932 0.3184 23.0197 0.3184ZM68.1338-16.8668L86.0728-34.8056Q89.1998-37.899 89.1492-41.43Q89.0986-44.961 85.9533-48.1064L56.0766-78.0167Q54.1285-79.9497 51.6328-80.1357Q49.1371-80.3218 47.0507-78.8635Q44.9643-77.4053 44.2924-74.3912Q43.2602-69.8901 42.511-66.7431Q41.7618-63.5961 41.0891-61.2895Q40.4165-58.9828 39.5957-57.093Q38.7749-55.2032 37.6333-53.3234Q36.4916-51.4435 34.7875-49.0824L38.6968-45.2222Q41.0611-48.3945 42.5496-51.0415Q44.0381-53.6886 45.0484-56.4845Q46.0587-59.2804 47.0108-62.8953Q47.963-66.5103 49.3032-71.6522Q49.7358-73.3238 50.8914-73.679Q52.047-74.0341 53.0805-73.0342L81.8385-44.31Q83.286-42.8622 83.2953-41.2277Q83.3046-39.5933 81.9244-38.2128L64.371-20.6446ZM62.4873-38.6475Q63.2685-37.8812 65.4246-38.4916Q67.5807-39.1019 70.315-40.5837Q73.0494-42.0654 75.5809-43.9697Q78.1123-45.874 79.5283-47.6807L71.1149-56.0791Q70.5928-50.9674 68.2002-47.1512Q65.8076-43.335 62.5849-40.1123Q61.8037-39.3311 62.4873-38.6475Z"/>
  </g>
  <g id="Thin-S" transform="matrix(1 0 0 1 808.933 696)">
   <path d="M13.08 4.27758Q17.3791 8.50574 22.1162 8.55457Q26.8533 8.6034 31.0198 4.38862Q33.0663 2.35556 34.9794-0.682511Q36.8926-3.72058 38.6759-7.01648Q40.4592-10.3124 42.1135-13.1788Q43.7677-16.0452 45.3318-17.7831L54.8045-8.29704Q56.4372-6.65027 58.3456-6.66799Q60.2539-6.68571 61.8245-8.29113L66.248-12.6931Q67.8319-14.3125 67.8252-16.1828Q67.8185-18.053 66.2072-19.6643L37.008-48.8636Q35.3612-50.5097 33.502-50.499Q31.6428-50.4883 30.0234-48.9043L25.6348-44.4803Q24.0293-42.9103 23.9942-41.0089Q23.9591-39.1076 25.6052-37.4608L35.1133-27.9882Q33.3888-26.4589 30.5224-24.8047Q27.656-23.1504 24.3601-21.3671Q21.0642-19.5838 18.0261-17.671Q14.9881-15.7581 12.955-13.7111Q8.74023-9.50967 8.78906-4.76557Q8.83789-0.0214607 13.08 4.27758ZM28.2366-42.4649L32.0667-46.2676Q33.6292-47.8301 35.1429-46.281L63.6252-17.7986Q65.1034-16.3204 63.5764-14.7225L59.8085-10.9412Q58.2675-9.35137 56.705-10.9279L46.9963-20.6291Q46.2247-21.4141 45.3007-21.4326Q44.3767-21.4511 43.5155-20.5685Q42.1032-19.1916 40.375-16.2727Q38.6467-13.3537 36.7346-9.8496Q34.8225-6.34549 32.7862-3.1121Q30.7499 0.121283 28.7576 2.14844Q25.6503 5.29116 22.0958 5.25601Q18.5413 5.22087 15.2795 1.99388Q12.1234-1.19708 12.0879-4.7763Q12.0525-8.35552 15.1818-11.4494Q17.209-13.4766 20.4493-15.4952Q23.6897-17.5137 27.1935-19.4258Q30.6973-21.3379 33.6163-23.0487Q36.5353-24.7596 37.9121-26.1719Q38.7599-27.0685 38.7588-27.9748Q38.7577-28.881 37.9861-29.6521L28.2366-39.3748Q26.6741-40.9373 28.2366-42.4649ZM21.4984 0.158298Q23.2755 0.158298 24.5224-1.10641Q25.7694-2.37112 25.7694-4.19705Q25.7694-5.98814 24.5224-7.26358Q23.2755-8.53902 21.4984-8.53902Q19.6718-8.53902 18.3897-7.26358Q17.1076-5.98814 17.1076-4.19705Q17.1076-2.37112 18.3897-1.10641Q19.6718 0.158298 21.4984 0.158298ZM66.0918-17.928L83.4103-35.2458Q86.2171-38.0393 86.1964-41.3Q86.1757-44.5608 83.391-47.3456L53.9744-76.7755Q52.2268-78.4883 50.1113-78.6943Q47.9959-78.9003 46.2499-77.6123Q44.5039-76.3243 43.912-73.6505Q42.9999-69.5897 42.2607-66.5428Q41.5216-63.4959 40.7989-61.1092Q40.0761-58.7225 39.2353-56.7227Q38.3945-54.7229 37.2929-52.8431Q36.1913-50.9632 34.6873-48.9022L37.1153-46.5236Q39.1194-49.4355 40.4777-51.9024Q41.8361-54.3693 42.8263-57.0852Q43.8165-59.8011 44.7687-63.3859Q45.7208-66.9707 46.9608-72.1325Q47.5135-74.4651 49.0996-74.8702Q50.6858-75.2752 51.8592-74.1152L80.9377-45.0506Q82.6853-43.3025 82.6746-41.2176Q82.6638-39.1328 80.9436-37.412L63.8103-20.2444ZM61.5664-39.6484Q62.3476-38.902 64.5138-39.5124Q66.6799-40.1227 69.4143-41.5946Q72.1487-43.0664 74.67-44.9707Q77.1914-46.875 78.6074-48.6816L70.1741-57.0801Q69.6718-51.9886 67.2792-48.1623Q64.8867-44.3359 61.664-41.1133Q60.8828-40.332 61.5664-39.6484Z"/>
  </g>
  <g id="Ultralight-S" transform="matrix(1 0 0 1 512.975 696)">
   <path d="M12.8647 3.81622Q16.9792 7.8392 21.4958 7.88803Q26.0124 7.93686 29.9843 3.91693Q32.1434 1.76086 34.1232-1.41563Q36.1031-4.59213 37.9223-8.0162Q39.7415-11.4403 41.4368-14.4093Q43.132-17.3782 44.7678-19.1673L54.7531-9.17892Q56.1501-7.77817 57.8175-7.80106Q59.4849-7.82394 60.8299-9.21402L65.0482-13.3904Q66.3963-14.7842 66.3948-16.4238Q66.3933-18.0634 65.0383-19.4183L36.0954-48.3612Q34.6947-49.7612 33.0765-49.7402Q31.4583-49.7192 30.0644-48.3711L25.8911-44.1521Q24.501-42.8078 24.4556-41.1423Q24.4102-39.4768 25.8102-38.076L35.8414-28.0907Q34.0553-26.4999 31.0863-24.8047Q28.1174-23.1094 24.6933-21.2902Q21.2692-19.471 18.0927-17.4915Q14.9162-15.5121 12.7602-13.3522Q8.74023-9.33533 8.78906-4.81682Q8.83789-0.298309 12.8647 3.81622ZM27.4574-42.6598L31.5643-46.7598Q33.1268-48.3223 34.6405-46.7628L63.4407-17.9626Q64.9086-16.4948 63.3919-14.8865L59.3369-10.8284Q57.8163-9.25903 56.2538-10.8253L46.3196-20.7214Q45.6505-21.3936 44.87-21.4531Q44.0895-21.5126 43.3617-20.7428Q41.8365-19.2635 40.0314-16.2266Q38.2263-13.1897 36.2835-9.6035Q34.3407-6.0173 32.3299-2.77367Q30.3192 0.469971 28.4294 2.40479Q25.1991 5.68085 21.4909 5.63545Q17.7826 5.59006 14.3669 2.21939Q11.0878-1.10474 11.042-4.8378Q10.9962-8.57086 14.2693-11.7981Q16.2041-13.7329 19.4496-15.7207Q22.6952-17.7086 26.281-19.6514Q29.8668-21.5942 32.9037-23.3768Q35.9406-25.1595 37.4199-26.6846Q38.1447-27.4582 38.1077-28.2158Q38.0707-28.9734 37.4016-29.6417L27.4574-39.5798Q25.8949-41.1423 27.4574-42.6598ZM20.7191 0.0762939Q22.4449 0.0762939 23.6355-1.13716Q24.826-2.35062 24.826-4.12521Q24.826-5.8548 23.6355-7.08923Q22.4449-8.32367 20.7191-8.32367Q18.9438-8.32367 17.7078-7.08923Q16.4719-5.8548 16.4719-4.12521Q16.4719-2.35062 17.7078-1.13716Q18.9438 0.0762939 20.7191 0.0762939ZM65.0459-18.4715L82.0465-35.4713Q84.6893-38.1111 84.684-41.2334Q84.6786-44.3558 82.0786-46.9559L52.8976-76.1398Q51.2527-77.7397 49.332-77.956Q47.4113-78.1723 45.8397-76.9714Q44.268-75.7706 43.7172-73.2712Q42.8665-69.4359 42.1326-66.4402Q41.3986-63.4445 40.6502-61.0168Q39.9017-58.5892 39.0507-56.5331Q38.1996-54.4769 37.1185-52.597Q36.0374-50.7172 34.6359-48.8098L36.3052-47.1901Q38.1248-49.9687 39.4165-52.3434Q40.7082-54.718 41.6882-57.3929Q42.6682-60.0677 43.6203-63.6372Q44.5724-67.2066 45.7611-72.3785Q46.3753-75.0496 48.1819-75.4803Q49.9886-75.9109 51.2337-74.6689L80.4764-45.43Q82.3776-43.528 82.3566-41.2125Q82.3357-38.8969 80.4413-37.0018L63.5231-20.0394ZM61.0947-40.1611Q61.8759-39.4249 64.0472-40.0352Q66.2186-40.6456 68.9529-42.1124Q71.6873-43.5791 74.2035-45.4834Q76.7197-47.3877 78.1357-49.1943L69.6922-57.5928Q69.2001-52.5116 66.8076-48.6801Q64.415-44.8486 61.1923-41.626Q60.4111-40.8447 61.0947-40.1611Z"/>
  </g>
 </g>
</svg>
